<?xml version="1.0" encoding="utf-8"?>
<!-- Generator: Adobe Illustrator 26.0.2, SVG Export Plug-In . SVG Version: 6.00 Build 0)  -->
<svg version="1.1" id="图层_1" xmlns="http://www.w3.org/2000/svg" xmlns:xlink="http://www.w3.org/1999/xlink" x="0px" y="0px"
	 viewBox="0 0 1713 848" style="enable-background:new 0 0 1713 848;" xml:space="preserve">
<style type="text/css">
	.st0{fill:#B1B1BA;}
	.st1{fill:#F38020;stroke:#000000;stroke-miterlimit:10;}
	.st2{fill:#F38020;stroke:#000000;stroke-width:1;stroke-miterlimit:10.0002;}
</style>
<path class="st0" d="M1669.1,756.9l-0.8,2.6l5.6-2.5l-0.5,2.6l-2.1,2.6l-4.2,2.9l-7,4.5l-4.6,2.5l-0.6,2.9l-4,0.1l-6.2,2.3l-4.7,4.1
	l-8.1,6.2l-6.3,2.8l-4,1.8l-4.5-0.1l-1.5-2.1l-5.1-0.4l1.1-2.3l6.4-4.6l11.3-6.1l4.3-1.1l5.5-2.4l7-3.2l5.6-3.2l5.9-4.6l3.2-1.6
	l3.4-3.4l5.8-2.9L1669.1,756.9L1669.1,756.9z M1697.9,726.4l-0.4,6.8l2.9-4.4l1.2,1.8l-2.3,4.9l2.9,2.1l3.2,0.5l4.6-2.5l2.1,0.8
	l-5.1,5.7l-4.2,3.8l-3.8-0.2l-2.8,2l-1.5,2.7l-1.6,1.2l-4.5,3.4l-5.9,4.2l-5.9,2.5l0.4-1.6l-1.4-0.9l6.9-5.1l0.8-3.5l-3.7-2.5
	l1.7-2.4l5.3-2.2l4.2-5l2.4-4.1l0.6-4.4l0.9-1.1l-0.9-2.7l-0.8-5.7l0.4-4.6l2.3-0.5l0.8,3.6l3.1,1.7L1697.9,726.4L1697.9,726.4z
	 M1577.3,583.8l0.5-2.3l0.1-3.6l-1.6-3.2l0.1-2.7l-1.3-0.8l0.1-3.9l-1.2-3.2l-2.3,2.4l-0.4,1.8l-1.5,3.5l-1.8,3.4l0.6,2.1l-1.2,1.3
	l-1.5,4.8l0.1,3.7l-0.7,1.8l0.3,3.1l-2.6,5l-1.3,3.5l-1.7,2.9l-1.7,3.4l-4.1,2.1l-4.9-2.1l-0.5-2l-2.5-1.6h-1.6l-3.3-3.8l-2.5-2.2
	l-3.9-2l-3.9-3.5l-0.1-1.8l2.5-3.1l2.1-3.2l-0.3-2.6l1.9-0.2l2.5-2.5l2-3.4l-2.2-3.2l-1.5,1.2l-2-0.5l-3.5,1.8l-3.2-2l-1.7,0.7
	l-4.5-1.6l-2.7-2.7l-3.5-1.5l-3.1,0.9l3.9,2.1l-0.3,3.2l-4.8,1.2l-2.8-0.7l-3.6,2.2l-2.9,3.7l0.6,1.5l-2.7,1.7l-3.4,5.1l0.6,3.5
	l-3.4-0.6h-3.5l-2.5-3.8l-3.7-2.9l-2.8,0.8l-2.6,0.9l-0.3,1.6l-2.4-0.7l-0.3,1.8l-3,1.1l-1.7,2.5l-3.5,3.1l-1.4,4.8l-2.3-1.3
	l-2.2,3.1l1.5,3l-2.6,1.2l-1.4-5.5l-4.8,5.4l-0.8,3.5l-0.7,2.5l-3.8,3.3l-2,3.4l-3.5,2.8l-6.1,1.9l-3.1-0.2l-1.5,0.6l-1.1,1.4
	l-3.5,0.7l-4.7,2.4l-1.4-0.8l-2.6,0.5l-4.6,2.3l-3.2,2.7l-4.8,2.1l-3.1,4.4l0.4-4.8l-3.1,4.6l-0.1,3.7l-1.3,3.2l-1.5,1.5l-1.3,3.7
	l0.9,1.9l0.1,2l1.6,5l-0.7,3.3l-1-2.5l-2.3-1.8l0.4,5.9l-1.7-2.8l0.1,2.8l1.8,5l-0.6,5l1.7,2.5l-0.4,1.9l0.9,4.1l-1.3,3.6l-0.3,3.6
	l0.7,6.5l-0.7,3.7l-2.2,4.4l-0.6,2.3l-1.5,1.5l-2.9,0.8l-1.5,3.7l2.4,1.2l4,4.1h3.6l3.8,0.3l3.3-2.1l3.4-1.8l1.4,0.3l4.5-3.4
	l3.8-0.3l4.1-0.7l4.2,1.2l3.6-0.6l4.6-0.2l3-2.6l2.3-3.3l5.2-1.5l6.9-3.2l5,0.4l6.9-2.1l7.8-2.3l9.8-0.6l4,3.1l3.7,0.2l5.3,3.8
	l-1.6,1.5l1.8,2.4l1.3,4.6l-1.6,3.4l2.9,2.6l4.3-5.1l4.3-2.1l6.7-5.5l-1.6,4.7l-3.4,3.2l-2.5,3.7l-4.4,3.5l5.2-1.2l4.7-4.4l-0.9,4.8
	l-3.2,3.1l4.7,0.8l1.3,2.6l-0.4,3.3l-1.5,4.9l1.4,4l4,1.9l2.8,0.4l2.4,1l3.5,1.8l7.2-4.7l3.5-1.2l-2.7,3.4l2.6,1.1l2.7,2.8l4.7-2.7
	l3.8-2.5l6.3-2.7l6-0.2l4.2-2.3l0.9-2l3-4.5l3.9-4.8l3.6-3.2l4.4-5.6l3.3-3.1l4.4-5l5.4-3.1l5-5.8l3.1-4.5l1.4-3.6l3.8-5.7l2.1-2.9
	l2.5-5.7l-0.7-5.4l1.7-3.9l1.1-3.7V657l-2.8-5.1l-1.9-2.5l-2.9-3.9l0.7-6.7l-1.5,1l-1.6-2.8l-2.5,1.4l-0.6-6.9l-2.2-4l1-1.5
	l-3.1-2.8l-3.2-3l-5.3-3.3l-0.9-4.3l1.3-3.3l-0.4-5.5l-1.3-0.7l-0.2-3.2l-0.2-5.5l1.1-2.8l-2.3-2.5l-1.4-2.7l-3.9,2.4L1577.3,583.8
	L1577.3,583.8z M747.8,155.8l0.7,4.3l-3.9,5.4l-8.7,3.6l-6.7-0.9l4.2-6.4l-2.1-6.1l6.7-4.7l3.7-2.8l3.9-0.3l4.9,3.7L747.8,155.8
	L747.8,155.8z M1383.4,380.5l-4.9-2l-1-5.5l2.2-2.8l5.8-1.8l3.2,0.1l1.6,2.5l-2,2.8l-0.6,3.6L1383.4,380.5L1383.4,380.5z
	 M1450,561.5l-7-4.4l5.3-1.3l2.8,2l1.8,1.9l-0.5,1.7L1450,561.5L1450,561.5z M1476.9,552.8l0.8-1.5l4.9-1.4l4-0.2l1.8-0.8l2,0.8
	l-2.2,1.7l-6,2.8l-4.9,1.8l-4,4.8l-5,1.4l-0.6-0.8l0.7-2.1l2.8-3.9L1476.9,552.8L1476.9,552.8z M1439.6,549.5l3.5-0.6l1.2,2.8
	l-6.6,1.2l-3.9,0.9l-3-0.1l2.2-3.6l3.1-0.1l1.6-2.2L1439.6,549.5L1439.6,549.5z M1465.8,547.8l-1.1,3.5l-8.6,1.8l-7.4-0.8l0.2-2.3
	l4.5-1.3l3.4,1.9l3.8-0.5L1465.8,547.8L1465.8,547.8z M1397,540l1.3-2.6l10.3,3.1l1.8,4.1l8.3,1.1l6.6,3.8l-6.6,2.4l-5.9-2.5
	l-5.1,0.2l-5.8-0.5l-5.2-1.2l-6.3-2.4l-4.1-0.6l-2.4,0.8l-10-2.6l-0.8-2.8l-5.1-0.4l4.1-6.1l6.8,0.4l4.4,2.4l2.3,0.5l0.7,2.3
	L1397,540L1397,540z M1529.7,540.1l-0.3-4.8l1.2-2.2l1.3-2.2l1.2,1.9l-0.2,3L1529.7,540.1z M1491.9,518.3l-2.2,2.1l-3.9-1.2l-1-2.7
	l5.7-0.3L1491.9,518.3L1491.9,518.3z M1511.9,520.8l-4.7-2.6l-4.6-0.5l-3.2,0.4l-3.9-0.2l1.5-3.5l6.9-0.3l6.1,1.8L1511.9,520.8
	L1511.9,520.8z M1476.6,493.5l-4.3,1.3l-5.4-1.3l-9.3,0.3l-4.9,1l-0.9,4.8l5,5.6l3.1-2.9l10.5-2.1l-0.5,2.9l-2.4-0.9l-2.6,3.7
	l-5,2.5l5.1,8.1l-1.1,2.2l4.7,7.4l-0.3,4.1l-3.1,1.9l-2.1-2.2l3-5.2l-5.6,2.4l-1.3-1.7l0.8-2.5l-3.9-3.7l0.7-6.2l-3.8,1.9l0.2,7.4
	l-0.3,9.1l-3.6,1l-2.3-1.9l1.9-5.9l-0.6-6.1l-2.3-0.1l-1.6-4.3l2.4-4.2l0.9-5l2.9-9.6l1.2-2.6l4.7-4.8l4.4,1.9l7.1,0.9l6.5-0.3
	l5.5-4.6l1,1.4L1476.6,493.5L1476.6,493.5z M1500.2,494.6l-2.9-0.6l-0.9,3.9l2.3,3.3l-1.6,0.8l-2.2-4l-1.7-8.2l1-5.1l1.8-2.3
	l0.5,3.5l3.3,0.6l0.6,2.6L1500.2,494.6L1500.2,494.6z M1393.4,483.5l4.1,2.2l4.4-1.2l0.9-5.4l2.4-1.2l6.7-1.4l3.8-5l2.6-4l2.1-2.4
	l4.6-3.5l4.1-4.4l2.5-5h2.3l3.1,3.2l0.4,2.8l3.8,1.7l4.8,2l-0.3,2.4l-3.8,0.4l1.2,3.1l-4,2.1l-3,5.8l4.3,6l-0.9,2.9l6.5,5.9
	l-6.7,0.8l-1.8,4.3l0.2,5.8l-5.5,4.3l-0.3,6.4l-2.5,9.7l-0.8-2.3l-6.5,2.9l-2-3.9l-4-0.4l-2.8-2l-6.7,2.3l-2-3.1l-3.6,0.4l-4.6-0.8
	l-0.7-8.5l-2.8-1.8l-2.6-5.4l-0.8-5.6l0.6-5.9L1393.4,483.5L1393.4,483.5z M1364.6,533.6l-4.5-5.3l-7-5.2l-2.2-3.8l-4.1-5.2
	l-2.7-4.8l-4.1-8.9l-4.9-5.3l-1.7-5.5l-2.2-4.9l-5.1-4l-3.1-5.5l-4.4-3.6l-6.1-7l-0.6-3.2l3.6,0.3l8.8,1.2l5.2,6.2l4.5,4.3l3.2,2.7
	l5.5,6.8l5.7,0.1l4.8,4.4l3.3,5.3l4.3,2.9l-2.3,5.2l3.2,2.2l2,0.2l0.9,4.4l1.9,3.6l4.1,0.5l2.6,4l-1.7,8l-0.7,9.8L1364.6,533.6
	L1364.6,533.6z M1227.9,458.3l-2.8-5.1l-1.4-9.1l1.9-10.3l4.1,3.5l2.9,4.5l3,6.6l-0.6,6.6l-2.3,1.8L1227.9,458.3L1227.9,458.3z
	 M1005.4,60.1L992,59.4l-2.2-2.3l-7.9-1.4l-1.9-2.8l3.4-1.1l-1.6-2.8l5.4-4.3l-3.9-0.7l6.6-4.4l-2.5-2.2l6.8-2.7l10.1-3.1l11.7-0.9
	l4.9-1.8l6.6-0.6l4.2,1.9l-1.3,1.5l-11.3,2.4l-9.8,2.4l-8.6,4.7l-2.8,5l-3.3,4.9l3.1,4.3l9.9,4.3L1005.4,60.1L1005.4,60.1z
	 M1487.8,185.7l-8.9-2l3.7,9l9.5,6.3l3,4.4l-6.5-3.8l0.1,4.8l-4.6-5.2l-3.8-6l-5.5-6.8l-2.4-4.6l-6.4-8.3l-7.8-6l-6.8-8.3l1.9-2.8
	l-4.4-2.8l1.3-0.8l4.9,4l6.8,5.8l5.1,6l7.2,6.2L1487.8,185.7L1487.8,185.7z M834,150.2l-5.1-3.4l-0.9-2.5l6.7-2l1.7,3L834,150.2z
	 M758.5,133.7l4.7-0.8h5l-1.3,4.9l-4.2,5.3l4.8,0.4l0.4,0.6l4.1,7.1l3.2,1l2.9,6.9l1.3,2.3l5.8,1.2l-0.5,3.9l-2.4,1.8l1.9,3.1
	l-4.3,3.3l-6.5-0.1l-8.3,1.7l-2.2-1.2l-3.3,2.9l-4.5-0.7l-3.5,2.3l-2.5-1.2l7.3-6.5l4.3-1.3l-7.5-1l-1.3-2.4l5.1-1.9l-2.6-3.3l1-4
	l7.1,0.6l0.8-3.5l-3.1-3.8l-5.8-1.1l-1-1.6l1.7-2.7l-1.4-1.6l-2.6,2.8l-0.1-5.8l-2.2-3l1.9-6.1l3.7-4.8l3.6,0.4l5.5-0.5L758.5,133.7
	L758.5,133.7z M827.9,238.2l-0.4,8.4l-2.4-0.4l-2,2.1l-2.1-1.7l-0.4-7.6l-1.3-3.6l2.8,0.3l2.5-1.9L827.9,238.2L827.9,238.2z
	 M866.7,23.9l-7.6,2l-6.7-1.1l2.2-1.2l-2.6-1.5l7.2-0.9l1.9,1.7L866.7,23.9L866.7,23.9z M853.8,18.9l-8.5,1.8l-1.2,3.4l-3,0.9
	l-0.9,3.9l-4.4,0.2l-8.4-2.9l3-1.7l-5.7-1.4l-7.6-3.8l-3.2-3.5l9.3-1.6l2.2,1.5h5l1-1.5l5.1-0.2l4.8,1.6L853.8,18.9L853.8,18.9z
	 M872.8,14l-4.3,2.4l-10.1,0.5l-10.6-0.7l-0.9-1.3h-5.1l-4.3-2l10.4-1.2l5.3,1l3.2-1.2l9.1,1L872.8,14L872.8,14z M824.7,232.7
	l-2.4-1.2l-1.4-4.2l1-2.3l3.2-2.3l1.1,5.2L824.7,232.7L824.7,232.7z M381.9,369.7l4.4,0.1l3.1,1.6l1.4-0.1l0.8,2.2l3-0.1l-0.3,1.9
	l2.4,0.2l2.5,2.3l-2.3,2.6l-2.5-1.3l-2.6,0.2L390,379l-1.1,1.2l-2.2,0.4l-0.6-1.6l-2,0.9l-2.6,4.4l-1.4-1v-1.8l-3.6-1.1l-2.7,0.4
	l-3.3-0.4l-2.7,1.1l-2.8-1.9l0.7-2.1l5,0.9l4.2,0.5l2.1-1.4l-2.2-2.8l0.3-2.4l-3.4-1l1.4-1.7l3.4,0.2l4.6,1L381.9,369.7L381.9,369.7
	z M714.8,86.3l4.4,3.8l-6.1,4.2l-12.9,3.9l-3.9,1l-5.6-0.8L679,96.6l4.6-2.5l-8.8-2.7l7.8-1.1l0.1-1.6l-8.7-1.3l3.6-3.7l6.5-0.8
	l5.9,3.8l6.9-3l5.1,1.5l7.3-2.9l6.9,0.4L714.8,86.3L714.8,86.3z M349.4,383.6l-3-1l-2.9-2.3l0.8-1.5l2.4-0.4l1.2,0.2l3.7,0.6
	l2.7,1.5l0.8,1.8l-3.9,0.1L349.4,383.6L349.4,383.6z M1056.7,590.2l1.3,2.9l-0.8,3.1l-1.1,1.9l-1.6-3.8l-1.2,1.9l0.8,4.7l-0.7,2.7
	l-1.6,1.5l-0.8,5.4l-2.7,7.4l-3.3,8.8l-4.3,12l-2.8,8.9l-3.1,7.4l-4.6,1.5l-5,2.7l-3-1.7l-4.2-2.3l-1.2-3.3l0.1-5.7l-1.6-5l-0.2-4.6
	l1.3-4.6l2.6-1.1l0.2-2.1l2.9-4.8l0.8-4.1l-1.1-3l-0.8-4l-0.1-5.9l2.2-3.5l1-4.1l2.8-0.2l3.1-1.3l2.2-1.2h2.4l3.4-3.7l4.8-3.9
	l1.8-3.2l-0.6-2.7l2.3,0.8l3.3-4.5l0.3-3.8l2-2.8l1.8,2.7l1.4,2.7l1.1,4.2L1056.7,590.2L1056.7,590.2z M341.4,353.8l5.2-0.8l1.8,1.5
	l4.2,4l3,2.8h1.9l3.1,1.3l-0.6,1.7l4,0.3l3.9,2.6l-0.8,1.5l-3.8,0.8l-3.7,0.3l-3.8-0.5l-7.9,0.6l4.1-3.5l-2.1-1.7l-3.5-0.4l-1.7-1.8
	l-0.8-3.6l-3.2,0.2l-4.9-1.7l-1.5-1.3l-7-1l-1.8-1.3l2.3-1.6l-5.4-0.3l-4.4,3.3l-2.3,0.1l-0.9,1.6l-2.9,0.7l-2.2-0.6l3.1-2l1.5-2.3
	l2.7-1.4l3-1.3l4.2-0.6l1.4-0.7l4.7,0.5l4.3,0.1l4.9,2.1L341.4,353.8L341.4,353.8z M378.5,422.8l-3.3,0.8l1.7,2.9l-0.3,3.3l-2.7,3.7
	l1.9,5l2.4-0.4l1.5-4.6l-1.6-2.2v-4.8l7.1-2.6l-0.6-3l2.1-2l1.7,4.5l3.9,0.1l3.5,3.5l0.1,2.1l5,0.1l6-0.7l3.1,2.9l4.2,0.7l3.2-1.9
	l0.2-1.6l6.9-0.4l6.7-0.1l-4.8,1.9l1.8,3l4.4,0.4l4.1,3.2l0.7,5.1l2.9-0.2l2.2,1.5l3.6,2.4l3.3,4.1l0.1,3.3l2.1,0.1l2.9,3.1l2.1,2.3
	l6.7,1.3l0.6-1.1l4.6-0.5l6,1.7l1.9,0.7l4.1,1.5l5.8,5.4l0.9,2.5l1.9-0.3l1.3,3.5l3,11.2l3,1l0.1,4.4l-4.2,5.2l1.7,2l9.9,1l0.3,6.3
	l4.2-4.1l7.1,2.3l9.4,3.8l2.7,3.8l-0.8,3.5l6.5-2l10.9,3.4l8.4-0.3l8.4,5.3l7.3,7.1l4.3,1.9l4.8,0.2l2.1,2l2,8.1l1,3.9l-2,10.5
	l-2.7,4.2l-7.7,8.8l-3.3,7.2l-3.9,5.5l-1.4,0.1l-1.4,4.7l1,11.9l-1.1,9.9l-0.3,4.1l-1.6,2.6l-0.5,8.5l-5.1,8.3l-0.6,6.5l-4.2,2.8
	l-1.1,3.8h-5.9l-8.5,2.4l-3.6,2.9l-6,1.8l-6,5.1l-4.1,6.3l-0.3,4.8l1.3,3.5l-0.3,6.4l-0.8,3.1l-3.4,3.5l-4.5,11.2l-3.9,5l-3.2,3
	l-1.5,6l-2.9,3.7l-2.6,4.2l-3.2,1.4l-2.4,1.3h-6.4l-8.8-2.7l-3.3-3.3l0.3,3.3l7.8,5.5l0.1,4.5l3.9,2.8l0.3,3.2l-3.3,8.3l-6.9,3.4
	l-10.2,1.3l-5.8-0.6l2,3.8l0.1,4.8l1.8,3.1l-2.5,2.2l-5,0.9l-5.6-2.3l-1.5,1.6l2.5,6.2l4,1.9l2.2-2l2.5,3.2l-4.1,1.9l-2.9,3.9
	l1.2,6.1l-0.2,3.3l-4.7,0.1l-2.9,3.1l0.1,4.7l6.4,4.5l5.2,1.3l0.2,5.6l-4.7,3.5l-0.5,7.2l-3.5,2.5l-0.9,2.9l4.1,6.3l4.7,3.6
	l-2.2-0.4h-4.2l-1.7,1.5l-3.4,2.2l3.1,4.3l-0.2-4.1l3.3-2.5l3.7,0.7l2.3,2.8l4.3,4.6l7.7,3.6l7.3,1.5l-0.9,3l-4.3,0.3l-2.7-1.7
	l-0.4,2l-3.2,1.8l-2.3-0.1l-3-0.5l-4.3-1.8l-5.3-0.9l-7.5-3.4l-6.3-3.2l-9.7-6.8l-2.9-3.5l-3.3-3.8l-0.2-3.6l-4.2-4.1l-5-10.6
	l-0.2-6l3.4-4.8l-8.2-1.8l2.7-5.5l-2-10.2l-1.8-5.4l-1.5-8.8l-1.9-11.6l1.1-4.3l-3.3-6.3l-2.4-7.3l2.1-0.2l0.6-10.5l1.2-10.2
	l0.1-9.5l-3.2-9.5l0.5-5.3l-2.1-7.8l1.9-7.8l-0.9-12.3v-13.2l0.1-14.2l-1.5-10.4l-2.1-9l-5.9-3.7l-0.7-2.6l-11.6-6.4l-10.7-6.9
	l-4.6-3.9l-2.8-5.3l0.8-1.8l-5.4-8.4l-6.2-11.7l-6-12.7l-2.4-2.9l-2-4.7l-4.5-4.1l-4.1-2.6l1.7-2.8l-3-6.1l1.6-4.5l4.4-4l2.9-4.7
	l-1.3-2.8l-2.1,2.9l-3.4-2.7l1.1-1.8l-1-5.8l1.9-1l1-3.9l2.2-4.1l-0.4-2.6l3.1-1.4l3.9-2.5l-0.8-2l2.1-0.5l-0.2-3.2l1.4-2.3l2.8-0.4
	l2.5-4l2.2-3.3l-2-1.5l1.2-3.7l-1.1-5.9l1.2-1.6l-0.6-5.4l-2.2-3.4l0.9-3.1l1.8,0.5l1.1-1.9l-1.1-3.8l0.7-0.9l2.9,0.2l4.4-4.4
	l2.4-0.7l0.1-2.1l1.4-5.4l3.3-3l3.6-0.1l0.5-1.3l4.3,0.5l4.6-3.2l2.3-1.4l2.9-3.1l2,0.4l1.3,1.7l-1.2,2.1L378.5,422.8L378.5,422.8z
	 M459.5,200.8l3.4,0.8l4.7-0.1l-3.3,2.5l-1.9,0.4l-5.6-2.6l-0.5-2.1l2.5-1.9L459.5,200.8L459.5,200.8z M473.9,184.9l-2.5,0.1
	l-5.7-1.9l-3.5-2.9l1.9-0.6l5.9,1.6l4.1,2.6L473.9,184.9L473.9,184.9z M168.6,188.6l-3,0.9l-6.3-2.8v-2.2l-2.9-2.2l0.4-1.8l-4.3-1.1
	l0.6-3.3l1.4-1.5l4.1,1.4l2.4,0.9l4.1,0.7l0.1,2.1l0.4,2.9l3.2,2.6L168.6,188.6L168.6,188.6z M504.7,175.1l-4.9,5.4l3.8-2l2.9,1.3
	l-2.4,2.1l3.9,1.7l2.7-1.5l4.3,1.9l-2.8,4.6l3.7-1.1l-0.3,3.3l0.5,3.9l-3.5,5.5l-2.3,0.2l-3-1.2l2.5-5.1l-1.2-0.8l-7.3,5.4l-2.9-0.2
	l4.4-2.9l-4.4-1.5l-5.4,0.3l-9.6-0.1l-0.2-1.9l3.8-2.2l-1.6-1.7l5.3-3.7l8.1-9.8l4.2-3.5l4.9-2.2l2.1,0.3l-1.4,1.7L504.7,175.1
	L504.7,175.1z M147.9,153.9l1.6,0.8l4.9-0.5l-7.1,6.9l0.2,4.9h-1.9l-0.7-2.8l0.6-2.8l-0.9-1.9l1.4-2.6L147.9,153.9L147.9,153.9z
	 M428.8,106.9l-3.5,3l-1.7-0.5l-0.1-1.7l0.4-0.4l2.8-1.7l1.7,0.1L428.8,106.9L428.8,106.9z M419.2,103.7l-7.1,3.2l-3-0.2v-1.5
	l4.9-2.7l6,0.1L419.2,103.7z M416.1,87.1l-0.9,2.5l2.8-0.9l1.5,1.5l3.4,1.9l3.7,1.7l-1.3,2.7l3.4-0.4l1.9,1.8l-4.9,1.8l-5.9-1.3
	l-0.8-2.6l-6.2,3l-8.2,3l0.8-3.4l-6.3,0.6l5.7-2.8l3.6-4.4l5-5.2L416.1,87.1L416.1,87.1z M460.7,78.9l-4.9,0.2l0.7-2.6l3.8-3.1
	l4.2-0.7l2.3,1.5l-1.4,2.3l-1,0.7L460.7,78.9z M386.9,68.2l-4.2,1.9l-4.1-1.6l-3.8,0.6l-3.5-2.4l5-1.7l4.9-2.3l3,1.5l1.6,1l0.3,1
	L386.9,68.2L386.9,68.2z M333.8,47.2l-4.7,2.4l10.4-1.5l2.6,2.6l7.3-2.7l1.7,1.7l-2.2,5.1l4.3-2.1l2.8-5.3l4.2-0.8l3,0.9l2.2,2
	l-2.7,5.1l-2.4,3.6l4.2,2.6l5,2.5l-2.6,2.4l-7,0.4l0.7,2.1l-3.1,1.9l-6.7-0.8l-5.7-1.5l-5,0.4l-9.4,1.8l-11.2,0.8l-7.8,0.5l0.3-2.5
	l-4.1-1.5l-4.2,0.6l-0.6-4.2l3.3-0.6l7.1-0.9l5.5,0.3l6.2-1l-6.5-1.2l-9,0.4l-5.6-0.1v-1.9l11.5-2.1l-6.2,0.1l-5.4-1.4l7.8-3.9
	l5.1-2l14.1-3.2L333.8,47.2L333.8,47.2z M372.9,45.7l-7,3.4l-2.2-3.6l2.1-0.7l5.4-0.2L372.9,45.7z M480.6,47.3l-0.7,1.4l-8.2-0.2
	l-4.8,0.7l-0.9-0.3l-2-2.8l1.7-1.8l2.1-0.3l8.4,0.5C476.2,44.5,480.6,47.3,480.6,47.3z M441.2,47l0.3,3.2l7.1-4.1l11.6-2.1l2.3,5.3
	l-3.3,3.4l9-1.5l5.2-2.1l6.8,2.6l3.6,2.5l-1.1,2.3l8.2-1.2l1.9,3.3l8.3,2.1l2.2,2.1l0.8,5l-9,2.5l7.7,3.5l5.9,1.2l3.2,5.1l6.4,0.3
	l-3.3,3.9l-10.7,6.5l-4-2.4l-3.8-5.4l-5.8,0.7l-2.3,3.2l2.7,3.3l4.4,2.5l1,1.5v5.6l-3.6,4.1l-4.7-1.5l-8.5-4.6l3.5,4.9l2.8,3.5
	l-0.3,2l-10.7-2.3l-7.6-3.3l-3.8-2.8l2.4-1.6l-4.7-2.9l-4.7-2.7l-0.9,1.6l-13,0.9l-2.4-1.9l5.4-4.2l8-0.1l9.2-0.7l-0.2-2l3.2-2.7
	l8.6-5.4l0.4-2.4l-0.5-1.9l-4.6-2.6l-7.1-1.8l3.5-1.4l-2-3.3l-3.3-0.3l-2-1.8l-3.2,1.6l-7.9,0.6L434,63.6l-7.3-1.5l-5.9-0.8
	l-1.8-1.9l6.1-2.3l-5.6-0.1l3.3-5.2l7.1-4.6l5.8-2.1l11.2-1.3L441.2,47L441.2,47z M391.2,43.6l3.5,1l7.5-0.6l-0.5,1.5l-6,2.4
	l3.8,2.2l-5.1,4.7l-8.4,2l-3.4-0.5l-0.9-2l-5.8-3.9l1.7-1.7l7.4,0.7l-0.9-3.4L391.2,43.6L391.2,43.6z M413.5,49l-7.7,3.9l-4.3-0.2
	l1.8-4.5l2.5-2.6l4.2-2.1l5.2-1.4l7.8,0.2l6.1,1.2l-10,4.5C419.1,48,413.5,49,413.5,49z M298.8,56.2l-13.4,2.5l0.6-2.3l-5.9-2.7
	l4.3-2.2l7.4-3.8l7.6-3.3l0.3-3.1l14-0.8l4.1,1.1l9.4,0.2l1.9,1.5l1.6,2.1l-6.4,1.3l-13.8,3.6l-9.1,3.6
	C301.4,53.9,298.8,56.2,298.8,56.2z M422.9,37.9l-4.1,1.9l-5.1-0.4l-3.2-1.3l4.4-2.2l6.9-1.3l1.4,1.7L422.9,37.9L422.9,37.9z
	 M414.2,29.3l0.2,2.3l-2.8,2.5l-5.8,3.7l-6.8,0.5l-3.2-0.8l3.4-2.9l-6.6,0.4l4.3-3.8l3.8,0.1l7.6-1.6l4.8,0.3L414.2,29.3z
	 M375.1,31.8l-0.7,1.8l4.3-0.8l3.7,0.2l-2.3,2.4l-5.1,2.3l-13.8,0.8L349,40.7l-5.9,0.1l1.5-1.6l10.6-2.2l-17.8,0.5l-4.1-0.8
	l11.6-4.8l5.4-1.4l8.2,1.6l2.8,2.9l6.1,0.4l0.7-4.7l5.7-1.7l3.1,0.5L375.1,31.8L375.1,31.8z M430.3,27.5l2.3,1.6l7.3-0.1l1.4,1.6
	l-2.8,1.9l3.1,1.1l1.2,1.1l4.8,0.3l5.1,0.4l7-1.1l8-0.4l5.8,0.3l2.3,1.9l-1,2l-3.5,1.4l-6.7,1l-4.3-0.6l-11.6,0.8l-8,0.1l-5.5-0.6
	l-8.5-1.6l1.5-2.8l2.2-2.4l-1.4-2.1l-7-0.6l-2.6-1.5l3.8-2L430.3,27.5L430.3,27.5z M355.3,24.9l-5.8,3.7l-5.2,1.6l-3.8,0.3l-9.8,2.1
	l-7,0.7l-3.6-1l11.6-3.7l12.1-3.1l5.5,0.1L355.3,24.9L355.3,24.9z M435.8,25.5l-1.9,0.1l-6.4-0.3l0.6-1.3l7.2,0.1l1.5,0.9
	L435.8,25.5L435.8,25.5z M377.4,24.7l-8.6,1.3l-3.3-1.5l5.1-1.5l5.9-0.5l4.1,0.8L377.4,24.7z M385.2,20.5l-5.6,0.9h-6l1-0.7l5.7-1.3
	l1.6,0.2L385.2,20.5z M431.6,23l-6.6,1l-1.6-1.1l0.7-1.8l2.1-1.8l4.4,0.1l1.7,0.3l2.3,1.6C434.6,21.3,431.6,23,431.6,23z
	 M417.9,21.8l-1.1,1.9l-5.2-0.5l-4-1.5l-7.7-0.2l5.3-1.4l-2.8-1.1l2.1-1.7l6.1,0.6l7.4,1.7L417.9,21.8L417.9,21.8z M471.6,15.7
	l2.6,1.5l-6.4,1.3l-10.5,3.4l-6.8,0.4l-6.7-0.6l-1.6-1.9l2.1-1.6l4.3-1.2h-6.5l-2-1.5l0.3-1.9l4.9-1.9l4.1-1.3l3.9-0.3L453,9.2
	l8.2-0.2l1.6,2.2l4.7,0.9l4.7,0.8L471.6,15.7L471.6,15.7z M550.1,1.9l8.5,0.3l6.7,0.4l5.2,1l-1.1,1.1l-9.7,1.6l-9,0.8L546.8,8h7.4
	l-10.3,2.5l-6.8,1.1l-9.3,3.5l-7.9,0.8l-3.2,0.9l-11.1,0.4l4.3,0.6l-3.3,0.8l0.8,2.2l-5,1.6l-6.8,1.3l-3.6,1.9l-6.5,1.4l-0.5,1.1
	l6.4-0.2l-1,1.1l-12.6,3l-8.4-1.4l-11.7,0.8l-4.9-0.6l-6.7-0.3l2-2.3l8-1.1l2-3.4l2.5-0.3l7.5,2l-1.7-3l-4.8-0.9l4.9-1.7l7.5-1.1
	l2.8-1.6l-3-1.7l1.1-2.2l9.3,0.2l2.2,0.4l7.2-1.5l-7.2-0.5L474,12.1l-4.4-1.5L468.8,9l-2.5-1.2l1.1-1.3l6-0.8l4.1-0.1l7.4-0.6
	l6.7-1.4l3.9,0.2l2.3,1l5-2l5.1-0.6l6.4-0.4l10.3-0.2L526,2l10.2-0.6l6.9,0.3L550.1,1.9L550.1,1.9z M687.9,0.4l19.7,2.9L701,4.7
	l-12.9,0.2l-18.3,0.4l1.4,0.7l12.1-0.5l9.7,1.4l7-1.2l2.3,1.4l-4.5,2.3l9.2-1.5l16.9-1.5l10,0.8l1.6,1.7l-14.6,2.9l-2.2,1l-11.3,0.7
	l8,0.2l-4.9,3.2l-3.6,2.9l-1.1,5.1l3.6,3.2l-5.8,0.1l-6.4,1.6l6.2,2.5l-0.1,4.2l-4.1,0.5l4,4.3l-8.6,0.3l4,2.1l-1.7,1.8l-5.6,0.8
	h-5.4l4.1,3.4l-0.5,2.3l-7.2-2.1l-2.4,1.4l5,1.3l4.5,3.1L690,60l-7.3,1l-2.7-2.1l-4.2-3l0.5,3.6l-5.3,2.8l10.6,0.2l5.5,0.3
	l-11.9,4.6l-12.1,4.3l-12.5,1.8l-4.6,0.1l-4.8,2.1l-7.4,5.7l-10.2,3.9l-3,0.2l-6.1,1.4l-6.5,1.3l-4.7,3.5l-1.4,3.9l-3.3,3.7
	l-8.6,4.6l0.3,4.4l-3.5,4.8l-4.1,5.7l-6.5,0.3l-5-4.7h-8.9l-3.1-3.2l-0.8-5.6l-4.8-7.1l-0.7-3.7l1.5-5l-3.7-5.2l3.4-4l-2-2l7-6.3
	l7.1-2l2.6-2.3l2.8-4.2l-5.5,1.9l-2.6,0.8l-4,0.8l-4.2-1.8l1.5-3.6l3-2.8h3.8l7.5,1.4l-5.3-3.4l-2.6-1.8l-4.4,0.8l-2.6-1.3l7-4.8
	l-1.4-1.9l-1-3.6l-1.4-5.3l-3.6-1.9l1.4-2.1l-8-2.9l-7.6-0.3l-10.1,0.2l-9.4,0.3l-3-1.5l-3.8-3.1l10.9-1.5l7.5-0.2L519.2,25l-6.4-2
	l2.2-1.7l15.5-2.2l14.9-2.2l2.8-1.6l-8.1-1.5l4.6-1.7l14.6-2.9l5.3-0.5l0.2-1.8l8.9-1l10.9-0.6H595l2.7,1.2l10.6-2.1l7,1.4l4.5,0.3
	l6.2,1.3l-6.7-2.1l1.6-1.7l12.7-2.1l11.5,0.1l5-1.3L661.9,0L687.9,0.4L687.9,0.4z M1493,279l1.6,2.2l-1.3,3.9l-3.1-2.1l-2.1,1.5
	l0.1,3.7l-4.2-1.8l-1.2-3l1.3-3.8l3.3,0.8l1.1-2.7L1493,279L1493,279z M1517.4,259.7l0.6,5.2l2.5,3.2l-0.6,4.6l-5.4,3l-9.1,0.4
	l-4.4,7.3l-4.6-2.4l-2.4-4.8l-8.6,1.4l-5,3l-6.1,0.1l7.3,4.7l0.8,10.8l-2.5,2.7l-3.5-2.5l-0.9-5.7l-4.1-1.9l-4-4.3l4.3-2l1.1-4
	l3.9-3.3l1.9-4.4l9.6-1.9l6.3,1.3v-11.5l5,3.1l4.5-6.5l1.7-2.5l-1-7.9l-5.1-7.1l-0.2-3.9l4.8-1.2l8.1,8.7l2.8,5.2l-1.3,6.4
	L1517.4,259.7L1517.4,259.7z M1505.6,215.5l4.5,1.3l1.7-2.6l6,6.9l-6.4,1.7l-0.4,6.1l-10.8-4.2l1.6,6.8h-5.7l-4.6-6.1l-0.6-4.7
	l5.2-0.4l-4.3-8.5l-1.9-4.8l10.4,6.4L1505.6,215.5L1505.6,215.5z M1485.1,442.7l0.8,4.3l0.6,3.5l-1.5,5.8l-2.5-6.4l-2.4,3.2l2.1,4.7
	l-1.4,3l-6.8-3.7l-1.9-4.6l1.5-3.1l-3.8-3l-1.5,2.7l-2.7-0.3l-3.9,3.6l-1.1-1.9l1.9-5.4l3.4-1.7l2.8-2.4l2.2,2.8l4.2-1.7l0.7-2.8
	l3.9-0.2l-0.8-4.9l4.8,3l0.8,3.2L1485.1,442.7L1485.1,442.7z M1470.6,430.9l-1.8,2.1l-1.4,4l-1.6,1.9l-3.8-4.4l1-1.7l1.2-1.8l0.3-4
	l3-0.3l-0.5,4.2l3.6-6.1L1470.6,430.9L1470.6,430.9z M1440.5,437l-7,6l2.4-4.4l3.8-4l2.9-4.4l2.4-6.3l1.5,5.2l-3.4,3.5L1440.5,437
	L1440.5,437z M1457.9,420.6l3.5,2h3.6l0.2,2.6l-2.4,2.7l-3.3,1.9l-0.5-2.9l0.1-3.3L1457.9,420.6L1457.9,420.6z M1477.9,418.9
	l2.3,7.1l-4.5-1.7l0.4,2.1l1.7,4l-2.5,1.4l-0.7-4.5l-1.7-0.3l-1.2-3.9l3.3,0.5l-0.3-2.4l-4-4.8l5.4,0.1L1477.9,418.9L1477.9,418.9z
	 M1455,413.1l-0.8,5.5l-2.8-3.2l-3.4-4.8l4.8,0.2L1455,413.1L1455,413.1z M1448.6,378.5l3.7,1.8l1.5-1.6l0.7,1.6l-0.4,2.6l2.7,4.6
	l-0.6,5.3l-3,2.1l-0.1,5.1l2,5.1l3.1,0.7l2.3-0.8l7.5,3.6l-0.1,3.4l2,1.6l-0.2,2.9l-4.8-3.1l-2.5-3.4l-1.1,2.4l-4-3.8l-5,0.9
	l-2.9-1.4l-0.1-2.6l1.5-1.7l-1.8-1.4l-0.4,2.3l-3.3-3.7l-1.2-2.8l-1.2-6l2.6,2l-1.1-9.9l0.9-5.8L1448.6,378.5L1448.6,378.5z
	 M1651.2,539.7l-1.6,0.6l-2.2-2.5l-2.2-4l-0.9-4.8l0.8-0.7l0.5,1.9l1.6,1.5l2.5,4l2.4,2.2L1651.2,539.7L1651.2,539.7z M1630,531.1
	l-3,0.5l-1,1.8l-6.2,3.1h-2.9l-4.5-1.9l-3.1-1.8l0.6-1.9l5,0.9l3.1-0.5l1-3.1l0.8-0.1l0.4,3.4l3.2-0.5l1.7-2.2l3.3-2.3l-0.4-3.7
	l3.4-0.1l1.1,1l-0.4,3.5L1630,531.1L1630,531.1z M1636.9,524.9l-1.9,1.7l-0.8-3.8l-1.2-2.4l-2.4-2.1l-3.1-2.7l-3.9-1.9l1.6-1.5
	l2.9,1.8l1.9,1.4l2.3,1.5l2.1,2.6l2,2.1L1636.9,524.9L1636.9,524.9z M1442.8,351.3l-1.3,5.2l-4-5.4l-1.5-4.7l1.9-6.3l3.3-4.8
	l2.9,1.9l-0.1,3.9L1442.8,351.3L1442.8,351.3z M1569.3,512.8l9.6,4.4l10.2,3.6l3.7,3.3l2.9,3.2l0.6,3.7l9.1,4l1.1,3.3l-5.2,0.7
	l0.9,4.3l4.7,4.1l3,6.8l3.2-0.2l-0.5,2.8l4.2,1.1l-1.8,1.2l5.6,2.7l-0.8,1.8l-3.8,0.4l-1.1-1.6l-4.8-0.7l-5.5-1l-3.9-4l-2.9-3.5
	l-2.4-5.6l-7-2.8l-4.9,1.8l-3.6,2.1l0.3,4.7l-4.6,2.2l-3.1-1.1l-5.7-0.2l-4.6-5.2l-5.5-1.3l-1.6,1.8l-7.1,0.2l2.8-5.2l3.7-1.8
	l-1-6.9l-2.3-5.3l-10.6-5.4l-4.6-0.5l-8.2-5.9l-1.8,3.1l-2.1,0.5l-1.2-2.3l0.1-2.8l-4.2-3.1l6.2-2.3l4,0.1l-0.4-1.6l-8.3-0.1
	l-2.1-3.7l-5-1.2l-2.3-3.2l7.6-1.5l2.9-2.1l9,2.6l0.8,2.4l1.3,10.3l5.7,3.8l4.9-6.8l6.6-3.8h5l4.7,2.2l4.1,2.3L1569.3,512.8
	L1569.3,512.8z M439.5,211.6l-6.3,3l-6,2.1l-5.9,1.8l-3.9,3.7l-1.4,1.3l-1.1,3.3l0.6,3.3l2.1,0.1l0.2-2.2l1.1,1.4l-1,1.7l-3.8,1
	l-2.4-0.1l-4.1,1.1l-2.4,0.3l-3.1,0.3l-4.8,1.8l7.9-1.2l1.1,1.2l-7.8,1.9h-3.3l-1.7,1l-1.1,4.8l-5.2,4.9l0.1-1.6l-2.3-2l0.1,3.5
	l0.9,1.1l-0.6,2.5l-2.4,2.5l-4.4,5.1l2.5-4.6l-2-2.5l1-5.3l-1.9,2.7v4.1l-3.2-1l3,2.1l-1.5,6.2l1.3,2.6l-0.9,6.5l-4.6,4.8l-6,1.9
	l-4.4,3.8l-2.8,0.4l-3.3,2.3l-1.3,2.2l-6.9,4.1l-3.7,3l-3.5,3.8l-1.8,4.5l-0.1,4.4l0.7,5.4l1.5,4.5l-0.5,2.7l1.2,7.4l-0.9,4.3
	l-0.7,2.5l-2,3.9l-1.7,0.8l-2.6-0.8l-0.4-2.8l-1.8-1.4l-2-5.5l-1.6-4.9l-0.4-2.5l2-4.2l-0.8-3.5l-3-5.3l-1.9-1l-6.1,2.9l-2.9-3.3
	l-3-1.5l-6.2,0.8l-4.7-0.7l-4.2,0.4l-2.4,1l0.5,1.7l-0.7,2.5l0.9,1.3l-1.3,0.8l-1.7-0.9l-2.4,1.2l-3.8-0.2l-3.3-3.4l-4.9,0.8
	l-3.5-1.4l-3.5,0.4l-4.9,1.5l-6.1,4.7l-6,2.7l-3.7,3.1l-1.9,2.8l-1,4.4l-0.4,3.1l0.6,2.2l-3.1,5.6l-1.8,4.5l-1.8,8.6l-1.1,3.1
	l0.5,3.4l1.2,3.1l0.4,5l3,4.7l0.7,3.6l1.8,3.2l5.6,1.7l1.9,2.6l5.1-1.8l4.3-0.6l4.3-1.1l3.6-1.1l3.9-2.6l1.8-3.7l1.2-5.4l1.2-1.8
	l4-1.7l6-1.5l4.8,0.2l3.4-0.5l1.2,1.3l-0.6,3.1l-3.5,3.8l-1.8,3.9l0.9,1.1l-1.2,2.7l-2,5l-1.4-0.6l-0.3,1.8l-1.3,2.7l-0.5,3.3
	l-0.7,3.8l-1.3,1.7l-2.4,2.4l1.7,1.1l2.1-0.1l1.9-0.9l1.6-0.1l3.9,0.8l2.6-0.2l1.8-0.7l2.5-0.3l2.8,0.2l3.6,0.4l2.4,1.3l1.5,1.4
	l1.9,1l1.3,1.8l-1,2l0.3,2.3l-1.4,2.2l-0.9,2.5l-0.4,2.8l0.2,1.7l-0.1,2.8l-1.6,3.4l0.2,1.7l-1.2,1.6l0.1,1.7l0.8,1.1l1.2,3.4l2,2.6
	l2.4,2.7l1.9,2.3l-0.2,1.3l2.3,0.3l2,1.1l2.7-0.5l2.5-1.6l3.5-1.3l2-1.9l3.1,0.4l2.8,0.8l2.5,1.1l1.7,1.9l2,1.8l0.4,4.7l-1.1,1.9
	l-1.8-0.5l-0.9,3.1l-1.8-1.8l-1-3.5l1.5-1.7l-2.4-2.5l-2.7-1.8l-2.5,0.4l-1.2,2.2l-2.3,1.6l-1.9,1.6l2.5,3.4l-1.5,0.9l-3.5,1.2
	l-0.8-3.8l-0.8,1.1l-1.8-0.4l-1-2.5l-2.3-0.5l-1.4-0.7h-2.4l-0.3,1.4l-3.5-2.4l-1.1-1.3l0.7-1.1l-0.1-1.4l-1.5-1.5l-2.1-1.3
	l-1.9-0.8l-0.3-1.9l-1.4-1.1l0.3,1.8l-1.2,1.6l-1.2-1.8l-1.7-0.6l-0.7-1.3l0.1-2l0.9-2l-1.5-0.9l1.4-1.2l-1.8-2l-2.5-2.6l-1-2.1
	l-2.2-2l-2.6-2.9h1.6l-0.3-2.4l-1.7-0.6l-0.7,1.5l-3.3-0.1l-1.9-0.6l-2.2-1.3l-3.1-0.4l-1.4-1.3l-2.8-1.1l-3.4-0.1l-2.5-1.3
	l-2.7-2.6l-5.5-6.9l-2.6-2.1l-4.4-1.6l-3.1,0.4l-4.8,2.4l-2.9,0.7l-3.7-1.7l-4-1.2l-4.8-2.9l-4-0.9l-5.9-3l-4.2-3l-1.2-1.7l-3-0.4
	l-5.4-2l-1.9-2.9l-5.3-3.6l-2.2-4l-0.8-3.1l1.9-0.7l-0.3-1.8l1.6-1.6l0.3-2.2l-1.4-2.9v-2.5l-1.3-3.2L191,345l-4.5-4.9l-1.9-4
	l-4.1-2.6l-0.7-1.5l1.8-4l-2.5-1.5l-2.4-3.1l-0.3-4.4l-2.7-0.5l-2.3-3.4l-1.7-3.1l0.4-2l-1.5-4.7l-0.4-4.9l0.9-2.4l-3.1-2.5
	l-1.9,0.2l-2.4-1.7l-1.8,2.6l-0.1,3l-1,4.8l1.1,2.6l2.7,4.4l0.4,1.4l0.8,2.7l1,4l1.2,1.6l0.6,2.3l2.6,3.2l0.5,5.9l1,2.8l0.9,3
	l-0.4,3.4l2.6,0.2l1.6,2.9l1.5,2.8l-0.4,1.2l-2.7,2.3l-1.7-3.9l-2.9-3.6l-3.3-3.1l-2.5-1.6l1.2-4.7l-0.1-3.4l-2.1-2l-3.1-2.9
	l-1.9-0.8l-2.9-1.5l-2.3-3.7l2.7-0.2l2.7-2.3l1-2.9l-2.9-4.5l-2.6-1.8l-0.8-4l-0.7-4.1l-0.7-5.1l-0.2-5.7l0.3-3.2l-2.1-3.7l-2.2-0.7
	l0.1-1.9l-2.8-0.3l-1.3-1.7l-4.6-0.7l-1-1l0.8-3.5l-2.5-6.5l-0.4-9l0.8-1.5l-1.3-2.2L133,248l1.9-5.2l-1-3.4l3.9-5.2l2.8-5.3
	l1.1-4.7l5.4-5.8l8-11.2l4.2-8.3l1.8-5.4l0.4-2.9l1.4-1.2l5.8,2.1l-1.1,5.9l2.3-1.6l2.4-5.1l1.6-5.1l-6.1-6.1l-1.6-2.7l-6.9-2.5
	l1.3-5.5l3.6-3.7l-4.1-2.6l3.1-4.9l-2.1-4.4l2.5-3.1l-0.6-2.2l-2.5-1.9l3.3-5.2l-1.6-4.9l2.7-5.5l-4.1-0.4l-7.1-0.2l-3.7-1.7
	l-3.3-6.1l-3.2-1.1l-5.7-2l-6.7,0.5l-6-2.7l-2.6-2.5l-6.3,1.2l-3.5,4.1l-2.9,0.3l-6.5,1.3l-6.1,1.9l-6.4,1.3l3.2-3.5l8.3-5.7
	l6.7-1.8l0.4-1.4l-9.2,3.2l-7.4,3.9l-11.1,4.1l0.2,2.9l-8.9,4.2l-7.6,2.5l-6.6,1.8l-3.9,2.6l-10.5,3.1l-4.5,2.8l-8.1,2.6l-2.8-0.5
	l-6.1,1.7l-6.9,2l-6,2l-10,1.7l8.5-3.8l6.6-1.8l8.5-3.3l6.5-0.7l4.9-2.4l10.3-3.6l2.3-1.2l5.7-2.1l5.7-4.5l6.2-3.4l-7.2,1.8
	l-5.2,1.1l0.4-3l-3.6,2.1l1.6-2.9l-7.2,2.3h-2.8l3.6-3.5l3.3-2.1l-0.4-2.1l-7.2,1.1l-0.5-2.7l-1.4-1.4l4-3.3l-0.3-2.4l5.8-3.4
	l7.6-3.1l5.3-3l4.1-0.4l1.8,0.9l7-2.7l2.5,0.5l5.5-1.8l2.5-2.6l-1.1-1l5.9-2.1h-2.7l-6.1,1.2l-2.9,1.3l-1.8-1.3l-6.9,0.7l-4.5-1.4
	l1.2-2.2l-1-3.3l9.1-2.3L86.7,82h3.4l-4.3,2.8l9.2-0.2l1.2-3.5L93.9,79l0.8-2.7L94,74l-3.2-1.7l6.3-2.9l7.6-0.1l8.6-2.5l4.8-2.6
	l7.8-2.5l4.8-0.6l11-2.3l3.2,0.3l10.2-2.8l4.4,1.1l-0.5,2.4l3.3-1l6.3,0.3l-2,1.2l4.9,0.9l4.8-0.5l6.2,1.6l7.1,0.5l2.2,0.7l6.5-0.8
	l4.1,1.6l3.5,0.7l5.9,1.3l3.3,2.6l3.7,0.5l6.2-2.3l7-1.6l5.2,0.6l8.8-2.3l8.2-1.4l0.2,2.2l4.5-1.2l3.8-2.5l2.1,0.6l1.4,4.7l9.4-3.6
	l-3.9,4.1l5.9-0.9l3.3-1.6l4.5,0.3l3.8,2.3l7.5,1.9l4.7,1l4.4-0.4l2.8,2.8l-8.5,2.6l6.4,1.2l11.8-0.6l4.4-1l1.4,3.3l7-2.8l-2-2.3
	l4.4-1.8l5.2-0.3l3.8-0.5l2.1,1.3l1.5,2.9l5-0.4l5.1,2.4l7.2-0.8l5.9,0.1l2.4-3.4l4.5-0.9l4.8,1.8l-4.2,5.2l6.2-4.4l3.2,0.2l6.3-5.5
	l-1.6-3.3L388,63l5.5-5.8l8.1-3.8l4.5,0.8l1.9,2.3l0.4,6l-5.7,2.6l6.6,1l-4.3,5.5l8.7-4.2l2.2,3.5l-4.2,4l1.3,3.7l7.2-4l6.5-4.6
	l4.6-5.9l5.5,0.4l5.4,0.8l3.5,2.6l-1.7,2.7l-5,2.9l0.8,2.9l-2.3,2.7l-10.8,3.8l-6.5,0.9l-3.2-1.7l-3.2,2.8l-7.4,4.7l-2.9,2.4
	l-7.7,3.8l-6.4,0.4l-5.1,2.4l-2.9,3.7l-5.6,0.7l-8.6,4.6l-9.4,6.5l-4.9,4.6l-4.9,6.8l6,1l-1.5,5.5l-0.7,4.5l7.1-1.2l7,2.6l3.3,2.2
	l1.7,2.9l4.8,1.6l3.6,2.5l7.5,0.4l4.8,0.6l-3.6,5.2l-1.7,6l0.1,6.8l4.4,5.8l4.6-1.9l5.6-6.3l2.2-9.6l-1.7-3.2l9-2.8l7.5-4.2l4.7-4.1
	l1.7-4l-0.5-5l-3.1-4.5l8.8-6.1l1-5.3l3.8-9l3.9-1.3l6.6,1.6l4.2,0.5l4.5-1.5l3,2l3.6,3.3l0.1,2.2l7.7,0.5l-2.6,4.9l-2.2,7.3l3.7,1
	l1.6,3.4l8.1-3.2l7.4-6.5l4.3-2.7l1,5.2l2.6,7.5l2,7.1l-3.4,3.7l4.8,3.4l2.8,3.4l6.9,1.6l2.3,1.9v5.1l3.4,0.8l1.1,2.3l-2,6.8
	l-4.2,2.3l-4.2,2.1l-8.7,2.2l-7.8,5.1l-8.6,1l-10-1.3l-7.3-0.1l-5.2,0.5l-5.7,4.4l-7.2,2.7l-10.1,8.3l-7.8,5.7l4.6-1l10.9-8.2
	l12.1-5.2l7.6-0.6l3.3,3.1l-6.1,4.1l-0.6,6.8l0.1,4.6l5.5,3.1l8.6-0.8l7.1-7l-1,4.5l2.6,2.2l-7.5,4.1l-12.2,3.7l-5.8,2.4l-7.1,4.5
	l-3.7-0.5l1.5-5.2l10.4-5.1l-8.1,0.2l-5.9,0.8L439.5,211.6L439.5,211.6z M1443.2,229.5l0.6,3.1l0.8,4.6l-1.4,2.9l-4.7,2.7l0.9,3.8
	l2.9,1l3.8,2.6l4.5,4l4.3,3.9l3,4.2l3.3,7v3.6l-4.9,1.6l-2.9,2.8h-4.6l-1.9-3.4l-0.8-4.6l-5.3-7l3-0.9l-6.1-6h-4.9l-3.6-2.1v-4.5
	l-1.4-4.7l-3.7-0.6l-2.9-1.8l-6.4,2l-2.4,2.9l-4.8,1.8l1.4-3l-2.3-2.5l1.9-4.2l-4.4-3.3l-3.4,2.2l-3.6,4.4l-1.2,4.1l-5,0.3l-1.2,3
	l4.7,4.4l4.7,1l1.5,2.9l4.9,1.9l3.9-4.6l5.8,2.5l3.4,0.2l2.4,3.4l-6.7,1.8l-1,3.5l-3.8,3.2l-0.9,4.6l7.1,3.5l4.6,6.3l5.4,5.8
	l5.4,4.9l1.6,4.7l-2.8,1.7l2.5,3.4l3.8,2l0.8,5.1l0.1,5.1l-2.8,0.5l-2.1,6.9l-2.3,8.4l-3.3,7.6l-6.3,5.9l-6.6,5.3l-6.1,0.7l-2.8,2.9
	l-2.3-2.1l-2.5,3.2l-7.2,3.2l-5.6,0.9l-0.8,6.7l-3,0.4l-2.2-4.6l0.9-2.5l-7.7-2l-2.4,1l-6.5,5.5l-3.7,6l-0.5,4.4l5.3,6.7l6.4,8.3
	l5.6,4l4.1,5.1l4,11.7l0.4,11.2l-4.3,4.2l-6.1,4.1l-4.1,5.3l-6.6,5.9l-2.3-4l1.3-4.3l-4.5-3.7l-4.7-0.9l-2.6-3.3l-3.4-6.6l-5.3-2.9
	l-4.7,0.1l0.3-5l-4.9,0.1l0.2,7l-2.2,9.3l-1.4,5.6l0.7,4.6l3.7,0.2l2.6,5.8l1.4,5.5l3.3,3.6l3.4,0.8l3.1,3.3l4.8,4.4l2.6,4.3
	l0.5,4.3l-0.5,2.9l0.6,2.1l0.5,3.8l2.1,1.8l2.3,5.6l-0.1,2.1l-4,0.5l-5.4-4.8l-6.7-5l-0.8-3.2l-3.4-4.3l-1-5.3l-2.1-3.4l0.4-4.7
	l-1.4-2.7l-2.4-2.4l-1.1-3.2l-3.2-3.5l-2.9-3.1l-0.7,3.8l-1.2-3.6l0.3-3.9l1.3-6.1l-0.9-4.8l1.3-4.8l-2.2-3.8l-0.2-6.9l-2.6-3.3
	l-2.6-7.6l-2-8.1l-3.1-5.2l-3.2,3.1l-5.8,4.6l-3.2-0.6l-3.6-1.5l0.9-7.9l-1.9-5.9l-5.4-7.4l0.4-2.2l-3.4-0.9l-4.6-5.2l-1.1-5.1
	l1.6-3.6l0.5,4.6l-1,4.1l-2-3.3l-0.8-3.2l-1.5-3.1l-2.8-3.7l-5.1-0.2l0.9,2.6l-1.3,3.5l-2.5-1.3l-4.5-0.1l-0.5,2.4l-3.7-0.1
	l-6.6,1.3l0.9,4.8l-2.4,3.8l-7.4,4.2l-5.3,7.5l-3.7,4l-5,4.2l0.3,2.9l-2.6,1.6l-4.8,2.3l-3.7,5.2l1.9,8.2l0.7,5.3l-1.9,6.1l0.7,10.8
	l-2.9,0.3l-2.2,4.8l1.8,2.1l-5,1.8l-1.7,4.4l-2.2,1.8l-5.5-6l-3.1-8.9l-2.5-6.4l-2.2-3l-3.4-6.1l-2-8l-1.3-3.9l-5.8-8.8l-3.6-12.3
	l-2.5-8.1l-0.8-7.8l-1.7-5.9l-7.6,3.8l-4-0.8l-8-7.7l2.4-2.3l-1.9-2.5l-7.1-5.4l-4.2-1.6l-2.1-4.6l-4.9-4.8l-9.9,1.2l-8.9,0.1
	l-7.6,0.9l-10.5-1.9l-6.1-1.5l-6.3-0.8l-3.2-7.8l-2.8-1.1l-4,1.1l-5.1,3.1l-6.9-2.1l-6.1-4.9l-5.5-1.8l-4.3-6.1l-5.1-8.4l-2.8,1
	l-3.7-2.1l-1.7,2.5l-3.2-0.4l1.4,2.8l2.1,6.3l2.7,5.5l2.9,1.4l1.2,2.3l4,2.6l0.6,2.7l-0.4,2.1l1,2.1l1.7,1.8l0.9,2.1l0.2-3.1
	l1.1-3.3l3.3,1.3l0.5,3.7l-0.8,3.8l1.2,2.4l5.5,0.4l4.6,0.2l3.3,0.2l3.3-4.3l3.7-4.1l3-3.9l1.3,2.2l1.3,5l2.9,4.3l3.3,2.3l4.1,0.9
	l3.3,1.1l2.9,3.7l1.6,2.1l2.2,2.2l-1.6,3.8l-2.9,3.8l-1.7,4.4l-3.5,1.2l-0.6,3.2l1,4.2l-3,0.8l-3.3,2.4l-0.2,3.1l-4.6,1.3l-2.1,1.6
	l0.2,2.5l-2.5,1.8l-3.1-0.6l-3.6,2.2l-6.4,2l-0.9,2.9v2.1l-5.3,2.7l-8.8,3l-4.7,4.5l-4.1-0.1l-3.1,2.7l-3.5,1.2l-4.7,0.3l-2.5,2.1
	l-2.3,2.1l-2.7-0.2l-5.7,0.6l-1.6-3.8v-3.4l-2.3-6.6l-1.7-2.6l0.4-3.2l0.2-4l-0.9-2.8l-1.8-1.9l-0.6-2.5l-3-2.3l-3.2-5.3l-1.9-5.2
	l-4.1-4.4l-2.5-1l-4-6.1l-0.9-4.4v-3.8l-3.6-7l-2.8-2.5l-3-1.3l-2.1-3.7l-1.5-4.7l-4.2-6.2l-3.7-5.1l-3.2-4.4h-2.7l0.6-3.5V312
	l0.2-3.4l-1.3,2.5l-0.7,4.8l-1.2,3.3l-3.2-0.9l-2.7-2.9l-5.1-8.5l2.8,6.7l3.9,6.4l4.8,9.9l2.3,3.5l2,3.6l5.3,7l-0.6,5.3l6.8,5.7
	l3.1,7.5v7.7l2.5,7.6l2.2,1.6l3.1,2.4l3.7,7.3l1.8,5.9l3.2,3.1l7.9,6l3.2,3.6l3.2,3.7l1.9,2.2l2.8,1.9l1.4,1.9l-0.1,2.7l-3.1,1.5
	l2.5,1.7l-2,3.4l-1.1,2.3l2.2,3.5l2.1,3.1l2.2,2.2l18.5,7.6l4.8-0.1l-15.4,19.1l-7.4,0.3l-4.9,4.5l-3.6,0.1l-1.5,2l-4.8,7.2
	l0.2,23.2l3.3,5.3l-4,2.5l-1.4,2.7l-3,4.9l-1.8,2.6l-1.2,4.2l-2.2,2.1l-2.8,7.9l0.3,3.6l3.5,2.3l-1.5,5.5l-0.1,5l1.8,3.9l2.2,6.3
	l2,1.4l0.8,2.9l-0.4,6.3l0.4,5.6l-0.2,9.9l0.9,3.1l-1.9,4.6l-2.4,4.4l-3.7,3.9l-5.2,2.5l-6.4,3.1l-6.7,6.8l-6.3,5.7l-2.3,1.4
	l-0.7,4.6l2.4,4.8l0.8,3.7l0.5,7.8l-1.1,3l0.3,3.7L969,652l-4.6,2.2l-6.8,3.4L955,660l0.3,2.6l0.7,3.8l-1.7,4.7l-1.1,5.2l-1.6,2.9
	l-3.9,3.2l-3.7,4.2l-1.8,3.2l-3.4,4.6l-6.7,6.5l-4.1,3.8l-4.3,2.9l-5.8,2.5l-2.7,0.3l-4,0.8l-2.7,1.2l-5.7-1.2l-3.3,0.8l-7.8,2.2
	l-4.6,1l-3.5,2.4l-4.5-2.1l-4.2-2.1l-0.4-5.5l-1.4-4.2l1.9-6l-3.2-6l-2.5-5.4l-3.5-8.2l-3.9-4.8l-1.9-4.7l-1-6.2l-1.2-4.6l-1.6-9.8
	v-7.6l-0.6-3.5l-2.1-2.6l-2.7-5.2l-2.8-7.7l-1.1-4l-4.4-6.2l-0.2-4.9l-0.5-4l0.9-5.5l2-5.9l0.3-2.7l1.9-5.7l1.3-2.6l3.3-4.2l1.8-2.8
	l0.7-4.8l-0.3-3.6l-1.6-2.2l-1.5-3.9l-1.3-3.8l2-3.9l-1.6-6.1l-1.1-4.3l-2.8-4l-0.3-3.2l-1.4-4.8l-4.6-6.7l-5.8-6.4l-3.7-5.3
	l-3.4-6.6l0.2-2.1l1.3-2l1.3-4.6l1.1-4.8l0.9-8.1l0.8-5l-2.2-4.2l-2.6-1.1l-1.1-2.8l-1.4-2.7l-5.8,2.3l-4.3,1.1l-4.5-0.2l-3-3.9
	l-1.9-4.6l-3.9-4.2h-9.2l-4.6,0.8l-4.6,1.3l-8.7,3.8l-3.2,2.1l-5,1.9l-5-1.8l-6.5-1.2l-3.6,0.1l-6.6,1.1l-3.9,1.8l-5.6,2.4l-8.3-3.2
	l-5.1-4.8l-4.8-3.5l-3.7-4.1l-7.2-4.1l-2.9-9.4l-2.4-3.7l-2.1-2.5l-2.8-2.1l-0.7-2.8l-2.4-2.5l-2.9-2.6l-3.6-2.3l-1.7-2.3l-0.9-5.2
	l0.2-4.5l-5.5-6.4l5.3-3.6l0.9-8.2l1.7-4.6l1.8-6.9l-1.9-7.1l1.9-4.8l-4.4-4.1V360l0.3-3l2.2-1.7l1.9-3.3l-0.3-2.2l2-4.5l3.1-4
	l3.5-4.8l0.2-3.3l2.1-4l3.7-2.3l3.7-6.6l2.8-2.4l5.1-0.7l4.4-4.4l2.7-1.7l4.7-5.3l-1.1-7.9l2.1-5.4l0.9-3.4l3.5-4.3l5.4-2.9l4-2.6
	l3.7-6.7l1.8-3.9h3.9l3.1,2.7l5-0.4l5.5,1.4l7.4-3.4l5.7-1.2l3.4-2.6l5-2l8.9-1.2l8.7-0.5l2.7,1l4.9-2.6h5.6l2.2,1.5l3.6-0.4
	l5.6-2.6l3.7,0.7l-0.1,3.3l4.4-2.4l-2.1,4.5l0.1,3l1.9,1.6l-0.5,5.6l-3.4,3.2l1.1,3.5l2.8,0.1l1.5,3l8.4,3.2l6.7,0.5l7.2,2.8
	l2.8,5.7l4.9,1.2l7.7,2.7l5.9,3.1l2.5-1.6l2.4-3l-1.5-4.8l1.5-3.1l3.7-3l3.6-0.8l7.3,1.3l2,2.8l3.8,1.1l5.4,0.8l1.5,2.1l7.1-0.2
	l5.3,1.7l5.5,1.9l2.6,1l3.9-2l2.1-1.8l4.7-0.6l3.9,0.8l1.7,3.2l1.1-2.1l4.4,1.5l4.2,0.4l2.5-1.6l1-2.5l1.1-2.9l0.6-4.8l2-6.9
	l2.2-4.7l-1.1-5l1-2.6l-2.3-3l1.7-2.4l-3.2,0.6l-4.6-1.5l-3.1,3.7l-8,0.7l-4.6-3.5l-5.7-0.2l-0.9,2.7l-3.6,0.8l-5.4-3.5l-5.8,0.1
	l-3.7-6.4l-4.2-3.6l2-5l-3.6-3l5.1-6.1l7.9-0.2l1.6-4.8l9.9,0.8l5.6-4l5.7-1.7l8.5-0.2l9.7,4.4l7.8,2.4l5.8-1l4.5,0.6l5.5-3.2
	l0.3-2.7l-2.1-4.2l-3.4-2.3l-3-0.7l-2.2-1.9l-7.4-5.1l-6.2-2.4l-5-3.6l3.4-1l3.2-5.2l-3.2-2.4l7.1-2.3l-12.6,0.9l-3.8,1.3l-3.9,2.3
	l1,3.9l2.7,1.5l5.1-0.4l-0.6,2.2l-5.3,1.1l-6.3,3.6l-3-1.3l0.6-2.9l-5.8-1.8l5.2-3.3l-9.7-2.9l-0.7-2.4l-4.5,0.8l-1.3,3.4l-3.3,4.6
	l-1.9,2.9l-2,6.9l-2.2,2.5l-1.3,4.4l2.1,3.5l0.9,2.4l4.7,2l-6.8,1.9l-2,1.9l-3.9,3.4l-1.9-2.9l-3.3-1.5l-2.7-0.6l-6.1,1.6l3.9,3.6
	l-2.5,1h-2.9l-3-3.2v3.6l3.7,4.6l-2.1,1.8l3.3,2.5l2.7,1.8l0.4,3.7l-5-1.7l1.9,3.3l-3.3,0.7l2.4,5.7l-3.4,0.1l-4.6-2.9l-2.3-5.1
	l-1.3-4.3l-2.3-3l-2.9-3.6l-1.5-2.3l-3.2-3.5l-0.7-3l0.1-4.3l-0.5-2.9l-2.7-2.5l-3.2-1.1l-4.1-2.4l-3.1-2.2l-4.8-1.8l-4.6-4.5
	l-1.5-4.3l-3.6-1.8l-1.3,2.6l-1.7-2v-2.2l-2.8-1.5l-3.9,2.2l0.1,5l1.7,2.9l4.9,3.1l2.9,5.1l6,5l4-0.1v2.6l4.8,2.3l3.9,1.9l4.7,3.2
	l-0.2,3.5l-3.1-3l-4.5-1l-1.9,4.1l3.9,2.3l-0.4,3.3l-4.6,6l-4.7,3.5l0.9,2l-0.9,3.3l-4.2-2.4l-2.7-0.7l-7.5-3.3l0.6-3.4l6.2,0.6
	l5.2-0.7l3.3-0.4l2.4-3.5l-1.2-5l-1.8-3.2l-3.9-3.5l-3.4-1.2l-2.3-2.5l-3.9-0.4l-4.2-2.8l-4.9-4l-3.6-3.6l-1.9-6l-2.6-0.7l-4.2-2.1
	L817,218l-6.6,3.9l-10-1.6l-7.4,2l-0.5,3.7l0.3,3.5l-4.8,4.2l-6.6,1.3l-0.5,2.1l-3.1,3.5l-2,5.1l2,3.7l-3,2.9l-1.2,4.2l-3.9,1.3
	l-3.8,5h-6.7l-5-0.1l-3.3,2.3l-2.1,2.5l-4.5-2.8l-1.4-3.7l-4.8-1l-2.2,1.7l-2.7-0.9l-2.8,0.7l1-5.1l-0.4-4l-3.5-3l0.6-4.2l2.2-2.3
	l0.4-2.5l1.3-3.8l-0.1-2.7l-0.9-2.2l-0.1-2.1l0.4-4.4l-2-2.6l7.4-4.5l6.2,1.1h6.8l5.4,1l4.2-0.3l8.2,0.2l2.7-3.7l1-12.3l-5.1-6.5
	l-3.6-3.1l-7.5-2.4l-0.4-4.6l6.4-1.3l8.2,1.6l-1.4-7l4.6,2.6l11.3-4.8l1.4-5.1l4.3-1.2l3.4-1.3l6.8-10.5l6.5-2.6l-6.5,2.6l6.1-2.1
	l4.3-0.3l4.8-1.6l4-1.7l-1.2-2.2l-0.4-3.4l-2.1-3.4l-0.4-6.1l1.9-3.3l4-0.4l5.1-3.3l0.1,3l-1.3,2l3.3,2.5l-1,2.3l-4.5,3.6l1.5,3
	l0.2,2.3l4.9,1.4l0.1,2.1l4.7-1.1l2.5-1.7l5.5,2.4l2.4,1.9l3.1-1.7l7.1-2.8l5.7-2.1l4.8,1.1l5.1,1.5l0.7-2.6l6.3-2l-1.7-5l-0.5-4.5
	l1.7-3.7l4-2.1l4.4,4.5l3.6-0.1l0.2-4.6l-0.1-3.5l-4.8-1.3l-0.9-3.4l5.4-1.6l5.5-0.9l5.1,1c3.4-1.8,5.1-3.1,7.7-4.2l-3.9-2l-8,0.5
	l-7.5,2.1l-7.1,1.2l-3.1-3.1l-4.7-1.9l0.1-5.7l-2.9-5.2l1.5-3.3l3.3-3.6l8.7-6.1l2.6-1.2l-0.9-2.3l-6.4-2.6l-7,1.5l-3.4,3.9l1.2,3.5
	l-6.1,4.5l-7.7,4.9l-2.1,8.1l3.6,4l4.8,3.3l-3.3,6.6l-4.6,1.3l-0.6,10l-2,5.5l-5.7-0.5l-2.2,4.7l-5.3,0.3l-2-5.7l-4.4-6.7l-4.2-8.4
	l-3.3-3.6l-8.5,6.8l-6,1.4l-6.4-3l-1.9-6.3l-1.9-13.4l3.9-3.6l11.2-4.8l8.1-5.8l7.1-7.8l8.8-10.7l6.4-4l10.1-6.8l8.5-2.3l6.7,0.3
	l5.1-4.4l7.3,0.3l6.9-1.1l13.6,3.9l-4.8,1.4l5.4,3.3l3.6-1.8l7.6,3.2l11.6,1.3l17.6,6.1l4,2.6l1.6,3.6l-3.7,2.9l-6.4,1.5L919.3,81
	l-2.9,0.7l8,4l1,2.6l1.9,5.8l6,1.7l3.8,1.4l-0.2-2.7l-3.3-2.4l2.1-2.1l11.4,3.5l3.2-1.4l-4.2-4.1l8-5.4l4,0.3l4.6,1.9l1.1-3.8
	l-4.7-3.3l0.8-3.2l-4.3-3.4l12.2,1.8l3.6,3l-5,0.7l1.2,3l4,1.9l6-1.2l-0.4-3.5l7.6-2.6l12.3-4.6l3.2,0.2l-2.5,3.3l5.3,0.6l2.1-1.9
	l7.6-0.1l5-2.2l6.4,3.2l2.7-3.6L1021,66l14-0.1l6.6,1.7l18.5,6.1l1-2.8l-5.8-2.9l-6.1-1.6l-0.1-2.6l-4.7-4.1l3.1-6.4l-0.5-4.7
	l13.4,0.4l2.9,2.9l-0.8,4.2l3.6,1.6l3.7,3.7l3.8,7.3l6.7,3.3l0.5,3.6l-3.5,7.8l5.3,0.8l4.2-3.4l-0.5-2.7l1.9-2.6l-4.4-3.1l-0.4-3.5
	l-4.7-0.5l-2.9-2.9l-0.4-5.4l-8.1-4.2l4.6-3.5l-3.6-3.7l6,2.7l2.1,5l4.9,1l-4.5-3.8l5.1-2l7.9-0.3l9.6,3l-6.9-4.3l-4.8-5.4l5.8-1.1
	l9.5,0.3l7.7-0.7l-5.5-2.6l1.2-3.3l4.2-0.2l4.9-2.4l9.2-0.7l9-1.8l4.3,1.1l5.3-2.6l6.9,0.1l-1.5-2.1l1-2l6.1-1.9l8.2,1.5l-3.4,1.2
	l9.2,0.7l4.1,2.4l12.7-1.1l11.5,2.3l5.5,1.9l2.4,2.5l-2.3,1.5l-6.6,2.8l4.5,2.2l7.2,1.2l8.1,2.3l5.4-2.1l13.3,0.9l3.9,2.3l17.2,0.8
	l-4.7-3.9l9.3,0.9h6.1l9.8,2.6l6,3.3l0.4,2.2l10,4.1l8.9,2.1l-3-5.5l9.3,2.4l5-1.4l9.7,1.6l8.5-0.8l-9.3-4.8l2.1-2.2l40.1,3.4l7.8,3
	l16.1,4l14.7-1l9.2,0.9l6.5,2.2l5.1,3.8l7.2,1.6l3.9-1.1l7-0.2l9.2,1.1l6.8-0.6l14.2,4.8l2.5-1.8l-8.5-3.4l-1.8-2.3l15.2,1.4
	l7.9-0.3l15.7,2.6l9.4,2.3l32.9,21.9l-2,2.5l-6.1-0.4l8.1,3l9.1,4.6l4.1,1.6l3.8,2.3l-8.9,0.3l-6.5,4.3l-3.1,0.7l-1.5,4l-2,3.6
	l1.7,2.6l-11.4-4l-6.1,4.6l-4.7-2.2l-1.3,2.5l-7-0.8l3.1,3.9l1.1,5.6l2.9,2.4l6.7,1.4l9,8.6l-4.1,0.2l3.4,5l4.7,2.6l-5,3.1l5.4,6.9
	l-5.7,1.5l4.5,6.2l-1.6,5.7l-5.7-4.3l-10.5-8.8l-16-13.4l-6.4-8.3l0.1-3.6l-2.8-2.7l5.7-1.3l-0.3-7.5l0.8-6l2.4-4.6l-6.5-8.1
	l-4.7,0.5l3.2,4.7l-3.6,6.4l-12.1-7.1l-9.1,1.9v9.8l7.7,3.5l-8.4,1.6l-6.4,0.6l-4.3-4.3l-7.9-0.8l-2.5,2.8l-14.9-1l-13.1,1.8
	l-3.5,11.5l-4.9,14.1l8,0.7l5.7,3.8l5.8,1.3l0.3-3l5.6,0.4l12.7,6.7l4.7,5.1l1.3,6.2l5.5,7.3l5.2,9.9l-1,9l1.3,4.3l-1.9,7.2
	l-2.1,7.1l-1,3.7l-4.4,3.6l-3.2,0.1l-5.1-3l-4,4.5l-5.9-2.4l4.3,4.4L1443.2,229.5L1443.2,229.5z M1018.6,218.9v3.7l7.3,7.5l7.4,8.6
	l-1.1,10.6l2.6,8.7l4.9,1l4.1,2.6l9.3,1.4l7.7-1.4l-2.2-5.6v-6.7l-4.4-3.5l-4.1-4.4v-4h5.5l3-2.8l-5.5-6.5l-4,1.1l-3.2-5.1l-6.2-1.5
	l-3.3-6.1l-4.2-1.7v-1.7h4.2v-4l3.3-1.1h4.1l-2.1-9.3l-5.3,1.6l-4.2-3.1l-4.1,3.1l-6.6,1.2v4.2h-4.5l-4.4,7.4L1018.6,218.9
	L1018.6,218.9z"/>
<g>
	<circle class="st1" cx="1511.8" cy="716.5" r="8"/>
	<circle class="st1" cx="1695.5" cy="729.8" r="8"/>
	<circle class="st1" cx="970.1" cy="292" r="8"/>
	<circle class="st1" cx="799.8" cy="162.8" r="8"/>
	<circle class="st1" cx="387.4" cy="610.9" r="8"/>
	<circle class="st1" cx="857.8" cy="118.9" r="8"/>
	<circle class="st1" cx="462.4" cy="654.7" r="8"/>
	<circle class="st1" cx="902.3" cy="252.2" r="8"/>
	<circle class="st1" cx="327" cy="279.8" r="8"/>
	<circle class="st1" cx="1053.2" cy="326.7" r="8"/>
	<circle class="st1" cx="787.7" cy="230.9" r="8"/>
	<circle class="st1" cx="879.5" cy="209.1" r="8"/>
	<circle class="st1" cx="966" cy="278.6" r="8"/>
	<circle class="st1" cx="1014.5" cy="282.1" r="8"/>
	<circle class="st1" cx="1338.9" cy="406.9" r="8"/>
	<circle class="st1" cx="1210.6" cy="410" r="8"/>
	<circle class="st1" cx="319.7" cy="263.9" r="8"/>
	<circle class="st1" cx="1609.6" cy="668.5" r="8"/>
	<circle class="st1" cx="360.5" cy="464.1" r="8"/>
	<circle class="st1" cx="1180.2" cy="372.4" r="8"/>
	<circle class="st1" cx="413.6" cy="224.2" r="8"/>
	<circle class="st1" cx="798.7" cy="171.4" r="8"/>
	<circle class="st1" cx="872.6" cy="192.8" r="8"/>
	<circle class="st1" cx="375.5" cy="220.8" r="8"/>
	<circle class="st1" cx="1422.6" cy="462.5" r="8"/>
	<circle class="st1" cx="1399" cy="345.1" r="8"/>
	<circle class="st1" cx="1263.2" cy="349.8" r="8"/>
	<circle class="st1" cx="789.6" cy="183.1" r="8"/>
	<circle class="st1" cx="1470.9" cy="428.4" r="8"/>
	<circle class="st1" cx="1375.7" cy="533.1" r="8"/>
	<circle class="st1" cx="1381.7" cy="274.1" r="8"/>
	<circle class="st1" cx="1282.2" cy="352.3" r="8"/>
	<circle class="st1" cx="1353.2" cy="304.8" r="8"/>
	<circle class="st1" cx="348.2" cy="269.7" r="8"/>
	<circle class="st1" cx="1225.1" cy="448.4" r="8"/>
	<circle class="st1" cx="347.4" cy="238.9" r="8"/>
	<circle class="st1" cx="736.5" cy="281.5" r="8"/>
	<circle class="st1" cx="836.1" cy="142.7" r="8"/>
	<circle class="st1" cx="876" cy="710.3" r="8"/>
	<circle class="st1" cx="1391.3" cy="314.5" r="8"/>
	<circle class="st1" cx="1337.2" cy="299.3" r="8"/>
	<circle class="st1" cx="391.8" cy="416.5" r="8"/>
	<ellipse class="st2" cx="508.2" cy="656.6" rx="8" ry="8"/>
	<circle class="st1" cx="1272.9" cy="342.2" r="8"/>
	<circle class="st1" cx="996.9" cy="537.8" r="8"/>
	<circle class="st1" cx="1195" cy="312.2" r="8"/>
	<circle class="st1" cx="234" cy="239.9" r="8"/>
	<circle class="st1" cx="258.5" cy="284.5" r="8"/>
	<circle class="st1" cx="679.6" cy="400.2" r="8"/>
	<circle class="st1" cx="954.4" cy="144" r="8"/>
	<circle class="st1" cx="1059" cy="333.1" r="8"/>
	<circle class="st1" cx="350.1" cy="225.2" r="8"/>
	<circle class="st1" cx="747.3" cy="156" r="8"/>
	<circle class="st1" cx="945.2" cy="682.6" r="8"/>
	<circle class="st1" cx="809.7" cy="169.1" r="8"/>
	<circle class="st1" cx="1079.7" cy="333.2" r="8"/>
	<circle class="st1" cx="761.3" cy="140.8" r="8"/>
	<circle class="st1" cx="1007" cy="238" r="8"/>
	<circle class="st1" cx="393.9" cy="234.6" r="8"/>
	<circle class="st1" cx="466.4" cy="715.7" r="8"/>
	<circle class="st1" cx="839.9" cy="227.8" r="8"/>
	<circle class="st1" cx="1430.3" cy="328.9" r="8"/>
	<circle class="st1" cx="560.4" cy="518.1" r="8"/>
	<circle class="st1" cx="818.8" cy="176.6" r="8"/>
	<circle class="st1" cx="1399.2" cy="346.7" r="8"/>
	<circle class="st1" cx="539.3" cy="639.3" r="8"/>
	<circle class="st1" cx="431.8" cy="417.6" r="8"/>
	<circle class="st1" cx="833.4" cy="130.6" r="8"/>
	<circle class="st1" cx="521.9" cy="643.2" r="8"/>
	<circle class="st1" cx="272.6" cy="401.1" r="8"/>
	<circle class="st1" cx="807.6" cy="200.3" r="8"/>
	<circle class="st1" cx="1035.8" cy="236.1" r="8"/>
	<circle class="st1" cx="824.5" cy="154.8" r="8"/>
	<circle class="st1" cx="1360.2" cy="359" r="8"/>
	<circle class="st1" cx="888.8" cy="115" r="8"/>
	<circle class="st1" cx="1426.8" cy="301.5" r="8"/>
	<circle class="st1" cx="1403.8" cy="351.9" r="8"/>
	<circle class="st1" cx="-93.3" cy="358.2" r="8"/>
	<circle class="st1" cx="1389.7" cy="323.1" r="8"/>
	<circle class="st1" cx="1212.2" cy="384.2" r="8"/>
	<circle class="st1" cx="373.6" cy="245.7" r="8"/>
	<circle class="st1" cx="262.1" cy="303.1" r="8"/>
	<circle class="st1" cx="1440.2" cy="255.4" r="8"/>
	<circle class="st1" cx="329" cy="240.8" r="8"/>
	<circle class="st1" cx="1166.7" cy="280" r="8"/>
	<circle class="st1" cx="925.6" cy="232.8" r="8"/>
	<circle class="st1" cx="336.7" cy="299.9" r="8"/>
	<circle class="st1" cx="1359.9" cy="483.6" r="8"/>
	<ellipse transform="matrix(0.1602 -0.9871 0.9871 0.1602 440.0319 1358.1957)" class="st1" cx="1018.2" cy="420.5" rx="8" ry="8"/>
	<circle class="st1" cx="931" cy="660.4" r="8"/>
	<circle class="st1" cx="1266.7" cy="346.4" r="8"/>
	<circle class="st1" cx="927.5" cy="174.8" r="8"/>
	<circle class="st1" cx="679.3" cy="93.9" r="8"/>
	<circle class="st1" cx="946.4" cy="506.5" r="8"/>
	<circle class="st1" cx="1144.7" cy="335.5" r="8"/>
	<circle class="st1" cx="921.1" cy="195.9" r="8"/>
	<circle class="st1" cx="1495.6" cy="274.7" r="8"/>
	<circle class="st1" cx="1240.8" cy="317.6" r="8"/>
	<circle class="st1" cx="1348.7" cy="476.5" r="8"/>
	<circle class="st1" cx="1036.6" cy="307.8" r="8"/>
	<circle class="st1" cx="851.1" cy="550.4" r="8"/>
	<circle class="st1" cx="169.4" cy="264.1" r="8"/>
	<circle class="st1" cx="146.7" cy="277.9" r="8"/>
	<circle class="st1" cx="955.4" cy="271.9" r="8"/>
	<circle class="st1" cx="913.4" cy="117.9" r="8"/>
	<circle class="st1" cx="1176.6" cy="293.3" r="8"/>
	<circle class="st1" cx="774.8" cy="167.9" r="8"/>
	<circle class="st1" cx="346.2" cy="570.6" r="8"/>
	<circle class="st1" cx="729.4" cy="246.8" r="8"/>
	<circle class="st1" cx="795.6" cy="452.1" r="8"/>
	<circle class="st1" cx="807.4" cy="179.2" r="8"/>
	<circle class="st1" cx="1373.5" cy="272.8" r="8"/>
	<circle class="st1" cx="1224.4" cy="411.4" r="8"/>
	<circle class="st1" cx="758.5" cy="236" r="8"/>
	<circle class="st1" cx="766.2" cy="156.4" r="8"/>
	<circle class="st1" cx="999.5" cy="519.7" r="8"/>
	<circle class="st1" cx="284.4" cy="243.5" r="8"/>
	<circle class="st1" cx="1096.9" cy="343.8" r="8"/>
	<circle class="st1" cx="353.6" cy="454.7" r="8"/>
	<circle class="st1" cx="1535.9" cy="734.1" r="8"/>
	<circle class="st1" cx="299.9" cy="270.9" r="8"/>
	<circle class="st1" cx="229.2" cy="370.2" r="8"/>
	<circle class="st1" cx="241" cy="327.3" r="8"/>
	<circle class="st1" cx="1401.9" cy="352.9" r="8"/>
	<circle class="st1" cx="314.4" cy="288.3" r="8"/>
	<circle class="st1" cx="338.6" cy="329.7" r="8"/>
	<circle class="st1" cx="1190.1" cy="467.3" r="8"/>
	<circle class="st1" cx="1451.2" cy="401.6" r="8"/>
	<circle class="st1" cx="954.8" cy="659.1" r="8"/>
	<circle class="st1" cx="803.5" cy="217.6" r="8"/>
	<circle class="st1" cx="1095.4" cy="624.1" r="8"/>
	<circle class="st1" cx="306.8" cy="208.7" r="8"/>
	<circle class="st1" cx="835.2" cy="187.1" r="8"/>
	<circle class="st1" cx="820.7" cy="204" r="8"/>
	<circle class="st1" cx="1212.9" cy="359.7" r="8"/>
	<circle class="st1" cx="1381" cy="240.3" r="8"/>
	<circle class="st1" cx="984.7" cy="502.4" r="8"/>
	<circle class="st1" cx="1433.2" cy="304.1" r="8"/>
	<circle class="st1" cx="1371.7" cy="350.1" r="8"/>
	<circle class="st1" cx="1691.9" cy="634.2" r="8"/>
	<circle class="st1" cx="1518.9" cy="266.2" r="8"/>
	<circle class="st1" cx="283.4" cy="230.9" r="8"/>
	<circle class="st1" cx="326.3" cy="226.6" r="8"/>
	<circle class="st1" cx="376.3" cy="258.9" r="8"/>
	<circle class="st1" cx="736.1" cy="165.6" r="8"/>
	<circle class="st1" cx="826.8" cy="115.7" r="8"/>
	<circle class="st1" cx="908.8" cy="210.6" r="8"/>
	<circle class="st1" cx="376.7" cy="375.7" r="8"/>
	<circle class="st1" cx="1263.2" cy="319.4" r="8"/>
	<circle class="st1" cx="467.1" cy="459.3" r="8"/>
	<circle class="st1" cx="161.3" cy="204.3" r="8"/>
	<circle class="st1" cx="1398.8" cy="697.3" r="8"/>
	<circle class="st1" cx="386.7" cy="239.7" r="8"/>
	<circle class="st1" cx="179.7" cy="281.1" r="8"/>
	<circle class="st1" cx="362.1" cy="235.8" r="8"/>
	<circle class="st1" cx="1363.1" cy="420.5" r="8"/>
	<circle class="st1" cx="500.6" cy="685" r="8"/>
	<circle class="st1" cx="846.6" cy="176.2" r="8"/>
	<circle class="st1" cx="332.2" cy="436.3" r="8"/>
	<circle class="st1" cx="223" cy="362.9" r="8"/>
	<circle class="st1" cx="1310.7" cy="386.4" r="8"/>
	<circle class="st1" cx="371.6" cy="255" r="8"/>
	<circle class="st1" cx="887.7" cy="135" r="8"/>
	<circle class="st1" cx="718.9" cy="454.3" r="8"/>
	<circle class="st1" cx="1032.6" cy="335.1" r="8"/>
	<circle class="st1" cx="1083.2" cy="627.1" r="8"/>
	<circle class="st1" cx="150.3" cy="285.6" r="8"/>
	<circle class="st1" cx="399.4" cy="706.7" r="8"/>
	<circle class="st1" cx="170" cy="192.8" r="8"/>
	<circle class="st1" cx="1373.7" cy="425.2" r="8"/>
	<circle class="st1" cx="1429.4" cy="295.4" r="8"/>
	<circle class="st1" cx="1410.3" cy="227.4" r="8"/>
	<circle class="st1" cx="1361.7" cy="485.4" r="8"/>
	<circle class="st1" cx="137.3" cy="255.9" r="8"/>
	<circle class="st1" cx="305.6" cy="430.4" r="8"/>
	<circle class="st1" cx="1376.3" cy="250.1" r="8"/>
	<circle class="st1" cx="895.7" cy="235.7" r="8"/>
	<circle class="st1" cx="199" cy="234" r="8"/>
	<circle class="st1" cx="142.9" cy="247.4" r="8"/>
	<circle class="st1" cx="896.6" cy="222.2" r="8"/>
	<circle class="st1" cx="563" cy="576.2" r="8"/>
	<circle class="st1" cx="305.8" cy="247" r="8"/>
	<circle class="st1" cx="1581.8" cy="710.1" r="8"/>
	<circle class="st1" cx="1425.3" cy="294.7" r="8"/>
	<circle class="st1" cx="1402.7" cy="349.9" r="8"/>
	<circle class="st1" cx="1411.7" cy="263" r="8"/>
	<circle class="st1" cx="1007.9" cy="228.6" r="8"/>
	<circle class="st1" cx="290.8" cy="404.5" r="8"/>
	<circle class="st1" cx="322.2" cy="300.4" r="8"/>
	<circle class="st1" cx="889" cy="120.2" r="8"/>
	<circle class="st1" cx="963.9" cy="290.3" r="8"/>
	<circle class="st1" cx="1393.4" cy="259.2" r="8"/>
	<circle class="st1" cx="1039.8" cy="613.7" r="8"/>
	<circle class="st1" cx="328.8" cy="315.9" r="8"/>
	<circle class="st1" cx="1440.3" cy="334.3" r="8"/>
	<circle class="st1" cx="1387.7" cy="244.6" r="8"/>
	<circle class="st1" cx="840.6" cy="161.3" r="8"/>
	<circle class="st1" cx="336.2" cy="494.8" r="8"/>
	<circle class="st1" cx="1305.5" cy="190.2" r="8"/>
	<circle class="st1" cx="858.8" cy="188.6" r="8"/>
	<circle class="st1" cx="896.1" cy="148.6" r="8"/>
	<circle class="st1" cx="1345.5" cy="379.5" r="8"/>
	<circle class="st1" cx="877.7" cy="163.7" r="8"/>
	<circle class="st1" cx="1392" cy="298" r="8"/>
	<circle class="st1" cx="1423.8" cy="293.5" r="8"/>
	<circle class="st1" cx="1354.9" cy="274.7" r="8"/>
	<circle class="st1" cx="406.3" cy="205.1" r="8"/>
	<circle class="st1" cx="172.5" cy="181.9" r="8"/>
	<circle class="st1" cx="302" cy="177.5" r="8"/>
	<circle class="st1" cx="264.7" cy="163.7" r="8"/>
	<circle class="st1" cx="225.2" cy="170" r="8"/>
	<circle class="st1" cx="372.7" cy="216.1" r="8"/>
	<circle class="st1" cx="857.6" cy="203.4" r="8"/>
	<circle class="st1" cx="964.6" cy="288.5" r="8"/>
	<circle class="st1" cx="819.5" cy="192.7" r="8"/>
</g>
</svg>
