<?xml version="1.0" standalone="no"?>
<!DOCTYPE svg PUBLIC "-//W3C//DTD SVG 20010904//EN"
 "http://www.w3.org/TR/2001/REC-SVG-20010904/DTD/svg10.dtd">
<svg version="1.0" xmlns="http://www.w3.org/2000/svg"
 width="960.000000pt" height="960.000000pt" viewBox="0 0 960.000000 960.000000"
 preserveAspectRatio="xMidYMid meet">
<metadata>
Created by potrace 1.14, written by Peter Selinger 2001-2017
</metadata>
<g transform="translate(0.000000,960.000000) scale(0.100000,-0.100000)"
fill="#000000" stroke="none">
<path d="M4065 8411 c-73 -11 -225 -64 -225 -78 0 -7 -11 -13 -26 -13 -28 0
-197 -80 -214 -101 -3 -4 -34 -28 -70 -55 -61 -45 -130 -115 -190 -191 -13
-17 -29 -29 -34 -26 -5 4 -7 -1 -3 -10 8 -21 -2 -49 -14 -41 -5 3 -9 -2 -9
-10 0 -9 -4 -16 -9 -16 -5 0 -15 -16 -21 -35 -6 -19 -15 -35 -19 -35 -4 0 -13
-19 -20 -42 -7 -24 -20 -59 -28 -78 -32 -69 -44 -148 -50 -325 -5 -154 -3
-182 9 -193 9 -7 62 -19 119 -27 103 -14 237 -42 334 -70 28 -7 61 -16 75 -19
14 -3 50 -15 80 -26 30 -12 83 -30 118 -41 141 -41 269 -128 317 -215 23 -43
27 -60 23 -106 -3 -34 -12 -66 -26 -85 -20 -28 -28 -31 -98 -37 -82 -8 -207 0
-239 14 -37 17 -267 74 -355 89 -36 6 -82 13 -102 17 -21 3 -54 3 -74 -1 -34
-6 -36 -8 -30 -40 7 -34 41 -125 78 -205 11 -25 34 -79 50 -120 56 -143 70
-175 97 -220 16 -25 41 -70 56 -100 28 -53 38 -73 129 -245 131 -247 190 -352
205 -365 8 -6 23 -32 57 -95 32 -60 85 -139 96 -143 4 -2 8 -8 8 -13 0 -6 8
-22 19 -37 29 -43 144 -220 192 -297 23 -38 49 -77 56 -85 7 -8 33 -42 58 -75
24 -33 51 -67 58 -75 8 -8 38 -53 67 -100 48 -77 102 -140 121 -140 3 0 12 60
18 133 6 72 15 179 21 237 5 58 15 197 20 310 6 113 13 212 16 220 10 27 25
445 31 865 5 400 1 503 -28 720 -6 44 -15 127 -19 185 -9 120 -25 241 -46 353
-7 42 -21 114 -29 160 -9 45 -20 101 -25 125 -6 23 -10 53 -10 65 0 13 -4 27
-9 33 -5 5 -16 40 -26 77 -9 38 -27 103 -41 145 -13 42 -29 95 -35 117 -21 72
-50 149 -80 211 -16 33 -29 68 -29 76 0 9 -7 21 -15 28 -8 7 -15 18 -15 26 0
7 -9 18 -19 24 -21 11 -178 11 -246 1z"/>
<path d="M5352 8413 c-13 -5 -68 -108 -83 -153 -4 -14 -17 -50 -29 -80 -12
-30 -30 -84 -42 -120 -11 -36 -26 -81 -33 -100 -7 -19 -19 -60 -28 -90 -9 -30
-28 -94 -42 -142 -14 -47 -30 -113 -35 -146 -4 -33 -15 -95 -24 -139 -31 -146
-55 -294 -62 -373 -2 -25 -11 -108 -19 -185 -22 -214 -38 -916 -26 -1110 6
-88 11 -242 11 -341 0 -164 32 -606 46 -644 3 -8 9 -96 14 -196 9 -175 22
-268 42 -280 12 -8 51 28 69 64 8 15 35 54 60 87 44 57 149 215 175 262 7 12
35 49 63 83 28 34 62 83 75 108 13 26 44 75 69 109 25 34 55 80 66 102 12 22
46 77 77 122 31 45 60 92 65 103 5 12 13 28 19 36 37 56 100 169 100 179 0 6
5 11 10 11 6 0 10 5 10 11 0 6 9 24 21 40 22 32 174 331 253 499 27 58 52 107
56 110 3 3 12 25 20 50 7 25 17 50 21 55 22 31 112 295 103 304 -3 3 -31 6
-62 7 -73 1 -98 8 -93 25 23 80 31 146 21 196 -5 31 -7 59 -5 63 3 5 0 12 -6
15 -5 4 -8 14 -5 22 3 8 1 11 -4 8 -9 -6 -12 1 -9 22 0 4 -8 10 -18 14 -10 3
-18 10 -18 16 0 12 -74 83 -86 83 -5 0 -9 4 -9 8 0 18 104 34 248 39 l152 6 0
-52 c0 -28 4 -51 9 -51 15 0 33 121 38 245 5 152 -12 249 -64 372 -7 17 -13
37 -13 45 0 7 -6 23 -14 34 -8 11 -13 32 -12 46 2 18 -2 25 -13 24 -8 0 -16 4
-16 11 0 7 -8 21 -17 33 -10 11 -15 20 -13 20 3 0 -3 10 -15 22 -13 14 -18 29
-14 42 4 15 3 17 -4 8 -7 -11 -20 1 -55 46 -94 121 -213 208 -432 315 -20 10
-67 24 -190 56 -68 18 -277 35 -303 24z m292 -1415 c-2 -13 -8 -41 -15 -63
-20 -74 -21 -103 -4 -172 9 -37 20 -72 23 -78 4 -5 7 -13 7 -16 0 -13 70 -89
81 -89 10 0 42 -30 33 -30 -2 0 -78 -13 -168 -29 l-163 -29 -39 35 c-39 35
-39 35 -39 114 0 43 5 81 10 84 6 3 10 13 10 22 0 27 39 99 73 136 23 26 142
109 193 136 1 1 0 -9 -2 -21z"/>
<path d="M2250 7418 c-38 -26 -179 -187 -180 -205 0 -6 -9 -14 -20 -18 -11 -3
-19 -12 -17 -18 1 -7 -4 -11 -10 -10 -7 2 -12 0 -11 -5 3 -15 -15 -42 -29 -42
-8 0 -11 -4 -8 -10 3 -5 1 -10 -6 -10 -7 0 -10 -3 -6 -6 3 -4 -4 -21 -17 -38
-13 -17 -26 -38 -30 -46 -16 -35 -33 -59 -38 -54 -3 3 -5 -1 -5 -8 1 -7 -15
-48 -36 -91 -20 -43 -37 -82 -37 -87 0 -4 -7 -13 -15 -20 -8 -7 -12 -16 -9
-21 3 -5 1 -9 -5 -9 -6 0 -8 -6 -5 -14 3 -8 0 -25 -7 -38 -16 -28 -24 -82 -11
-75 4 4 16 -3 26 -15 18 -20 17 -20 -17 -16 l-35 4 -12 -103 c-17 -138 -7
-374 19 -463 22 -76 43 -131 54 -145 4 -5 16 -25 25 -43 38 -72 165 -223 311
-366 187 -184 178 -176 186 -176 6 0 79 -53 125 -91 14 -11 84 -59 155 -106
72 -47 141 -94 155 -104 14 -10 79 -53 145 -95 66 -43 122 -80 125 -83 3 -3
19 -13 35 -22 105 -57 158 -87 220 -124 39 -22 86 -49 105 -59 19 -10 53 -28
75 -40 54 -31 151 -80 333 -170 84 -42 169 -86 190 -98 20 -13 53 -30 72 -39
19 -8 69 -32 111 -52 42 -20 81 -37 86 -37 5 0 24 -7 41 -16 18 -8 36 -13 41
-10 15 10 -4 71 -58 180 -27 57 -58 123 -67 147 -31 79 -366 729 -433 839 -9
15 -37 61 -62 101 -25 41 -78 132 -118 202 -39 71 -100 167 -135 216 -63 86
-110 157 -131 196 -29 52 -42 73 -70 110 -16 22 -32 42 -35 45 -3 3 -21 29
-40 58 -18 28 -37 52 -41 52 -4 0 -10 11 -13 25 -4 14 -11 25 -16 25 -6 0 -10
5 -10 10 0 6 -13 29 -30 52 -16 22 -30 45 -30 50 0 4 -8 16 -17 27 -18 18 -43
60 -104 169 -29 51 -32 53 -62 46 -45 -9 -532 -20 -562 -12 -14 3 -25 3 -25
-2 0 -4 -6 -10 -13 -13 -9 -3 -6 9 8 38 11 23 23 41 26 39 3 -2 5 9 3 24 -2
15 -4 66 -5 114 -1 65 -5 88 -16 92 -8 3 -12 10 -9 15 3 5 -1 14 -9 21 -8 7
-15 19 -15 26 0 8 -4 14 -10 14 -5 0 -10 7 -10 16 0 8 -4 13 -9 10 -11 -7 -33
18 -24 27 3 4 -4 7 -16 7 -12 0 -24 7 -27 15 -4 8 -13 15 -22 15 -13 0 -12 3
3 14 11 8 25 12 31 9 7 -2 33 3 58 11 31 11 84 16 159 16 62 0 118 4 126 9 11
7 5 21 -30 65 -24 31 -47 56 -51 56 -3 0 -11 15 -18 34 -10 32 -79 106 -98
106 -5 0 -24 -10 -42 -22z m-183 -273 c0 -8 -4 -12 -9 -9 -5 3 -6 10 -3 15 9
13 12 11 12 -6z"/>
<path d="M7320 7398 c-17 -24 -36 -50 -43 -58 -7 -8 -21 -28 -31 -45 -11 -16
-23 -34 -28 -40 -24 -29 -78 -104 -78 -109 0 -3 -11 -17 -25 -32 -14 -15 -25
-31 -25 -37 0 -5 16 7 35 27 33 35 37 37 82 31 108 -14 310 -53 364 -70 26 -8
56 -15 68 -15 12 0 37 -6 56 -14 18 -8 36 -12 38 -9 9 8 -53 93 -139 193 -124
143 -146 166 -181 186 -18 10 -33 22 -33 26 0 22 -33 3 -60 -34z"/>
<path d="M6770 6643 c-19 -26 -38 -49 -42 -51 -4 -2 -8 -10 -8 -17 0 -7 -4
-15 -8 -17 -10 -4 -82 -110 -105 -153 -8 -16 -24 -39 -34 -50 -10 -11 -29 -38
-43 -60 -34 -57 -133 -209 -139 -215 -25 -22 -131 -184 -131 -200 0 -4 -7 -13
-15 -20 -13 -11 -127 -193 -184 -293 -13 -23 -50 -87 -84 -142 -33 -55 -76
-129 -95 -165 -19 -36 -43 -76 -53 -89 -11 -13 -19 -28 -19 -33 0 -5 -47 -97
-105 -205 -58 -108 -105 -200 -105 -205 0 -5 -10 -25 -23 -46 -34 -54 -84
-154 -106 -210 -11 -27 -36 -84 -56 -128 -21 -43 -41 -88 -45 -99 -20 -52 -40
-106 -40 -110 0 -14 98 10 111 28 3 4 41 22 85 41 142 60 238 106 449 217 83
44 170 88 195 99 25 11 52 24 60 29 8 6 51 28 95 51 44 23 96 50 115 62 36 21
49 30 177 112 40 25 75 46 80 46 10 0 180 108 228 144 39 31 66 49 95 62 12 6
105 74 185 136 6 4 33 24 60 45 176 130 207 156 304 254 71 70 212 225 245
268 12 14 26 31 32 38 16 17 68 157 88 235 12 51 16 116 16 286 0 199 -2 220
-18 235 -10 10 -31 17 -46 17 -14 0 -82 14 -149 31 -67 16 -149 36 -182 44
-106 25 -285 44 -495 54 -113 5 -216 13 -230 16 -22 6 -30 0 -60 -42z"/>
<path d="M1234 5572 c-30 -24 -35 -51 -45 -282 -14 -287 -8 -396 26 -490 51
-142 142 -315 210 -398 36 -45 65 -86 65 -92 0 -6 42 -53 93 -104 131 -131
264 -222 387 -266 86 -30 232 -59 300 -60 91 0 160 -11 153 -24 -4 -7 -2 -7 8
1 11 8 47 10 129 5 136 -8 1535 -5 1568 3 23 6 23 7 -15 44 -21 21 -63 55 -93
75 -30 20 -82 55 -115 79 -33 23 -97 64 -143 91 -45 28 -82 54 -82 58 0 4 -6
8 -12 8 -11 0 -92 56 -143 98 -18 14 -166 102 -172 102 -4 0 -14 6 -22 14 -9
8 -74 47 -146 86 -71 40 -167 97 -211 126 -45 29 -110 67 -145 85 -35 18 -82
44 -104 58 -22 13 -74 42 -115 64 -68 35 -108 57 -275 152 -27 15 -68 39 -89
53 -22 13 -76 43 -120 67 -45 23 -121 64 -171 90 -49 27 -135 71 -190 99 -55
28 -102 53 -105 57 -5 6 -139 80 -195 108 -16 8 -32 17 -35 20 -3 4 -16 12
-30 18 -14 7 -49 26 -78 43 -62 35 -61 35 -88 12z"/>
<path d="M8305 5548 c-44 -23 -81 -45 -83 -50 -2 -4 -9 -8 -14 -8 -6 0 -43
-20 -82 -44 -39 -24 -118 -67 -176 -96 -58 -29 -107 -55 -110 -59 -3 -3 -19
-13 -35 -22 -58 -29 -120 -64 -125 -69 -3 -3 -30 -18 -60 -33 -30 -16 -86 -49
-125 -73 -73 -45 -120 -71 -340 -184 -71 -36 -161 -86 -200 -110 -38 -24 -101
-61 -140 -83 -38 -22 -105 -61 -148 -86 -122 -72 -208 -121 -266 -152 -29 -16
-73 -43 -98 -59 -24 -17 -48 -30 -52 -30 -4 0 -16 -9 -26 -20 -10 -11 -23 -20
-30 -20 -12 0 -107 -69 -113 -82 -2 -5 -8 -8 -13 -8 -9 0 -139 -78 -149 -90
-3 -3 -32 -23 -65 -45 -33 -21 -85 -57 -115 -80 -30 -23 -73 -52 -94 -63 -22
-12 -42 -25 -45 -29 -3 -4 -23 -17 -45 -28 -49 -25 -63 -57 -30 -67 26 -7 659
-14 989 -11 162 2 635 12 655 14 3 0 14 3 25 5 11 2 83 9 160 14 156 10 288
36 360 69 11 5 43 19 70 32 28 12 52 25 55 28 3 4 44 32 91 64 47 31 104 78
125 103 21 26 49 56 60 68 12 11 38 43 58 69 19 26 41 54 48 62 48 53 84 115
165 280 l78 160 -2 359 c-1 337 -3 361 -21 385 -10 14 -28 27 -38 28 -10 1
-55 -17 -99 -39z"/>
<path d="M3498 3670 c-277 -3 -508 -8 -514 -12 -6 -4 -139 -10 -295 -13 -434
-9 -784 -24 -813 -35 -40 -15 -33 -42 41 -159 75 -117 243 -294 343 -360 30
-20 61 -42 69 -50 19 -18 135 -71 155 -71 8 0 17 -4 20 -9 12 -18 136 -51 198
-52 80 -2 204 17 276 43 32 11 68 20 82 20 14 0 19 2 13 5 -7 2 -13 9 -13 14
0 5 6 9 13 9 24 1 287 137 280 145 -5 4 -2 5 5 1 12 -7 80 24 117 55 26 21
335 229 341 229 6 0 165 120 185 139 8 9 34 31 57 50 23 18 42 37 42 41 0 14
-86 15 -602 10z"/>
<path d="M6911 3666 c-9 -11 -9 -15 1 -20 19 -9 -235 3 -312 14 -87 13 -1060
13 -1060 0 0 -5 9 -14 21 -20 11 -7 29 -19 38 -28 25 -24 148 -112 156 -112 8
0 70 -47 104 -79 15 -13 64 -48 111 -79 194 -126 246 -159 262 -165 9 -3 36
-18 60 -33 24 -16 48 -29 53 -30 6 -1 26 -11 45 -22 43 -26 178 -92 187 -92 4
0 14 -6 22 -14 21 -17 136 -52 225 -67 119 -20 288 3 379 52 209 113 210 113
369 274 121 122 229 265 238 316 9 48 0 55 -80 57 -30 1 -129 7 -220 13 -91 5
-254 10 -364 9 -192 0 -236 6 -220 31 8 14 -2 10 -15 -5z"/>
<path d="M2115 2205 c-7 -173 -5 -1030 3 -1052 3 -10 40 -13 146 -11 111 1
127 3 76 8 l-65 7 63 1 62 2 0 260 0 260 277 0 276 0 -7 -255 -7 -254 24 -15
c17 -12 56 -16 153 -18 71 -1 135 2 142 6 9 5 12 153 11 624 0 339 -3 612 -5
606 -3 -7 -51 -9 -153 -6 l-148 5 -7 -79 c-3 -44 -7 -153 -7 -243 l-2 -163
-101 6 c-55 4 -179 8 -273 9 l-173 1 0 233 0 232 -139 3 -138 3 -8 -170z"/>
<path d="M3698 2372 l-148 -3 1 -402 c1 -371 4 -439 26 -552 8 -42 42 -105 55
-105 4 0 8 -5 8 -11 0 -30 161 -129 235 -144 17 -3 53 -11 80 -17 30 -6 117
-8 220 -5 135 4 182 9 230 25 32 12 62 19 66 16 4 -2 13 3 20 12 17 20 78 46
92 37 6 -3 7 -1 3 5 -3 6 10 27 30 47 31 31 38 34 52 23 15 -12 16 -11 4 4
-12 14 -11 22 1 45 33 61 47 260 47 651 l0 372 -160 0 c-156 0 -160 -1 -150
-19 11 -22 14 -707 3 -762 -7 -33 -7 -33 -14 -9 -5 17 -7 2 -8 -43 l-1 -68
-52 -50 -51 -49 -129 0 c-140 0 -185 12 -240 63 -64 59 -63 51 -68 517 l-5
425 -147 -3z"/>
<path d="M5555 2372 l-161 -2 -19 -33 c-10 -17 -25 -37 -33 -43 -8 -6 -15 -21
-16 -35 -1 -14 -7 -23 -15 -21 -7 1 -10 -2 -6 -8 9 -15 -5 -51 -17 -44 -7 4
-8 2 -4 -4 4 -7 -4 -33 -17 -59 -13 -27 -27 -60 -30 -75 -4 -16 -11 -28 -16
-28 -5 0 -12 -13 -16 -30 -4 -16 -11 -30 -16 -30 -5 0 -9 -7 -9 -15 0 -12 -58
-132 -86 -177 -5 -7 -10 -22 -11 -32 -5 -27 -23 -47 -37 -39 -6 4 -6 1 2 -9
10 -12 9 -18 -3 -28 -8 -7 -15 -21 -15 -31 0 -9 -7 -24 -15 -33 -8 -8 -15 -20
-15 -26 0 -6 -6 -8 -12 -4 -10 5 -10 4 -1 -6 9 -10 6 -23 -12 -59 -13 -25 -36
-72 -50 -103 -15 -32 -30 -58 -34 -58 -3 0 -8 -10 -9 -22 -1 -13 -11 -41 -22
-63 -11 -21 -20 -45 -20 -52 0 -7 -4 -13 -8 -13 -4 0 -9 -11 -10 -24 -1 -16 5
-25 18 -29 11 -3 20 -2 20 1 0 4 63 7 141 7 l141 0 23 66 c12 36 27 74 33 85
6 10 22 45 36 77 l26 57 289 0 c266 0 289 -1 295 -17 3 -10 10 -25 15 -33 20
-31 62 -137 58 -144 -1 -2 6 -13 16 -24 10 -10 19 -29 22 -41 7 -36 14 -41 58
-36 23 3 86 7 141 11 l98 6 -6 57 c-6 54 -12 91 -16 101 -1 3 -2 8 -1 13 0 4
-3 7 -9 7 -9 0 -42 65 -37 74 1 2 -5 12 -14 22 -9 11 -26 42 -39 69 -12 28
-26 57 -31 65 -5 8 -14 26 -20 40 -6 14 -28 60 -50 104 -21 43 -39 89 -39 102
0 13 -4 24 -10 24 -5 0 -13 12 -16 28 -4 15 -10 29 -14 32 -14 11 -80 140 -80
158 0 11 -7 25 -15 32 -8 7 -15 20 -15 30 0 10 -7 23 -15 30 -8 7 -15 19 -15
28 0 8 -7 20 -15 26 -8 6 -16 22 -18 35 -2 14 -9 27 -15 29 -7 2 -12 14 -12
26 0 12 -7 32 -16 44 -8 12 -13 26 -9 31 9 15 -2 16 -170 13z m-20 -322 c-2
-3 0 -12 6 -20 7 -12 9 -11 9 5 0 16 2 17 9 5 6 -8 8 -17 5 -21 -2 -4 0 -10 6
-14 6 -4 8 -10 5 -15 -3 -4 2 -13 10 -20 8 -7 15 -21 15 -31 0 -11 4 -19 9
-19 11 0 53 -109 46 -121 -3 -4 3 -14 15 -21 11 -7 20 -23 20 -35 0 -12 4 -24
9 -27 5 -3 14 -19 19 -35 l10 -29 -184 -2 c-155 0 -184 2 -184 14 0 8 7 21 15
30 8 8 15 20 15 26 0 6 4 9 9 6 4 -3 6 6 3 19 -3 16 0 25 9 25 7 0 9 3 6 7 -4
3 -2 12 4 20 6 7 8 13 4 13 -5 0 -1 8 7 18 8 9 18 30 22 45 4 15 10 26 14 23
4 -2 9 7 10 22 1 14 7 29 13 33 6 3 10 8 9 10 -1 2 4 17 10 34 6 16 9 37 7 46
-2 8 2 16 9 16 7 0 11 -3 9 -7z m-587 -897 c-10 -2 -26 -2 -35 0 -10 3 -2 5
17 5 19 0 27 -2 18 -5z m1130 0 c-16 -2 -40 -2 -55 0 -16 2 -3 4 27 4 30 0 43
-2 28 -4z m75 0 c-7 -2 -21 -2 -30 0 -10 3 -4 5 12 5 17 0 24 -2 18 -5z"/>
<path d="M6833 2370 l-132 -5 -4 -425 c-3 -401 -4 -427 -23 -460 -35 -64 -61
-82 -123 -87 -35 -3 -76 2 -111 12 -30 9 -66 18 -80 20 -22 3 -23 2 -8 -9 14
-10 17 -31 17 -135 l0 -124 38 -4 c73 -7 245 -8 250 0 2 4 16 7 30 7 26 0 131
58 153 85 7 8 17 12 23 8 5 -3 7 -1 4 4 -4 6 0 17 9 24 9 7 20 22 25 34 5 11
13 27 18 35 23 37 43 95 51 148 9 54 8 870 -1 875 -2 1 -63 0 -136 -3z"/>
<path d="M7237 2373 c-1 -1 -1 -278 1 -616 l2 -615 48 4 c26 2 90 6 142 8 52
3 97 6 99 6 4 0 -8 1202 -12 1206 -2 3 -278 10 -280 7z"/>
<path d="M2865 1910 c11 -5 29 -8 40 -8 16 0 15 2 -5 8 -34 11 -60 11 -35 0z"/>
</g>
</svg>
