<?xml version="1.0" standalone="no"?>
<!DOCTYPE svg PUBLIC "-//W3C//DTD SVG 20010904//EN"
 "http://www.w3.org/TR/2001/REC-SVG-20010904/DTD/svg10.dtd">
<svg version="1.0" xmlns="http://www.w3.org/2000/svg"
 width="700.000000pt" height="700.000000pt" viewBox="0 0 700.000000 700.000000"
 preserveAspectRatio="xMidYMid meet">
<metadata>
Created by potrace 1.14, written by Peter Selinger 2001-2017
</metadata>
<g transform="translate(0.000000,700.000000) scale(0.100000,-0.100000)"
fill="#000000" stroke="none">
<path d="M2398 5994 c-36 -19 -60 -67 -93 -185 -89 -311 -313 -1070 -415
-1404 -140 -460 -179 -600 -219 -795 -50 -245 -65 -369 -65 -565 0 -368 75
-671 231 -933 65 -109 109 -166 230 -299 298 -326 743 -543 1252 -609 156 -21
471 -20 626 1 694 92 1284 486 1564 1043 83 165 158 429 180 634 14 124 14
376 1 509 -68 668 -443 1348 -983 1780 -514 411 -1106 643 -2082 814 -160 29
-190 30 -227 9z m370 -235 c574 -113 907 -214 1247 -378 632 -306 1083 -780
1329 -1401 107 -271 150 -522 150 -885 1 -267 -13 -368 -75 -556 -146 -438
-492 -798 -947 -984 -550 -224 -1195 -218 -1734 15 -328 143 -622 420 -778
735 -125 251 -178 569 -151 890 30 341 98 624 331 1370 38 121 132 436 209
700 77 264 144 492 150 508 14 36 20 35 269 -14z"/>
<path d="M2627 5553 c-11 -18 -47 -147 -47 -167 0 -21 10 -25 103 -45 504
-111 849 -228 1157 -396 47 -25 103 -54 125 -64 78 -35 328 -232 450 -355 211
-212 307 -344 420 -579 90 -187 143 -339 185 -527 28 -125 33 -165 34 -293 1
-95 -3 -150 -10 -155 -6 -4 -24 -37 -41 -73 -52 -112 -99 -175 -231 -312 -70
-73 -137 -148 -149 -167 -46 -74 -250 -204 -423 -269 -192 -72 -278 -85 -575
-86 -281 0 -392 12 -565 61 -173 50 -391 180 -447 266 -50 80 -94 127 -148
163 -53 36 -79 70 -145 190 -18 33 -40 65 -48 72 -10 9 -18 46 -25 119 -17
182 26 578 88 825 22 84 24 107 15 135 -23 69 -100 95 -153 53 -31 -23 -47
-73 -82 -244 -68 -334 -90 -742 -51 -925 105 -489 500 -856 1079 -1005 307
-78 608 -85 906 -19 506 113 904 401 1086 788 80 169 109 282 120 471 33 543
-247 1198 -707 1652 -202 200 -371 325 -623 461 -280 152 -574 261 -954 356
-282 70 -337 81 -344 69z"/>
<path d="M2930 4634 c-149 -64 -188 -295 -69 -411 55 -54 96 -73 154 -73 54 0
138 33 167 66 35 40 60 115 60 179 -1 110 -59 204 -148 241 -43 18 -120 17
-164 -2z"/>
<path d="M4094 4046 c-62 -20 -102 -55 -132 -116 -36 -73 -38 -183 -5 -245 42
-79 101 -122 182 -132 62 -7 113 10 163 55 64 58 83 103 83 202 0 89 -13 128
-59 178 -51 57 -156 83 -232 58z"/>
<path d="M3116 3789 c-97 -23 -144 -80 -152 -186 -5 -64 -4 -71 28 -122 107
-175 373 -118 395 84 12 99 -65 202 -166 224 -29 6 -55 11 -59 10 -4 -1 -25
-5 -46 -10z"/>
<path d="M3633 3301 c-48 -23 -98 -86 -114 -145 -33 -123 69 -251 201 -251
130 0 234 130 201 250 -35 126 -177 198 -288 146z"/>
<path d="M2670 3139 c-85 -34 -143 -129 -144 -234 0 -77 17 -128 63 -178 108
-120 288 -97 364 47 31 58 31 193 0 251 -27 51 -68 90 -115 109 -42 18 -130
20 -168 5z"/>
<path d="M4454 3131 c-49 -23 -107 -88 -122 -140 -39 -127 14 -277 112 -322
57 -26 154 -25 206 1 131 67 161 293 53 405 -70 72 -166 94 -249 56z"/>
<path d="M3576 2635 c-126 -45 -186 -177 -147 -323 15 -55 67 -121 115 -146
52 -26 141 -33 186 -14 93 39 141 113 148 230 6 94 -16 147 -84 207 -65 57
-142 73 -218 46z"/>
</g>
</svg>
