<?xml version="1.0" standalone="no"?>
<!DOCTYPE svg PUBLIC "-//W3C//DTD SVG 20010904//EN"
 "http://www.w3.org/TR/2001/REC-SVG-20010904/DTD/svg10.dtd">
<svg version="1.0" xmlns="http://www.w3.org/2000/svg"
 width="700.000000pt" height="700.000000pt" viewBox="0 0 700.000000 700.000000"
 preserveAspectRatio="xMidYMid meet">
<metadata>
Created by potrace 1.14, written by Peter Selinger 2001-2017
</metadata>
<g transform="translate(0.000000,700.000000) scale(0.100000,-0.100000)"
fill="#000000" stroke="none">
<path d="M3295 6565 c-535 -67 -930 -203 -1344 -460 -236 -146 -510 -385 -676
-590 -423 -520 -644 -1201 -622 -1910 7 -196 27 -370 74 -608 l27 -139 -57
-111 c-31 -62 -102 -193 -158 -292 -55 -99 -135 -247 -177 -330 -76 -147 -77
-151 -77 -225 0 -64 4 -82 27 -121 38 -64 89 -106 151 -124 55 -16 496 -35
822 -35 l161 0 57 -47 c235 -198 309 -256 432 -337 430 -286 828 -432 1335
-490 154 -18 479 -21 615 -6 212 24 569 103 661 146 l34 16 92 -96 c170 -180
321 -262 530 -285 204 -23 446 65 568 207 52 61 104 161 124 238 37 142 11
354 -62 516 l-30 66 25 24 c38 35 221 279 311 414 349 524 542 1162 542 1788
0 445 -68 788 -241 1226 -141 357 -172 397 -310 409 l-74 6 -113 122 c-548
593 -1161 916 -1933 1019 -162 21 -574 27 -714 9z m700 -539 c436 -64 841
-245 1215 -543 95 -76 280 -255 280 -272 0 -6 -15 -11 -32 -11 -88 0 -584
-113 -1038 -235 -1155 -311 -1777 -533 -2470 -880 -347 -174 -554 -295 -697
-406 -35 -27 -64 -49 -65 -49 -12 0 6 297 23 400 107 646 371 1119 828 1483
375 298 872 487 1396 531 98 8 462 -4 560 -18z m1988 -1396 c113 -285 159
-529 158 -845 -1 -536 -148 -1069 -404 -1458 -91 -140 -151 -215 -294 -371
l-54 -58 -107 35 c-145 48 -233 60 -393 55 -180 -6 -238 -31 -280 -123 -29
-62 -25 -113 12 -158 50 -60 77 -69 254 -83 187 -14 250 -33 324 -100 112
-101 159 -348 81 -426 -26 -25 -35 -28 -97 -28 -131 0 -212 62 -257 198 -14
41 -37 90 -52 109 -54 71 -194 109 -305 83 -30 -7 -117 -33 -194 -57 -351
-112 -515 -137 -830 -130 -393 8 -637 68 -1010 246 -335 161 -588 350 -769
575 -82 101 -48 95 -353 67 -115 -11 -253 -23 -307 -27 l-99 -7 6 32 c18 89
127 313 301 621 64 112 116 214 116 225 -1 11 -7 38 -15 60 -29 79 -24 88 73
153 393 264 941 532 1577 772 571 215 1533 488 2375 674 488 107 474 104 486
92 7 -6 32 -63 57 -126z"/>
<path d="M3812 5609 c-135 -23 -217 -103 -229 -224 -16 -157 108 -295 293
-325 85 -14 182 3 283 50 105 50 141 94 141 174 0 94 -63 203 -150 258 -88 56
-234 85 -338 67z"/>
<path d="M2907 5270 c-137 -35 -227 -132 -227 -245 0 -112 75 -196 207 -230
72 -19 114 -19 188 0 155 40 249 169 215 294 -15 56 -78 124 -145 156 -60 30
-173 41 -238 25z"/>
<path d="M1941 4965 c-85 -24 -150 -64 -227 -140 -182 -182 -176 -378 14 -472
51 -25 68 -28 157 -28 76 0 118 6 175 24 194 60 308 140 330 233 36 146 -33
299 -164 365 -65 33 -201 41 -285 18z"/>
<path d="M4955 4039 c-277 -55 -456 -187 -516 -380 -23 -74 -24 -135 -4 -213
36 -139 138 -273 252 -334 228 -121 487 -81 660 101 81 85 121 151 159 262 25
71 28 95 28 210 1 112 -2 136 -20 176 -30 64 -86 116 -163 153 -63 29 -72 31
-206 33 -77 1 -162 -3 -190 -8z"/>
<path d="M3412 3744 c-150 -40 -254 -147 -307 -315 -66 -210 -27 -409 110
-557 96 -104 213 -149 361 -139 158 9 284 96 357 247 51 105 67 176 67 300 0
199 -55 312 -194 402 -114 73 -265 97 -394 62z"/>
<path d="M2279 3197 c-229 -65 -350 -328 -250 -542 38 -82 78 -125 153 -166
60 -32 68 -34 163 -34 90 0 106 3 160 29 115 57 195 168 217 299 35 213 -121
412 -331 423 -36 2 -87 -2 -112 -9z"/>
<path d="M4606 2700 c-136 -53 -193 -194 -132 -326 59 -126 190 -194 376 -194
200 0 342 90 326 206 -13 100 -104 219 -212 276 -109 59 -263 75 -358 38z"/>
<path d="M3076 2415 c-58 -20 -87 -45 -123 -104 -74 -123 -85 -362 -23 -507
80 -185 325 -262 605 -191 319 81 481 181 562 345 34 68 38 84 41 173 7 167 0
172 -393 228 -526 76 -598 82 -669 56z"/>
</g>
</svg>
