<?xml version="1.0" encoding="UTF-8" standalone="no"?>
<!DOCTYPE svg PUBLIC "-//W3C//DTD SVG 1.1//EN" "http://www.w3.org/Graphics/SVG/1.1/DTD/svg11.dtd">
<svg xmlns="http://www.w3.org/2000/svg" version="1.1" viewBox="0 0 439 439">
<g stroke-width="2.00" fill="none" stroke-linecap="butt">
<path stroke="#829d9c" vector-effect="non-scaling-stroke" d="
  M 365.81 84.69
  Q 333.29 51.79 291.51 37.08
  Q 282.31 33.84 272.29 31.58
  Q 248.83 26.31 224.75 26.28
  Q 215.17 26.27 204.81 27.55
  Q 186.63 29.78 171.56 34.06
  Q 141.96 42.47 114.56 61.31
  Q 83.46 82.71 64.08 116.27
  Q 59.14 124.82 55.28 134.22
  Q 40.75 169.59 40.76 207.99
  Q 40.76 217.66 41.96 227.94
  Q 43.48 240.82 46.50 255.50
  Q 46.95 257.69 47.36 258.73
  A 1.23 1.04 50.4 0 1 47.35 259.64
  Q 42.41 270.10 39.44 275.19
  Q 29.27 292.57 20.20 310.55
  Q 17.75 315.39 17.55 318.46
  Q 17.26 322.89 19.31 326.94
  Q 23.73 335.65 34.01 336.12
  Q 61.71 337.39 89.44 337.07
  A 1.74 1.72 59.8 0 1 90.37 337.32
  Q 93.07 338.95 95.40 341.10
  Q 117.49 361.58 144.26 374.93
  Q 153.31 379.45 162.68 382.69
  Q 195.10 393.91 229.52 393.39
  Q 239.44 393.25 249.43 391.84
  Q 266.89 389.39 283.77 384.07
  Q 285.32 383.59 286.69 382.46
  A 0.72 0.72 -84.3 0 1 287.71 382.56
  Q 291.60 387.38 295.89 391.61
  Q 309.31 404.86 327.62 406.52
  Q 333.60 407.06 339.29 405.77
  Q 345.12 404.46 350.45 401.87
  Q 358.79 397.82 363.73 390.94
  Q 368.36 384.50 370.06 376.64
  Q 371.59 369.51 370.28 361.34
  Q 368.73 351.66 363.93 342.57
  A 0.82 0.81 63.0 0 1 364.29 341.45
  Q 365.32 340.95 366.16 339.89
  Q 373.20 331.02 379.86 321.85
  Q 400.51 293.44 410.50 259.75
  Q 416.75 238.66 418.66 213.98
  Q 419.39 204.55 418.85 194.00
  Q 418.04 178.09 416.25 168.00
  Q 411.92 143.55 400.31 116.83
  Q 395.69 106.19 394.55 104.72
  Q 389.83 98.65 380.50 99.93
  A 0.88 0.87 -23.0 0 1 379.69 99.61
  Q 375.81 94.80 365.81 84.69"
/>
<path stroke="#40956f" vector-effect="non-scaling-stroke" d="
  M 194.50 152.46
  Q 215.24 144.98 236.43 138.89
  Q 263.10 131.23 289.94 124.19
  Q 318.11 116.80 340.28 112.98"
/>
<path stroke="#329164" vector-effect="non-scaling-stroke" d="
  M 340.28 112.98
  L 344.12 112.95
  Q 345.12 112.94 344.46 112.09
  Q 341.43 108.21 337.91 104.84
  Q 316.36 84.19 289.09 72.02
  Q 266.24 61.83 241.25 60.04
  Q 192.43 56.54 150.04 78.69
  Q 140.98 83.42 133.06 89.22
  Q 87.58 122.47 77.04 179.56
  Q 75.53 187.74 74.42 195.99
  Q 74.09 198.44 74.41 202.52
  Q 74.77 207.01 73.88 211.16
  Q 73.64 212.25 74.50 211.53
  Q 82.91 204.51 91.95 199.04
  Q 95.88 196.66 109.48 189.39
  Q 150.46 167.50 194.50 152.46"
/>
<path stroke="#6dec9b" vector-effect="non-scaling-stroke" d="
  M 340.28 112.98
  Q 336.14 111.62 332.00 112.75
  Q 327.96 113.85 326.72 114.01
  Q 319.78 114.93 312.97 116.58
  Q 304.14 118.73 304.00 118.76
  Q 295.49 120.71 287.05 122.98
  Q 284.89 123.57 281.35 124.03
  Q 278.45 124.40 275.64 125.17
  Q 273.60 125.73 268.75 126.81
  Q 265.67 127.50 261.94 128.94
  Q 253.67 132.12 240.56 136.02
  Q 238.49 136.64 230.36 138.62
  Q 225.23 139.88 220.25 141.64
  Q 216.22 143.06 211.17 144.28
  Q 203.70 146.08 196.73 149.43
  Q 196.64 149.47 195.61 149.83
  Q 194.01 150.40 194.50 152.46"
/>
<path stroke="#329263" vector-effect="non-scaling-stroke" d="
  M 293.26 346.79
  Q 294.09 346.99 294.93 347.10
  Q 304.70 348.31 308.13 356.95
  Q 308.15 357.00 309.22 360.58
  Q 312.62 371.87 325.25 372.16
  Q 333.10 372.34 333.50 364.50
  Q 334.02 354.28 328.72 346.04
  Q 327.09 343.53 324.58 341.91
  Q 317.02 337.07 308.00 337.08
  Q 303.37 337.08 298.75 336.75
  Q 294.37 336.43 291.36 333.65
  Q 289.34 331.78 288.41 330.12
  Q 287.18 327.92 287.81 325.31
  Q 290.12 315.82 300.22 314.53
  Q 319.40 312.08 337.55 320.08
  A 0.65 0.64 -59.7 0 0 338.33 319.87
  Q 339.99 317.63 341.66 315.91
  Q 367.02 289.90 377.43 255.03
  Q 382.63 237.62 384.75 215.50
  Q 388.53 176.10 371.88 140.58
  A 0.84 0.84 -18.2 0 0 370.95 140.11
  Q 294.44 155.37 220.75 178.75
  Q 182.01 191.05 138.58 211.50
  Q 128.81 216.10 120.76 220.56
  Q 104.83 229.38 89.65 239.45
  Q 86.45 241.57 88.00 245.00
  Q 89.36 248.01 89.70 250.76
  A 1.73 1.55 -37.9 0 1 89.53 251.70
  Q 87.11 256.70 84.25 261.47
  Q 75.04 276.81 67.44 293.01
  Q 64.94 298.35 62.99 304.87
  A 0.56 0.55 6.5 0 0 63.56 305.58
  Q 83.18 304.28 101.59 302.32
  Q 101.63 302.32 102.91 302.14
  Q 106.02 301.70 107.31 303.44
  Q 119.90 320.38 137.59 331.90
  Q 151.84 341.18 169.44 348.56
  Q 191.43 357.79 214.24 359.23
  Q 230.69 360.27 242.25 358.75
  Q 257.95 356.69 277.69 349.94
  Q 285.45 347.28 291.60 346.64
  Q 292.34 346.56 293.26 346.79"
/>
<path stroke="#329163" vector-effect="non-scaling-stroke" d="
  M 255.56 89.19
  Q 248.60 86.56 241.78 87.05
  Q 233.85 87.63 229.22 91.82
  Q 224.46 96.12 224.74 103.34
  Q 224.90 107.28 226.45 110.59
  Q 228.15 114.22 231.19 116.56
  Q 237.69 121.58 245.97 121.89
  Q 249.95 122.04 254.44 120.79
  Q 258.59 119.64 262.48 117.71
  Q 272.57 112.70 268.51 101.88
  Q 265.09 92.79 255.56 89.19"
/>
<path stroke="#329163" vector-effect="non-scaling-stroke" d="
  M 206.6885 122.6261
  A 19.40 15.43 -2.7 0 0 186.5831 108.1271
  A 19.40 15.43 -2.7 0 0 167.9315 124.4539
  A 19.40 15.43 -2.7 0 0 188.0369 138.9529
  A 19.40 15.43 -2.7 0 0 206.6885 122.6261"
/>
<path stroke="#329163" vector-effect="non-scaling-stroke" d="
  M 122.75 167.54
  Q 131.56 166.20 140.56 161.56
  Q 145.90 158.81 149.04 154.37"
/>
<path stroke="#329163" vector-effect="non-scaling-stroke" d="
  M 149.04 154.37
  Q 152.85 143.59 146.78 135.03
  Q 144.35 131.62 141.09 129.62
  Q 137.60 127.49 133.50 127.00
  Q 119.85 125.37 109.50 134.49
  Q 105.12 138.34 102.06 143.29
  Q 98.37 149.26 99.68 156.22
  Q 100.34 159.69 102.92 162.08
  Q 111.34 169.90 122.75 167.54"
/>
<path stroke="#053936" vector-effect="non-scaling-stroke" d="
  M 149.04 154.37
  Q 144.55 155.05 140.69 156.55
  Q 139.33 157.07 135.30 159.71
  Q 132.56 161.50 129.36 162.48
  Q 126.47 163.37 123.62 164.42
  Q 122.53 164.83 122.25 165.53
  Q 121.84 166.55 122.75 167.54"
/>
<path stroke="#329264" vector-effect="non-scaling-stroke" d="
  M 283.44 200.19
  Q 272.95 213.51 280.72 229.42
  Q 287.95 244.25 303.75 247.25
  Q 318.57 250.06 329.78 242.36
  Q 337.81 236.85 342.63 227.32
  Q 347.56 217.58 347.41 206.00
  Q 347.22 191.36 333.71 186.61
  Q 329.84 185.25 325.75 185.03
  Q 311.71 184.26 298.64 189.32
  Q 289.08 193.03 283.44 200.19"
/>
<path stroke="#329162" vector-effect="non-scaling-stroke" d="
  M 241.81 210.44
  Q 237.34 206.59 231.45 204.64
  Q 225.98 202.83 219.89 203.30
  Q 200.48 204.79 194.59 224.78
  Q 189.34 242.55 199.44 256.31
  Q 206.37 265.77 217.76 267.45
  Q 225.59 268.61 232.48 265.79
  Q 239.89 262.76 244.44 255.94
  Q 250.17 247.34 250.85 236.83
  Q 251.37 228.75 249.70 222.75
  Q 247.66 215.47 241.81 210.44"
/>
<path stroke="#329162" vector-effect="non-scaling-stroke" d="
  M 138.9032 283.8631
  A 23.97 22.77 112.2 0 0 169.0421 270.2734
  A 23.97 22.77 112.2 0 0 157.0168 239.4769
  A 23.97 22.77 112.2 0 0 126.8779 253.0666
  A 23.97 22.77 112.2 0 0 138.9032 283.8631"
/>
<path stroke="#329263" vector-effect="non-scaling-stroke" d="
  M 286.40 297.36
  Q 288.75 299.18 291.58 300.12
  Q 303.65 304.12 315.31 300.36
  Q 320.77 298.60 322.89 295.84
  Q 325.91 291.90 323.75 285.96
  Q 321.69 280.30 317.18 276.32
  Q 308.97 269.09 297.99 268.41
  Q 292.11 268.04 287.56 270.31
  Q 278.97 274.61 279.07 283.52
  Q 279.11 287.61 281.08 291.18
  Q 283.05 294.76 286.40 297.36"
/>
<path stroke="#329263" vector-effect="non-scaling-stroke" d="
  M 256.81 295.69
  Q 253.31 293.58 248.86 293.12
  Q 244.24 292.65 244.17 292.64
  Q 209.57 287.34 200.25 286.75
  Q 188.94 286.03 184.56 295.31
  Q 181.59 301.61 181.38 309.06
  Q 181.15 317.22 182.80 322.86
  Q 184.48 328.62 188.82 332.76
  Q 192.63 336.39 198.65 338.06
  Q 208.07 340.66 218.02 338.58
  Q 230.33 336.00 241.74 330.72
  Q 252.19 325.88 256.94 316.44
  Q 259.93 310.49 259.63 302.98
  Q 259.51 299.88 259.30 299.03
  Q 258.77 296.87 256.81 295.69"
/>
</g>
<path fill="#ffffff" d="
  M 0.00 0.00
  L 439.00 0.00
  L 439.00 439.00
  L 0.00 439.00
  L 0.00 0.00
  Z
  M 365.81 84.69
  Q 333.29 51.79 291.51 37.08
  Q 282.31 33.84 272.29 31.58
  Q 248.83 26.31 224.75 26.28
  Q 215.17 26.27 204.81 27.55
  Q 186.63 29.78 171.56 34.06
  Q 141.96 42.47 114.56 61.31
  Q 83.46 82.71 64.08 116.27
  Q 59.14 124.82 55.28 134.22
  Q 40.75 169.59 40.76 207.99
  Q 40.76 217.66 41.96 227.94
  Q 43.48 240.82 46.50 255.50
  Q 46.95 257.69 47.36 258.73
  A 1.23 1.04 50.4 0 1 47.35 259.64
  Q 42.41 270.10 39.44 275.19
  Q 29.27 292.57 20.20 310.55
  Q 17.75 315.39 17.55 318.46
  Q 17.26 322.89 19.31 326.94
  Q 23.73 335.65 34.01 336.12
  Q 61.71 337.39 89.44 337.07
  A 1.74 1.72 59.8 0 1 90.37 337.32
  Q 93.07 338.95 95.40 341.10
  Q 117.49 361.58 144.26 374.93
  Q 153.31 379.45 162.68 382.69
  Q 195.10 393.91 229.52 393.39
  Q 239.44 393.25 249.43 391.84
  Q 266.89 389.39 283.77 384.07
  Q 285.32 383.59 286.69 382.46
  A 0.72 0.72 -84.3 0 1 287.71 382.56
  Q 291.60 387.38 295.89 391.61
  Q 309.31 404.86 327.62 406.52
  Q 333.60 407.06 339.29 405.77
  Q 345.12 404.46 350.45 401.87
  Q 358.79 397.82 363.73 390.94
  Q 368.36 384.50 370.06 376.64
  Q 371.59 369.51 370.28 361.34
  Q 368.73 351.66 363.93 342.57
  A 0.82 0.81 63.0 0 1 364.29 341.45
  Q 365.32 340.95 366.16 339.89
  Q 373.20 331.02 379.86 321.85
  Q 400.51 293.44 410.50 259.75
  Q 416.75 238.66 418.66 213.98
  Q 419.39 204.55 418.85 194.00
  Q 418.04 178.09 416.25 168.00
  Q 411.92 143.55 400.31 116.83
  Q 395.69 106.19 394.55 104.72
  Q 389.83 98.65 380.50 99.93
  A 0.88 0.87 -23.0 0 1 379.69 99.61
  Q 375.81 94.80 365.81 84.69
  Z"
/>
<path fill="#053a38" d="
  M 365.81 84.69
  Q 375.81 94.80 379.69 99.61
  A 0.88 0.87 -23.0 0 0 380.50 99.93
  Q 389.83 98.65 394.55 104.72
  Q 395.69 106.19 400.31 116.83
  Q 411.92 143.55 416.25 168.00
  Q 418.04 178.09 418.85 194.00
  Q 419.39 204.55 418.66 213.98
  Q 416.75 238.66 410.50 259.75
  Q 400.51 293.44 379.86 321.85
  Q 373.20 331.02 366.16 339.89
  Q 365.32 340.95 364.29 341.45
  A 0.82 0.81 63.0 0 0 363.93 342.57
  Q 368.73 351.66 370.28 361.34
  Q 371.59 369.51 370.06 376.64
  Q 368.36 384.50 363.73 390.94
  Q 358.79 397.82 350.45 401.87
  Q 345.12 404.46 339.29 405.77
  Q 333.60 407.06 327.62 406.52
  Q 309.31 404.86 295.89 391.61
  Q 291.60 387.38 287.71 382.56
  A 0.72 0.72 -88.2 0 0 286.69 382.46
  Q 285.32 383.59 283.77 384.07
  Q 266.89 389.39 249.43 391.84
  Q 239.44 393.25 229.52 393.39
  Q 195.10 393.91 162.68 382.69
  Q 153.31 379.45 144.26 374.93
  Q 117.49 361.58 95.40 341.10
  Q 93.07 338.95 90.37 337.32
  A 1.74 1.72 59.8 0 0 89.44 337.07
  Q 61.71 337.39 34.01 336.12
  Q 23.73 335.65 19.31 326.94
  Q 17.26 322.89 17.55 318.46
  Q 17.75 315.39 20.20 310.55
  Q 29.27 292.57 39.44 275.19
  Q 42.41 270.10 47.35 259.64
  A 1.23 1.04 50.4 0 0 47.36 258.73
  Q 46.95 257.69 46.50 255.50
  Q 43.48 240.82 41.96 227.94
  Q 40.76 217.66 40.76 207.99
  Q 40.75 169.59 55.28 134.22
  Q 59.14 124.82 64.08 116.27
  Q 83.46 82.71 114.56 61.31
  Q 141.96 42.47 171.56 34.06
  Q 186.63 29.78 204.81 27.55
  Q 215.17 26.27 224.75 26.28
  Q 248.83 26.31 272.29 31.58
  Q 282.31 33.84 291.51 37.08
  Q 333.29 51.79 365.81 84.69
  Z
  M 194.50 152.46
  Q 215.24 144.98 236.43 138.89
  Q 263.10 131.23 289.94 124.19
  Q 318.11 116.80 340.28 112.98
  L 344.12 112.95
  Q 345.12 112.94 344.46 112.09
  Q 341.43 108.21 337.91 104.84
  Q 316.36 84.19 289.09 72.02
  Q 266.24 61.83 241.25 60.04
  Q 192.43 56.54 150.04 78.69
  Q 140.98 83.42 133.06 89.22
  Q 87.58 122.47 77.04 179.56
  Q 75.53 187.74 74.42 195.99
  Q 74.09 198.44 74.41 202.52
  Q 74.77 207.01 73.88 211.16
  Q 73.64 212.25 74.50 211.53
  Q 82.91 204.51 91.95 199.04
  Q 95.88 196.66 109.48 189.39
  Q 150.46 167.50 194.50 152.46
  Z
  M 293.26 346.79
  Q 294.09 346.99 294.93 347.10
  Q 304.70 348.31 308.13 356.95
  Q 308.15 357.00 309.22 360.58
  Q 312.62 371.87 325.25 372.16
  Q 333.10 372.34 333.50 364.50
  Q 334.02 354.28 328.72 346.04
  Q 327.09 343.53 324.58 341.91
  Q 317.02 337.07 308.00 337.08
  Q 303.37 337.08 298.75 336.75
  Q 294.37 336.43 291.36 333.65
  Q 289.34 331.78 288.41 330.12
  Q 287.18 327.92 287.81 325.31
  Q 290.12 315.82 300.22 314.53
  Q 319.40 312.08 337.55 320.08
  A 0.65 0.64 -59.7 0 0 338.33 319.87
  Q 339.99 317.63 341.66 315.91
  Q 367.02 289.90 377.43 255.03
  Q 382.63 237.62 384.75 215.50
  Q 388.53 176.10 371.88 140.58
  A 0.84 0.84 -18.2 0 0 370.95 140.11
  Q 294.44 155.37 220.75 178.75
  Q 182.01 191.05 138.58 211.50
  Q 128.81 216.10 120.76 220.56
  Q 104.83 229.38 89.65 239.45
  Q 86.45 241.57 88.00 245.00
  Q 89.36 248.01 89.70 250.76
  A 1.73 1.55 -37.9 0 1 89.53 251.70
  Q 87.11 256.70 84.25 261.47
  Q 75.04 276.81 67.44 293.01
  Q 64.94 298.35 62.99 304.87
  A 0.56 0.55 6.5 0 0 63.56 305.58
  Q 83.18 304.28 101.59 302.32
  Q 101.63 302.32 102.91 302.14
  Q 106.02 301.70 107.31 303.44
  Q 119.90 320.38 137.59 331.90
  Q 151.84 341.18 169.44 348.56
  Q 191.43 357.79 214.24 359.23
  Q 230.69 360.27 242.25 358.75
  Q 257.95 356.69 277.69 349.94
  Q 285.45 347.28 291.60 346.64
  Q 292.34 346.56 293.26 346.79
  Z"
/>
<path fill="#5fe88f" d="
  M 340.28 112.98
  Q 336.14 111.62 332.00 112.75
  Q 327.96 113.85 326.72 114.01
  Q 319.78 114.93 312.97 116.58
  Q 304.14 118.73 304.00 118.76
  Q 295.49 120.71 287.05 122.98
  Q 284.89 123.57 281.35 124.03
  Q 278.45 124.40 275.64 125.17
  Q 273.60 125.73 268.75 126.81
  Q 265.67 127.50 261.94 128.94
  Q 253.67 132.12 240.56 136.02
  Q 238.49 136.64 230.36 138.62
  Q 225.23 139.88 220.25 141.64
  Q 216.22 143.06 211.17 144.28
  Q 203.70 146.08 196.73 149.43
  Q 196.64 149.47 195.61 149.83
  Q 194.01 150.40 194.50 152.46
  Q 150.46 167.50 109.48 189.39
  Q 95.88 196.66 91.95 199.04
  Q 82.91 204.51 74.50 211.53
  Q 73.64 212.25 73.88 211.16
  Q 74.77 207.01 74.41 202.52
  Q 74.09 198.44 74.42 195.99
  Q 75.53 187.74 77.04 179.56
  Q 87.58 122.47 133.06 89.22
  Q 140.98 83.42 150.04 78.69
  Q 192.43 56.54 241.25 60.04
  Q 266.24 61.83 289.09 72.02
  Q 316.36 84.19 337.91 104.84
  Q 341.43 108.21 344.46 112.09
  Q 345.12 112.94 344.12 112.95
  L 340.28 112.98
  Z
  M 255.56 89.19
  Q 248.60 86.56 241.78 87.05
  Q 233.85 87.63 229.22 91.82
  Q 224.46 96.12 224.74 103.34
  Q 224.90 107.28 226.45 110.59
  Q 228.15 114.22 231.19 116.56
  Q 237.69 121.58 245.97 121.89
  Q 249.95 122.04 254.44 120.79
  Q 258.59 119.64 262.48 117.71
  Q 272.57 112.70 268.51 101.88
  Q 265.09 92.79 255.56 89.19
  Z
  M 206.6885 122.6261
  A 19.40 15.43 -2.7 0 0 186.5831 108.1271
  A 19.40 15.43 -2.7 0 0 167.9315 124.4539
  A 19.40 15.43 -2.7 0 0 188.0369 138.9529
  A 19.40 15.43 -2.7 0 0 206.6885 122.6261
  Z
  M 122.75 167.54
  Q 131.56 166.20 140.56 161.56
  Q 145.90 158.81 149.04 154.37
  Q 152.85 143.59 146.78 135.03
  Q 144.35 131.62 141.09 129.62
  Q 137.60 127.49 133.50 127.00
  Q 119.85 125.37 109.50 134.49
  Q 105.12 138.34 102.06 143.29
  Q 98.37 149.26 99.68 156.22
  Q 100.34 159.69 102.92 162.08
  Q 111.34 169.90 122.75 167.54
  Z"
/>
<path fill="#053936" d="
  M 255.56 89.19
  Q 265.09 92.79 268.51 101.88
  Q 272.57 112.70 262.48 117.71
  Q 258.59 119.64 254.44 120.79
  Q 249.95 122.04 245.97 121.89
  Q 237.69 121.58 231.19 116.56
  Q 228.15 114.22 226.45 110.59
  Q 224.90 107.28 224.74 103.34
  Q 224.46 96.12 229.22 91.82
  Q 233.85 87.63 241.78 87.05
  Q 248.60 86.56 255.56 89.19
  Z"
/>
<ellipse fill="#053936" cx="0.00" cy="0.00" transform="translate(187.31,123.54) rotate(-2.7)" rx="19.40" ry="15.43"/>
<path fill="#7bf0a6" d="
  M 340.28 112.98
  Q 318.11 116.80 289.94 124.19
  Q 263.10 131.23 236.43 138.89
  Q 215.24 144.98 194.50 152.46
  Q 194.01 150.40 195.61 149.83
  Q 196.64 149.47 196.73 149.43
  Q 203.70 146.08 211.17 144.28
  Q 216.22 143.06 220.25 141.64
  Q 225.23 139.88 230.36 138.62
  Q 238.49 136.64 240.56 136.02
  Q 253.67 132.12 261.94 128.94
  Q 265.67 127.50 268.75 126.81
  Q 273.60 125.73 275.64 125.17
  Q 278.45 124.40 281.35 124.03
  Q 284.89 123.57 287.05 122.98
  Q 295.49 120.71 304.00 118.76
  Q 304.14 118.73 312.97 116.58
  Q 319.78 114.93 326.72 114.01
  Q 327.96 113.85 332.00 112.75
  Q 336.14 111.62 340.28 112.98
  Z"
/>
<path fill="#053936" d="
  M 149.04 154.37
  Q 144.55 155.05 140.69 156.55
  Q 139.33 157.07 135.30 159.71
  Q 132.56 161.50 129.36 162.48
  Q 126.47 163.37 123.62 164.42
  Q 122.53 164.83 122.25 165.53
  Q 121.84 166.55 122.75 167.54
  Q 111.34 169.90 102.92 162.08
  Q 100.34 159.69 99.68 156.22
  Q 98.37 149.26 102.06 143.29
  Q 105.12 138.34 109.50 134.49
  Q 119.85 125.37 133.50 127.00
  Q 137.60 127.49 141.09 129.62
  Q 144.35 131.62 146.78 135.03
  Q 152.85 143.59 149.04 154.37
  Z"
/>
<path fill="#5ee98e" d="
  M 291.60 346.64
  Q 285.45 347.28 277.69 349.94
  Q 257.95 356.69 242.25 358.75
  Q 230.69 360.27 214.24 359.23
  Q 191.43 357.79 169.44 348.56
  Q 151.84 341.18 137.59 331.90
  Q 119.90 320.38 107.31 303.44
  Q 106.02 301.70 102.91 302.14
  Q 101.63 302.32 101.59 302.32
  Q 83.18 304.28 63.56 305.58
  A 0.56 0.55 6.5 0 1 62.99 304.87
  Q 64.94 298.35 67.44 293.01
  Q 75.04 276.81 84.25 261.47
  Q 87.11 256.70 89.53 251.70
  A 1.73 1.55 -37.9 0 0 89.70 250.76
  Q 89.36 248.01 88.00 245.00
  Q 86.45 241.57 89.65 239.45
  Q 104.83 229.38 120.76 220.56
  Q 128.81 216.10 138.58 211.50
  Q 182.01 191.05 220.75 178.75
  Q 294.44 155.37 370.95 140.11
  A 0.84 0.84 -18.2 0 1 371.88 140.58
  Q 388.53 176.10 384.75 215.50
  Q 382.63 237.62 377.43 255.03
  Q 367.02 289.90 341.66 315.91
  Q 339.99 317.63 338.33 319.87
  A 0.65 0.64 -59.7 0 1 337.55 320.08
  Q 319.40 312.08 300.22 314.53
  Q 290.12 315.82 287.81 325.31
  Q 287.18 327.92 288.41 330.12
  Q 289.34 331.78 291.36 333.65
  Q 294.37 336.43 298.75 336.75
  Q 303.37 337.08 308.00 337.08
  Q 317.02 337.07 324.58 341.91
  Q 327.09 343.53 328.72 346.04
  Q 334.02 354.28 333.50 364.50
  Q 333.10 372.34 325.25 372.16
  Q 312.62 371.87 309.22 360.58
  Q 308.15 357.00 308.13 356.95
  Q 304.70 348.31 294.93 347.10
  Q 294.09 346.99 293.26 346.79
  Q 292.34 346.56 291.60 346.64
  Z
  M 283.44 200.19
  Q 272.95 213.51 280.72 229.42
  Q 287.95 244.25 303.75 247.25
  Q 318.57 250.06 329.78 242.36
  Q 337.81 236.85 342.63 227.32
  Q 347.56 217.58 347.41 206.00
  Q 347.22 191.36 333.71 186.61
  Q 329.84 185.25 325.75 185.03
  Q 311.71 184.26 298.64 189.32
  Q 289.08 193.03 283.44 200.19
  Z
  M 241.81 210.44
  Q 237.34 206.59 231.45 204.64
  Q 225.98 202.83 219.89 203.30
  Q 200.48 204.79 194.59 224.78
  Q 189.34 242.55 199.44 256.31
  Q 206.37 265.77 217.76 267.45
  Q 225.59 268.61 232.48 265.79
  Q 239.89 262.76 244.44 255.94
  Q 250.17 247.34 250.85 236.83
  Q 251.37 228.75 249.70 222.75
  Q 247.66 215.47 241.81 210.44
  Z
  M 138.9032 283.8631
  A 23.97 22.77 112.2 0 0 169.0421 270.2734
  A 23.97 22.77 112.2 0 0 157.0168 239.4769
  A 23.97 22.77 112.2 0 0 126.8779 253.0666
  A 23.97 22.77 112.2 0 0 138.9032 283.8631
  Z
  M 286.40 297.36
  Q 288.75 299.18 291.58 300.12
  Q 303.65 304.12 315.31 300.36
  Q 320.77 298.60 322.89 295.84
  Q 325.91 291.90 323.75 285.96
  Q 321.69 280.30 317.18 276.32
  Q 308.97 269.09 297.99 268.41
  Q 292.11 268.04 287.56 270.31
  Q 278.97 274.61 279.07 283.52
  Q 279.11 287.61 281.08 291.18
  Q 283.05 294.76 286.40 297.36
  Z
  M 256.81 295.69
  Q 253.31 293.58 248.86 293.12
  Q 244.24 292.65 244.17 292.64
  Q 209.57 287.34 200.25 286.75
  Q 188.94 286.03 184.56 295.31
  Q 181.59 301.61 181.38 309.06
  Q 181.15 317.22 182.80 322.86
  Q 184.48 328.62 188.82 332.76
  Q 192.63 336.39 198.65 338.06
  Q 208.07 340.66 218.02 338.58
  Q 230.33 336.00 241.74 330.72
  Q 252.19 325.88 256.94 316.44
  Q 259.93 310.49 259.63 302.98
  Q 259.51 299.88 259.30 299.03
  Q 258.77 296.87 256.81 295.69
  Z"
/>
<path fill="#053936" d="
  M 149.04 154.37
  Q 145.90 158.81 140.56 161.56
  Q 131.56 166.20 122.75 167.54
  Q 121.84 166.55 122.25 165.53
  Q 122.53 164.83 123.62 164.42
  Q 126.47 163.37 129.36 162.48
  Q 132.56 161.50 135.30 159.71
  Q 139.33 157.07 140.69 156.55
  Q 144.55 155.05 149.04 154.37
  Z"
/>
<path fill="#063a39" d="
  M 283.44 200.19
  Q 289.08 193.03 298.64 189.32
  Q 311.71 184.26 325.75 185.03
  Q 329.84 185.25 333.71 186.61
  Q 347.22 191.36 347.41 206.00
  Q 347.56 217.58 342.63 227.32
  Q 337.81 236.85 329.78 242.36
  Q 318.57 250.06 303.75 247.25
  Q 287.95 244.25 280.72 229.42
  Q 272.95 213.51 283.44 200.19
  Z"
/>
<path fill="#053936" d="
  M 241.81 210.44
  Q 247.66 215.47 249.70 222.75
  Q 251.37 228.75 250.85 236.83
  Q 250.17 247.34 244.44 255.94
  Q 239.89 262.76 232.48 265.79
  Q 225.59 268.61 217.76 267.45
  Q 206.37 265.77 199.44 256.31
  Q 189.34 242.55 194.59 224.78
  Q 200.48 204.79 219.89 203.30
  Q 225.98 202.83 231.45 204.64
  Q 237.34 206.59 241.81 210.44
  Z"
/>
<ellipse fill="#053936" cx="0.00" cy="0.00" transform="translate(147.96,261.67) rotate(112.2)" rx="23.97" ry="22.77"/>
<path fill="#063a37" d="
  M 286.40 297.36
  Q 283.05 294.76 281.08 291.18
  Q 279.11 287.61 279.07 283.52
  Q 278.97 274.61 287.56 270.31
  Q 292.11 268.04 297.99 268.41
  Q 308.97 269.09 317.18 276.32
  Q 321.69 280.30 323.75 285.96
  Q 325.91 291.90 322.89 295.84
  Q 320.77 298.60 315.31 300.36
  Q 303.65 304.12 291.58 300.12
  Q 288.75 299.18 286.40 297.36
  Z"
/>
<path fill="#063a37" d="
  M 256.81 295.69
  Q 258.77 296.87 259.30 299.03
  Q 259.51 299.88 259.63 302.98
  Q 259.93 310.49 256.94 316.44
  Q 252.19 325.88 241.74 330.72
  Q 230.33 336.00 218.02 338.58
  Q 208.07 340.66 198.65 338.06
  Q 192.63 336.39 188.82 332.76
  Q 184.48 328.62 182.80 322.86
  Q 181.15 317.22 181.38 309.06
  Q 181.59 301.61 184.56 295.31
  Q 188.94 286.03 200.25 286.75
  Q 209.57 287.34 244.17 292.64
  Q 244.24 292.65 248.86 293.12
  Q 253.31 293.58 256.81 295.69
  Z"
/>
</svg>
