<?xml version="1.0" encoding="UTF-8" standalone="no"?>
<!DOCTYPE svg PUBLIC "-//W3C//DTD SVG 1.1//EN" "http://www.w3.org/Graphics/SVG/1.1/DTD/svg11.dtd">
<svg xmlns="http://www.w3.org/2000/svg" version="1.1" viewBox="0 0 980 980">
<g stroke-width="2.00" fill="none" stroke-linecap="butt">
<path stroke="#8f99a7" vector-effect="non-scaling-stroke" d="
  M 279.54 314.75
  Q 271.70 339.11 264.31 363.60
  Q 261.92 371.54 258.40 382.71
  Q 248.83 413.14 240.74 444.00
  Q 234.89 466.29 231.04 489.00"
/>
<path stroke="#808181" vector-effect="non-scaling-stroke" d="
  M 231.04 489.00
  Q 227.45 508.67 225.75 525.75
  Q 223.51 548.23 224.97 572.26"
/>
<path stroke="#8f99a7" vector-effect="non-scaling-stroke" d="
  M 224.97 572.26
  Q 226.28 600.96 233.75 629.50
  Q 243.00 664.83 263.46 694.50"
/>
<path stroke="#808181" vector-effect="non-scaling-stroke" d="
  M 263.46 694.50
  Q 271.88 707.57 282.94 718.68"
/>
<path stroke="#8f99a7" vector-effect="non-scaling-stroke" d="
  M 282.94 718.68
  Q 291.15 729.62 301.46 738.75"
/>
<path stroke="#808181" vector-effect="non-scaling-stroke" d="
  M 301.46 738.75
  Q 327.06 762.39 357.95 778.53
  Q 404.13 802.67 455.74 810.30
  Q 511.73 818.58 567.50 809.00
  Q 634.30 797.53 691.66 757.14
  Q 714.79 740.85 735.69 717.44
  Q 770.15 678.83 785.01 630.88
  Q 793.29 604.16 796.00 581.50
  Q 799.54 551.84 797.46 516.74
  Q 796.06 493.10 790.75 469.00
  Q 776.02 402.19 739.13 345.50
  Q 733.59 336.99 727.95 328.91
  Q 712.02 306.09 694.00 287.75
  Q 667.83 261.11 635.44 238.45
  Q 627.62 232.98 618.74 227.45
  Q 576.39 201.05 534.69 185.06
  Q 489.04 167.57 432.27 154.91
  Q 393.49 146.26 354.28 139.88
  Q 344.12 138.22 340.16 139.07
  Q 332.20 140.79 328.50 149.00
  Q 325.81 154.98 323.50 163.59
  Q 319.72 177.71 319.69 177.82
  Q 299.68 246.31 279.54 314.75"
/>
<path stroke="#111c2a" vector-effect="non-scaling-stroke" d="
  M 301.46 738.75
  Q 302.85 737.96 303.69 738.81
  Q 310.09 745.35 313.59 748.15
  Q 348.07 775.78 389.30 791.72
  Q 420.59 803.81 458.44 809.31
  Q 478.24 812.19 494.94 812.27
  Q 514.00 812.36 514.42 812.36
  Q 531.98 812.51 551.50 810.00
  Q 612.20 802.19 664.06 773.06
  Q 718.79 742.33 753.44 693.19
  Q 766.35 674.88 775.00 654.21
  Q 781.76 638.06 786.32 621.19
  Q 789.08 611.02 791.14 601.79
  Q 794.41 587.16 795.79 572.22
  Q 796.88 560.49 797.25 552.28
  Q 797.83 539.94 796.81 525.56
  Q 795.33 504.61 793.70 492.23
  Q 793.68 492.13 793.27 488.38
  Q 792.80 484.13 791.25 477.25
  Q 786.48 456.13 784.37 448.22
  Q 778.16 424.89 768.39 402.89
  Q 764.74 394.66 759.91 384.77
  Q 736.05 335.88 699.60 295.52
  Q 693.29 288.53 685.62 281.24
  Q 669.85 266.26 655.06 254.44
  Q 630.41 234.73 601.37 218.67
  Q 588.90 211.78 583.80 209.13
  Q 575.43 204.77 563.31 199.19
  Q 530.33 183.97 503.26 175.60
  Q 473.06 166.25 463.25 164.00
  Q 455.47 162.22 450.32 160.87
  Q 441.91 158.68 437.42 157.76
  Q 429.18 156.06 420.98 154.15
  Q 413.41 152.38 404.54 150.66
  Q 396.73 149.15 388.98 147.36
  Q 380.83 145.48 373.38 144.41
  Q 356.77 142.03 349.25 140.25
  Q 343.14 138.80 338.56 140.81
  Q 331.90 143.74 328.94 150.00
  Q 328.72 150.46 325.25 162.16
  Q 309.23 216.15 293.84 270.32
  Q 287.64 292.14 280.76 313.75
  Q 280.47 314.67 279.54 314.75"
/>
<path stroke="#111c2a" vector-effect="non-scaling-stroke" d="
  M 282.94 718.68
  Q 277.43 710.27 270.56 702.94
  Q 269.41 701.70 264.69 694.31
  Q 263.97 693.20 263.46 694.50"
/>
<path stroke="#111c2a" vector-effect="non-scaling-stroke" d="
  M 224.97 572.26
  Q 226.46 565.47 225.75 555.25
  Q 225.06 545.27 227.00 526.00
  Q 227.36 522.46 227.47 520.00
  Q 227.65 515.97 227.95 514.03
  Q 229.76 502.00 231.83 490.01
  Q 232.04 488.81 231.04 489.00"
/>
<path stroke="#117f7b" vector-effect="non-scaling-stroke" d="
  M 344.64 189.12
  Q 332.11 232.76 319.40 275.72
  Q 318.68 278.16 313.89 294.95
  Q 309.11 311.73 301.75 334.50
  Q 292.66 362.63 275.10 422.78
  Q 273.08 429.71 271.12 437.27
  Q 269.22 444.56 267.31 451.83
  Q 264.15 463.84 262.55 471.26
  Q 257.06 496.90 254.29 523.00
  Q 250.86 555.41 253.50 580.75
  Q 255.43 599.33 259.78 617.49
  Q 269.94 660.01 297.38 693.27
  Q 302.73 699.75 310.61 708.27
  Q 325.55 724.41 340.06 735.19
  Q 366.30 754.67 399.71 766.62
  Q 408.96 769.93 418.72 772.84
  Q 453.95 783.34 492.75 785.00
  Q 552.61 787.56 607.50 769.04"
/>
<path stroke="#218387" vector-effect="non-scaling-stroke" d="
  M 607.50 769.04
  Q 680.06 745.53 726.79 685.50"
/>
<path stroke="#11827d" vector-effect="non-scaling-stroke" d="
  M 726.79 685.50
  Q 739.48 669.24 748.00 651.25
  Q 759.57 626.83 765.16 600.09
  Q 767.11 590.73 768.29 580.34
  Q 770.63 559.63 770.06 538.75
  Q 769.53 519.57 765.75 489.75
  Q 763.74 473.86 760.96 464.75"
/>
<path stroke="#428f84" vector-effect="non-scaling-stroke" d="
  M 760.96 464.75
  Q 755.14 439.84 745.23 416.26
  Q 724.26 366.36 689.96 324.53
  Q 658.49 286.14 614.69 256.81
  Q 579.46 233.22 543.75 218.25
  Q 506.32 202.56 463.35 190.87
  Q 454.62 188.50 443.95 186.01
  Q 398.41 175.41 352.58 167.56
  A 1.04 1.00 13.8 0 0 351.43 168.23
  L 344.64 189.12"
/>
<path stroke="#33ddb1" vector-effect="non-scaling-stroke" d="
  M 760.96 464.75
  L 759.80 464.56
  A 1.29 0.75 -51.0 0 0 758.93 464.89
  L 749.28 472.86
  A 0.76 0.75 63.0 0 1 748.07 472.46
  Q 740.64 443.84 727.75 417.25
  Q 713.84 388.55 698.23 365.17
  Q 692.21 356.16 686.79 348.78
  Q 672.27 329.03 652.81 309.69
  Q 625.43 282.46 593.01 265.40
  Q 586.15 261.80 575.10 256.53
  Q 541.16 240.33 505.75 231.25
  Q 489.97 227.20 462.00 220.79"
/>
<path stroke="#33daaf" vector-effect="non-scaling-stroke" d="
  M 462.00 220.79
  Q 452.00 218.06 441.90 215.80
  Q 433.89 214.00 425.22 211.74
  Q 416.91 209.56 408.50 207.76
  Q 375.90 200.78 344.64 189.12"
/>
<path stroke="#12d1b4" vector-effect="non-scaling-stroke" d="
  M 726.79 685.50
  Q 726.19 685.23 725.54 685.50"
/>
<path stroke="#33ddb1" vector-effect="non-scaling-stroke" d="
  M 725.25 658.71
  Q 734.99 643.21 738.44 636.44
  Q 744.85 623.85 747.69 613.69
  Q 750.09 605.09 748.25 596.75
  Q 745.65 584.97 733.54 582.59"
/>
<path stroke="#02cda8" vector-effect="non-scaling-stroke" d="
  M 462.00 220.79
  Q 460.91 222.55 461.25 224.46"
/>
<path stroke="#117f7b" vector-effect="non-scaling-stroke" d="
  M 461.25 224.46
  Q 436.10 216.86 410.51 210.94
  Q 408.52 210.48 391.09 206.16
  Q 380.39 203.51 369.49 201.75
  A 1.37 1.36 -75.3 0 0 367.99 202.63
  Q 364.39 212.38 361.81 221.56
  Q 361.21 223.70 361.12 228.97"
/>
<path stroke="#09b99e" vector-effect="non-scaling-stroke" d="
  M 361.12 228.97
  Q 359.96 238.31 356.75 248.00
  Q 352.69 260.23 348.68 275.03
  Q 342.51 297.72 336.84 320.54
  Q 335.31 326.66 331.93 337.25
  Q 328.82 346.98 326.64 356.98
  Q 324.43 367.07 323.19 368.94
  Q 320.91 372.36 320.71 376.43
  A 1.57 1.18 -28.4 0 1 320.32 377.28
  Q 319.52 378.15 319.62 379.44
  A 1.81 1.29 65.5 0 1 319.44 380.37
  Q 315.71 387.10 315.24 394.81"
/>
<path stroke="#7db49f" vector-effect="non-scaling-stroke" d="
  M 315.24 394.81
  Q 313.28 399.68 311.38 404.59
  Q 309.40 409.70 308.09 414.58
  Q 306.59 420.19 305.01 426.80
  Q 304.78 427.76 304.19 428.55
  Q 303.11 430.01 304.50 429.79"
/>
<path stroke="#117f7b" vector-effect="non-scaling-stroke" d="
  M 304.50 429.79
  Q 302.90 432.30 302.15 435.18
  Q 294.22 465.62 290.37 496.81
  Q 288.83 509.29 288.04 516.68
  Q 284.41 550.39 287.47 584.24"
/>
<path stroke="#33daaf" vector-effect="non-scaling-stroke" d="
  M 287.47 584.24
  Q 281.52 584.16 278.56 588.31
  Q 276.04 591.86 275.25 595.75
  Q 273.57 604.03 275.37 612.73
  Q 279.13 630.96 288.44 647.06
  Q 299.96 666.98 311.37 679.87
  Q 322.35 692.25 334.70 703.19
  Q 342.26 709.88 350.49 715.44
  Q 380.80 735.87 415.67 746.92
  Q 424.67 749.77 434.88 752.49
  Q 468.29 761.40 503.00 762.41
  Q 532.84 763.28 558.75 758.25
  Q 607.16 748.85 651.75 724.37
  Q 661.25 719.16 668.85 714.02
  Q 701.98 691.62 725.25 658.71"
/>
<path stroke="#02cda8" vector-effect="non-scaling-stroke" d="
  M 725.25 658.71
  Q 726.33 658.59 727.30 659.02
  A 0.61 0.58 -70.8 0 1 727.62 659.73
  Q 726.73 662.76 725.27 665.55
  Q 724.62 666.78 724.72 667.58
  Q 724.89 669.06 726.50 669.25
  Q 727.99 669.42 728.45 667.81
  A 0.82 0.68 -83.2 0 1 729.06 667.23
  L 732.81 666.84
  A 0.77 0.76 6.7 0 0 733.45 666.34
  Q 734.23 664.13 736.38 665.92
  A 0.47 0.41 -50.5 0 0 737.00 665.82
  Q 737.21 665.58 737.46 665.56
  Q 738.04 665.51 737.69 666.13
  Q 732.10 676.11 725.54 685.50"
/>
<path stroke="#12ceb2" vector-effect="non-scaling-stroke" d="
  M 725.54 685.50
  Q 703.64 713.33 674.53 733.51
  Q 656.29 746.15 644.00 752.25
  Q 632.99 757.71 607.72 767.57
  A 1.08 0.66 -12.5 0 0 607.06 768.21
  Q 606.98 768.70 607.50 769.04"
/>
<path stroke="#70f0c5" vector-effect="non-scaling-stroke" d="
  M 296.71 618.50
  Q 295.65 618.97 296.12 620.16
  Q 306.56 646.57 325.56 667.67
  Q 341.51 685.39 358.56 696.94
  Q 364.86 701.20 367.57 703.15
  Q 369.30 704.38 371.22 705.46
  Q 373.11 706.52 374.90 707.74
  Q 376.73 708.98 379.42 710.15
  Q 381.35 710.99 384.06 712.44
  Q 385.39 713.15 385.25 711.54"
/>
<path stroke="#11827d" vector-effect="non-scaling-stroke" d="
  M 461.25 224.46
  Q 478.02 230.62 485.00 233.00
  Q 503.33 239.25 520.95 247.25
  Q 528.36 250.62 538.83 256.19
  Q 562.56 268.82 568.94 272.56
  Q 587.09 283.21 607.00 299.41
  Q 615.60 306.40 622.31 312.28
  Q 655.81 341.62 682.00 381.00
  Q 715.26 431.00 729.00 486.75
  Q 740.84 534.81 733.54 582.59"
/>
<path stroke="#428f84" vector-effect="non-scaling-stroke" d="
  M 733.54 582.59
  Q 732.12 591.16 728.94 600.69
  Q 723.30 617.58 715.14 632.76
  Q 710.41 641.56 704.52 649.68
  Q 689.58 670.29 669.70 686.45
  Q 651.16 701.53 631.19 711.69
  Q 603.87 725.58 572.78 733.35
  Q 534.72 742.86 495.51 740.59
  Q 464.81 738.81 436.50 731.25
  Q 410.50 724.30 385.25 711.54"
/>
<path stroke="#4e9592" vector-effect="non-scaling-stroke" d="
  M 385.25 711.54
  Q 365.34 700.84 350.69 689.31
  Q 325.13 669.21 307.19 639.81
  Q 302.27 631.75 296.71 618.50"
/>
<path stroke="#428f84" vector-effect="non-scaling-stroke" d="
  M 296.71 618.50
  Q 290.34 601.86 287.47 584.24"
/>
<path stroke="#8c6974" vector-effect="non-scaling-stroke" d="
  M 304.50 429.79
  L 305.50 428.71"
/>
<path stroke="#1b243a" vector-effect="non-scaling-stroke" d="
  M 305.50 428.71
  Q 305.81 429.44 306.41 429.50
  Q 306.80 429.54 307.36 429.11
  Q 311.61 425.86 312.81 425.56
  Q 317.51 424.41 321.81 427.44
  Q 327.82 431.66 328.00 438.57
  Q 328.20 446.23 327.00 449.25
  Q 322.40 460.84 321.16 473.27
  Q 320.74 477.56 319.82 481.76
  Q 316.03 499.13 314.88 516.85
  Q 314.87 516.94 314.11 521.04
  Q 313.57 523.99 315.24 526.78"
/>
<path stroke="#8e5a6c" vector-effect="non-scaling-stroke" d="
  M 315.24 526.78
  Q 313.71 548.54 314.50 566.75
  Q 314.79 573.40 316.29 584.83"
/>
<path stroke="#8c2c54" vector-effect="non-scaling-stroke" d="
  M 316.29 584.83
  Q 322.64 619.67 345.21 645.91
  Q 351.33 653.03 359.14 660.25
  Q 375.52 675.38 395.46 685.76
  Q 408.44 692.52 411.31 693.69
  Q 466.00 716.01 527.00 711.50
  Q 538.23 710.67 547.20 709.20
  Q 555.08 707.91 566.78 705.20
  Q 615.57 693.86 654.53 662.61
  Q 663.08 655.74 669.32 649.17
  Q 690.43 626.91 701.00 596.75
  Q 706.89 579.94 707.21 563.75"
/>
<path stroke="#8e4660" vector-effect="non-scaling-stroke" d="
  M 707.21 563.75
  L 707.29 561.25"
/>
<path stroke="#8e5a6c" vector-effect="non-scaling-stroke" d="
  M 707.29 561.25
  Q 708.35 547.67 707.66 534.08
  Q 707.66 533.98 707.46 528.41
  Q 707.26 523.04 706.22 517.76
  Q 702.85 500.61 698.54 483.68
  Q 696.02 473.77 692.67 464.57
  Q 688.08 452.00 682.83 439.68
  Q 677.74 427.75 671.29 416.50"
/>
<path stroke="#8f99a7" vector-effect="non-scaling-stroke" d="
  M 671.29 416.50
  Q 661.95 397.52 647.56 379.44
  Q 626.25 352.66 602.50 331.54"
/>
<path stroke="#111c2a" vector-effect="non-scaling-stroke" d="
  M 602.50 331.54
  Q 602.79 329.16 600.31 327.69
  Q 597.12 325.79 582.35 314.18
  Q 582.12 313.99 579.29 312.32
  Q 577.95 311.52 576.44 310.06
  Q 573.62 307.35 559.56 298.04
  Q 557.22 296.49 553.91 295.43
  Q 549.60 294.03 545.53 291.97"
/>
<path stroke="#877584" vector-effect="non-scaling-stroke" d="
  M 545.53 291.97
  Q 534.44 286.23 523.33 280.52
  Q 491.74 264.30 457.80 253.84
  Q 428.31 244.76 398.24 237.82
  Q 383.38 234.39 368.50 231.04"
/>
<path stroke="#8c6974" vector-effect="non-scaling-stroke" d="
  M 368.50 231.04
  L 362.00 229.54"
/>
<path stroke="#186e73" vector-effect="non-scaling-stroke" d="
  M 362.00 229.54
  L 361.12 228.97"
/>
<path stroke="#84a297" vector-effect="non-scaling-stroke" d="
  M 362.00 229.54
  Q 361.92 235.54 359.81 242.56
  Q 355.23 257.85 347.43 286.48
  Q 337.68 322.21 327.19 357.73
  Q 321.67 376.39 315.24 394.81"
/>
<path stroke="#f3a9a8" vector-effect="non-scaling-stroke" d="
  M 368.50 231.04
  L 369.28 233.05
  A 0.83 0.71 -7.6 0 0 370.00 233.51
  Q 373.58 233.63 378.50 235.00
  Q 388.17 237.70 406.44 241.86
  Q 407.90 242.19 410.28 243.21
  Q 412.17 244.02 414.19 244.43
  Q 419.53 245.53 419.59 245.55
  Q 423.38 246.57 425.94 247.06
  Q 431.84 248.20 436.50 249.88
  Q 441.25 251.58 442.25 251.75
  Q 447.53 252.63 452.47 254.58
  Q 456.07 255.99 459.26 256.65
  Q 464.40 257.72 467.44 259.06
  Q 471.34 260.79 474.40 261.68
  Q 480.60 263.51 481.45 263.83
  Q 486.86 265.91 492.30 267.93
  Q 497.52 269.87 501.73 271.73
  Q 509.16 275.03 510.94 276.06
  Q 517.12 279.66 525.50 283.00
  Q 532.84 285.92 540.39 290.99
  Q 540.45 291.03 542.79 292.13
  Q 544.27 292.82 544.73 294.56
  A 0.39 0.34 -13.0 0 0 545.18 294.80
  Q 545.42 294.75 545.59 294.83
  Q 546.28 295.12 545.50 295.42
  L 542.04 296.75"
/>
<path stroke="#dc9990" vector-effect="non-scaling-stroke" d="
  M 542.04 296.75
  Q 526.52 302.66 531.08 318.83"
/>
<path stroke="#fbcecb" vector-effect="non-scaling-stroke" d="
  M 531.08 318.83
  Q 532.51 322.15 534.19 324.06
  Q 537.44 327.77 542.39 331.13
  Q 582.89 358.65 613.94 396.26
  Q 620.19 403.84 625.63 412.46
  Q 633.03 424.17 639.62 436.33"
/>
<path stroke="#fa8e90" vector-effect="non-scaling-stroke" d="
  M 639.62 436.33
  Q 639.57 436.97 639.19 436.36
  Q 632.73 426.01 626.35 415.61
  Q 625.54 414.30 623.15 411.32
  Q 621.60 409.39 620.12 406.83
  Q 619.30 405.40 617.66 405.21
  Q 615.94 405.01 614.06 404.87
  Q 612.42 404.75 610.45 404.83
  Q 590.38 405.71 570.31 405.04
  Q 561.94 404.77 555.69 404.76
  Q 548.37 404.76 541.06 404.69
  Q 530.05 404.58 521.07 404.64
  Q 476.99 404.93 432.92 404.08
  Q 429.72 404.02 424.60 404.35
  Q 420.43 404.61 416.25 404.54
  Q 404.88 404.35 403.75 404.37
  Q 388.24 404.67 372.74 404.88
  Q 366.15 404.96 352.75 404.77
  Q 339.71 404.58 319.75 404.75
  Q 315.66 404.78 313.28 405.42
  A 1.42 1.32 -78.9 0 0 312.52 405.97
  Q 311.18 407.96 310.67 410.28
  Q 310.07 413.01 310.05 413.07
  Q 308.61 418.30 307.51 423.82
  Q 307.33 424.75 308.17 424.32
  Q 317.42 419.62 325.32 425.78
  Q 326.51 426.71 327.31 427.99
  Q 330.23 432.69 330.92 437.18
  Q 331.38 440.25 329.94 446.72
  Q 328.41 453.58 326.94 460.46
  Q 326.93 460.52 324.19 472.37
  Q 322.10 481.35 321.14 490.53
  Q 320.63 495.42 319.70 500.78
  Q 318.82 505.89 318.36 511.06
  A 0.96 0.92 -11.8 0 1 317.86 511.79
  L 316.54 512.50"
/>
<path stroke="#87595e" vector-effect="non-scaling-stroke" d="
  M 316.54 512.50
  Q 319.54 479.58 328.11 447.68
  Q 328.12 447.65 328.98 444.83
  Q 330.57 439.64 329.25 435.25
  Q 326.94 427.57 319.72 424.79
  Q 315.85 423.31 312.21 424.43
  Q 308.40 425.61 305.50 428.71"
/>
<path stroke="#785c5e" vector-effect="non-scaling-stroke" d="
  M 545.53 291.97
  L 550.00 294.96"
/>
<path stroke="#f6dadb" vector-effect="non-scaling-stroke" d="
  M 550.00 294.96
  L 543.50 296.79"
/>
<path stroke="#d7a59f" vector-effect="non-scaling-stroke" d="
  M 543.50 296.79
  L 542.04 296.75"
/>
<path stroke="#f93e64" vector-effect="non-scaling-stroke" d="
  M 707.21 563.75
  L 704.77 564.37
  A 0.97 0.71 -86.1 0 0 704.20 565.05
  Q 702.96 570.13 699.81 576.31
  Q 695.66 584.46 691.45 591.13
  Q 687.34 597.65 681.03 604.52
  Q 670.27 616.24 656.94 628.44
  Q 653.37 631.70 650.46 637.00"
/>
<path stroke="#fc4c6a" vector-effect="non-scaling-stroke" d="
  M 650.46 637.00
  Q 628.73 637.45 607.00 637.00
  Q 596.12 636.78 587.00 636.86
  Q 574.25 636.96 551.56 637.06
  Q 548.93 637.07 548.51 639.21
  Q 548.06 641.49 548.02 641.59
  Q 547.45 643.00 546.66 644.30
  Q 545.78 645.74 545.57 647.07
  Q 544.96 651.02 544.50 655.00
  Q 544.21 657.56 542.88 659.67
  Q 541.44 661.96 541.39 662.04
  Q 535.76 672.08 526.01 678.05
  Q 523.99 679.28 521.38 680.04
  Q 518.95 680.75 516.49 681.38
  A 1.39 1.23 50.1 0 1 515.56 681.24
  Q 513.60 680.18 511.25 680.29"
/>
<path stroke="#8d465f" vector-effect="non-scaling-stroke" d="
  M 511.25 680.29
  Q 521.11 680.32 529.10 674.62
  Q 537.54 668.58 540.75 659.18
  Q 542.35 654.49 542.98 648.86
  Q 543.57 643.59 542.82 638.24
  Q 541.97 632.25 539.09 627.17
  Q 536.30 622.24 531.99 618.14
  Q 523.52 610.08 510.99 609.66
  Q 500.12 609.31 491.73 615.99
  Q 482.93 623.00 480.25 631.75
  Q 475.86 646.10 482.31 661.44
  Q 486.13 670.51 495.25 675.96"
/>
<path stroke="#fc4c6a" vector-effect="non-scaling-stroke" d="
  M 495.25 675.96
  Q 491.92 675.98 488.44 672.81
  Q 484.97 669.66 481.50 666.50
  Q 479.69 664.86 478.74 662.03
  Q 478.47 661.22 478.26 658.41
  Q 478.12 656.34 477.19 654.81
  Q 475.04 651.28 474.62 647.63
  A 4.07 4.05 54.7 0 1 475.01 645.33
  Q 476.63 641.98 476.52 639.60
  Q 476.43 637.69 474.53 637.46
  Q 469.05 636.81 463.75 636.82
  Q 449.25 636.87 434.75 636.95
  Q 429.30 636.97 414.76 636.81
  Q 387.99 636.52 361.30 638.42"
/>
<path stroke="#f93e64" vector-effect="non-scaling-stroke" d="
  M 361.30 638.42
  Q 359.26 635.19 357.02 632.01
  Q 354.74 628.75 351.81 626.66
  Q 348.73 624.45 345.41 622.61
  Q 338.88 618.98 334.56 612.90
  Q 331.49 608.56 328.69 603.06
  Q 324.74 595.33 318.46 584.00"
/>
<path stroke="#fa325e" vector-effect="non-scaling-stroke" d="
  M 361.30 638.42
  Q 366.19 648.77 375.56 655.94
  Q 404.11 677.76 438.44 685.38
  Q 446.02 687.06 458.10 688.92
  Q 498.96 695.19 540.08 690.73
  Q 550.99 689.55 559.84 687.69
  Q 603.87 678.44 639.69 649.94
  Q 646.68 644.37 650.46 637.00"
/>
<path stroke="#808181" vector-effect="non-scaling-stroke" d="
  M 602.50 331.54
  Q 581.49 313.85 558.66 298.62
  Q 556.73 297.33 554.46 296.54
  Q 552.23 295.76 550.00 294.96"
/>
<path stroke="#fb6c7b" vector-effect="non-scaling-stroke" d="
  M 707.29 561.25
  L 707.14 559.98
  A 1.54 0.56 37.2 0 0 706.62 559.17
  Q 705.71 558.26 705.89 557.08
  Q 706.07 555.89 706.07 555.76
  Q 706.30 540.00 705.75 524.24
  A 1.30 1.28 0.5 0 0 704.52 523.00
  Q 694.13 522.53 683.75 522.67
  Q 660.38 523.01 637.00 522.67
  Q 626.66 522.53 617.00 522.66
  Q 588.12 523.07 559.23 522.78
  Q 559.17 522.78 553.28 522.53
  Q 549.76 522.39 546.24 522.75
  Q 542.15 523.18 544.99 526.15
  Q 548.45 529.79 549.98 535.75
  Q 551.59 542.05 550.92 549.33
  A 0.88 0.86 80.4 0 1 550.41 550.06
  Q 548.88 550.77 549.21 549.25"
/>
<path stroke="#884a55" vector-effect="non-scaling-stroke" d="
  M 549.21 549.25
  Q 550.84 538.27 544.50 528.75
  Q 538.14 519.21 527.39 516.68"
/>
<path stroke="#8d596b" vector-effect="non-scaling-stroke" d="
  M 527.39 516.68
  Q 518.27 514.09 509.13 517.52
  Q 505.38 518.92 502.25 522.00
  Q 496.03 528.13 493.21 536.00"
/>
<path stroke="#fb6c7b" vector-effect="non-scaling-stroke" d="
  M 493.21 536.00
  Q 491.56 536.39 492.16 535.00
  Q 494.56 529.38 498.26 524.49
  Q 499.91 522.30 497.17 522.31
  Q 441.30 522.61 385.00 522.52
  Q 378.38 522.51 365.01 522.66
  Q 342.21 522.92 318.70 522.22
  A 1.82 1.82 -88.0 0 0 316.82 523.98
  Q 316.46 534.78 315.87 545.24
  Q 314.76 564.79 318.46 584.00"
/>
<path stroke="#f95270" vector-effect="non-scaling-stroke" d="
  M 318.46 584.00
  L 316.29 584.83"
/>
<path stroke="#884a55" vector-effect="non-scaling-stroke" d="
  M 315.24 526.78
  L 316.54 512.50"
/>
<path stroke="#fdbfc3" vector-effect="non-scaling-stroke" d="
  M 671.29 416.50
  Q 671.91 425.73 670.75 431.25
  Q 669.24 438.43 663.41 441.94
  Q 658.03 445.19 651.66 443.94
  Q 644.64 442.57 639.62 436.33"
/>
<path stroke="#dfcac3" vector-effect="non-scaling-stroke" d="
  M 531.08 318.83
  Q 528.46 302.37 543.50 296.79"
/>
<path stroke="#1a2439" vector-effect="non-scaling-stroke" d="
  M 527.39 516.68
  Q 534.45 520.08 540.69 526.56
  Q 550.10 536.35 548.36 549.62
  Q 548.32 549.89 548.29 549.63
  Q 548.23 549.17 548.09 549.34
  Q 548.00 549.45 547.99 549.68
  Q 547.84 554.25 545.94 557.44
  Q 541.72 564.52 533.85 569.12
  Q 529.38 571.74 522.50 572.50
  Q 518.40 572.95 515.19 572.12
  Q 513.85 571.78 510.22 570.59
  Q 507.51 569.70 505.56 568.19
  Q 502.56 565.85 496.00 559.29"
/>
<path stroke="#8d465f" vector-effect="non-scaling-stroke" d="
  M 496.00 559.29
  Q 489.28 548.36 493.21 536.00"
/>
<path stroke="#883649" vector-effect="non-scaling-stroke" d="
  M 549.21 549.25
  Q 544.88 567.56 528.36 572.41
  Q 521.65 574.38 515.07 572.84
  Q 503.19 570.06 496.00 559.29"
/>
<path stroke="#8e3959" vector-effect="non-scaling-stroke" d="
  M 511.25 680.29
  Q 502.78 679.83 495.25 675.96"
/>
<path stroke="#87595e" vector-effect="non-scaling-stroke" d="
  M 445.96 388.75
  Q 456.42 374.78 453.46 357.25"
/>
<path stroke="#f3a9a8" vector-effect="non-scaling-stroke" d="
  M 453.46 357.25
  L 454.43 355.49
  A 1.38 1.19 -40.7 0 0 454.57 354.57
  Q 452.07 343.97 443.29 335.45
  Q 442.92 335.09 442.51 334.78
  Q 434.48 328.88 426.00 327.54
  Q 424.05 327.24 421.01 327.65
  Q 419.10 327.91 416.00 328.25
  Q 410.39 328.87 405.12 332.16
  Q 400.50 335.05 396.91 339.94
  Q 387.45 352.85 389.53 369.75
  Q 390.85 380.45 397.85 388.65
  Q 404.80 396.78 414.64 399.91
  Q 420.29 401.70 425.99 400.81
  Q 431.78 399.91 437.04 397.14
  Q 441.65 394.72 445.71 391.46
  Q 447.14 390.30 445.96 388.75"
/>
<path stroke="#82656d" vector-effect="non-scaling-stroke" d="
  M 453.46 357.25
  Q 451.23 344.02 440.83 335.66
  Q 427.67 325.09 411.44 330.82
  Q 400.12 334.81 394.44 346.94
  Q 389.86 356.71 390.43 365.25"
/>
<path stroke="#877584" vector-effect="non-scaling-stroke" d="
  M 390.43 365.25
  Q 391.13 384.02 406.24 394.06"
/>
<path stroke="#82656d" vector-effect="non-scaling-stroke" d="
  M 406.24 394.06
  Q 413.71 399.40 422.81 399.09
  Q 436.60 398.63 445.96 388.75"
/>
<path stroke="#1b243a" vector-effect="non-scaling-stroke" d="
  M 406.24 394.06
  Q 416.90 399.58 428.11 397.33
  Q 433.27 396.30 436.60 394.57
  Q 440.30 392.66 443.81 389.06
  Q 448.53 384.24 450.56 378.83
  Q 452.34 374.10 453.02 369.29
  Q 453.67 364.72 452.69 359.31
  Q 449.65 342.63 436.51 333.98
  Q 430.65 330.12 423.71 331.56
  Q 420.91 332.14 418.44 331.56
  Q 416.04 331.00 413.86 331.50
  Q 412.74 331.75 409.65 333.02
  Q 399.92 337.02 396.26 347.00
  Q 396.23 347.07 395.56 350.07
  Q 395.05 352.35 393.17 354.54
  A 3.04 2.97 -21.4 0 0 392.48 356.07
  Q 391.71 361.96 390.43 365.25"
/>
<path stroke="#884a55" vector-effect="non-scaling-stroke" d="
  M 608.96 467.50
  Q 612.87 460.46 614.21 452.50"
/>
<path stroke="#fa8f95" vector-effect="non-scaling-stroke" d="
  M 614.21 452.50
  Q 614.24 454.40 615.40 453.36
  A 1.29 1.05 -25.4 0 0 615.81 452.50
  L 615.81 445.00
  Q 615.81 444.36 615.93 444.03
  Q 617.16 440.65 616.05 437.29
  Q 616.00 437.17 615.71 435.65
  Q 615.50 434.59 614.47 434.15
  A 0.86 0.80 8.7 0 1 613.95 433.50
  Q 613.54 429.87 610.75 426.00
  Q 603.47 415.92 592.92 411.71
  Q 590.49 410.74 587.41 410.69
  Q 584.59 410.64 581.76 410.67
  Q 576.91 410.71 573.39 411.84
  Q 562.41 415.33 556.15 424.20
  Q 550.77 431.84 549.40 442.81
  Q 546.64 464.85 565.31 479.94
  Q 566.34 480.77 569.75 481.41
  A 1.59 1.48 72.0 0 1 570.58 481.87
  Q 571.60 482.97 572.94 483.54
  Q 573.79 483.90 576.14 483.86
  Q 577.48 483.84 579.50 484.00
  Q 597.60 485.41 608.31 470.76
  Q 608.66 470.29 609.51 469.59
  Q 610.96 468.40 608.96 467.50"
/>
<path stroke="#875963" vector-effect="non-scaling-stroke" d="
  M 614.21 452.50
  Q 615.67 441.64 611.79 431.48
  Q 607.96 421.46 599.06 416.44
  Q 588.10 410.25 575.33 413.16
  Q 562.26 416.13 555.57 427.57"
/>
<path stroke="#8d6979" vector-effect="non-scaling-stroke" d="
  M 555.57 427.57
  Q 550.61 436.27 550.52 446.20
  Q 550.47 451.77 551.08 455.81
  Q 551.82 460.62 554.19 465.03
  Q 564.24 483.76 586.01 482.91"
/>
<path stroke="#875963" vector-effect="non-scaling-stroke" d="
  M 586.01 482.91
  Q 600.98 480.20 608.96 467.50"
/>
<path stroke="#1b243a" vector-effect="non-scaling-stroke" d="
  M 586.01 482.91
  Q 587.35 481.29 589.15 480.84
  Q 591.11 480.36 591.18 480.33
  Q 606.88 474.50 611.67 458.23
  Q 613.30 452.68 613.00 444.25
  Q 612.54 431.54 605.04 422.96
  Q 597.42 414.25 586.75 413.50
  Q 567.74 412.16 555.57 427.57"
/>
<path stroke="#884a55" vector-effect="non-scaling-stroke" d="
  M 453.50 506.04
  Q 469.80 500.56 473.50 484.25
  Q 476.03 473.10 469.96 462.75"
/>
<path stroke="#fa8f95" vector-effect="non-scaling-stroke" d="
  M 469.96 462.75
  Q 471.87 460.83 470.26 459.20
  Q 469.39 458.31 469.32 458.22
  Q 466.10 454.35 463.94 453.06
  Q 458.97 450.11 450.60 447.32
  Q 447.28 446.22 444.13 446.45
  Q 436.89 447.00 431.06 449.56
  Q 417.07 455.73 413.46 470.40
  Q 412.72 473.40 412.67 477.67
  Q 412.60 483.36 413.00 485.00
  Q 413.70 487.88 418.25 495.72
  Q 419.36 497.64 421.04 498.97
  Q 423.95 501.28 424.11 501.42
  Q 427.83 504.73 432.40 506.46
  Q 436.97 508.18 441.69 508.69
  Q 446.72 509.24 452.50 508.00
  Q 454.52 507.57 453.50 506.04"
/>
<path stroke="#875963" vector-effect="non-scaling-stroke" d="
  M 469.96 462.75
  Q 459.83 447.89 441.51 448.93
  Q 431.57 449.49 424.06 455.31
  Q 416.92 460.84 415.57 470.13"
/>
<path stroke="#8d6979" vector-effect="non-scaling-stroke" d="
  M 415.57 470.13
  Q 412.14 480.22 417.00 490.25
  Q 422.92 502.45 435.45 505.79"
/>
<path stroke="#875963" vector-effect="non-scaling-stroke" d="
  M 435.45 505.79
  Q 444.49 509.43 453.50 506.04"
/>
<path stroke="#1b243a" vector-effect="non-scaling-stroke" d="
  M 435.45 505.79
  Q 446.98 507.65 455.50 504.25
  Q 464.59 500.62 470.56 490.56
  Q 472.20 487.80 472.61 484.18
  Q 472.86 482.03 473.38 479.40
  Q 473.89 476.78 473.50 474.50
  Q 472.21 466.96 467.13 461.07
  Q 464.28 457.78 461.72 455.61
  Q 458.68 453.04 454.97 451.72
  Q 449.96 449.94 443.95 449.66
  Q 437.74 449.38 431.80 452.05
  Q 419.71 457.49 415.57 470.13"
/>
<path stroke="#8d465f" vector-effect="non-scaling-stroke" d="
  M 394.96 607.50
  Q 402.61 604.62 406.31 601.06
  Q 414.17 593.49 416.41 580.78"
/>
<path stroke="#f8677e" vector-effect="non-scaling-stroke" d="
  M 416.41 580.78
  Q 417.95 577.26 418.02 573.44
  Q 418.06 570.89 417.51 566.05
  Q 416.28 555.21 408.74 547.01
  Q 397.56 534.87 380.94 537.44
  Q 370.62 539.03 363.95 545.00
  Q 360.14 548.40 357.77 552.16
  Q 355.42 555.88 354.00 561.00
  Q 351.26 570.86 352.66 579.69
  Q 353.49 584.93 355.13 589.65
  Q 356.96 594.92 360.31 598.69
  Q 371.04 610.73 388.06 610.26
  Q 388.56 610.25 388.88 610.03
  Q 389.24 609.78 389.50 609.42
  A 0.70 0.70 24.2 0 1 390.22 609.15
  Q 390.89 609.29 391.49 609.05
  A 1.55 1.07 -39.7 0 1 392.40 608.97
  Q 394.55 609.61 394.96 607.50"
/>
<path stroke="#8a556e" vector-effect="non-scaling-stroke" d="
  M 416.41 580.78
  Q 417.29 574.46 416.75 569.00
  Q 415.15 552.85 403.36 544.58
  Q 395.08 538.78 384.58 538.86
  Q 372.53 538.96 364.05 547.03
  Q 357.00 553.75 354.56 564.25
  Q 351.53 577.26 356.80 589.68
  Q 359.98 597.17 365.71 601.81
  Q 371.93 606.85 379.75 608.50
  Q 386.85 609.99 394.96 607.50"
/>
<path stroke="#8d465f" vector-effect="non-scaling-stroke" d="
  M 615.69 547.44
  Q 606.95 555.89 605.17 566.83
  Q 602.73 581.79 610.23 594.85
  Q 617.32 607.20 632.00 609.00
  Q 645.31 610.64 654.91 603.57
  Q 660.73 599.29 663.99 591.76
  Q 669.76 578.45 666.08 563.44
  Q 663.63 553.48 655.06 546.44
  Q 645.42 538.51 633.49 539.27
  Q 623.47 539.91 615.69 547.44"
/>
</g>
<path fill="#fefefe" d="
  M 0.00 0.00
  L 980.00 0.00
  L 980.00 980.00
  L 0.00 980.00
  L 0.00 0.00
  Z
  M 279.54 314.75
  Q 271.70 339.11 264.31 363.60
  Q 261.92 371.54 258.40 382.71
  Q 248.83 413.14 240.74 444.00
  Q 234.89 466.29 231.04 489.00
  Q 227.45 508.67 225.75 525.75
  Q 223.51 548.23 224.97 572.26
  Q 226.28 600.96 233.75 629.50
  Q 243.00 664.83 263.46 694.50
  Q 271.88 707.57 282.94 718.68
  Q 291.15 729.62 301.46 738.75
  Q 327.06 762.39 357.95 778.53
  Q 404.13 802.67 455.74 810.30
  Q 511.73 818.58 567.50 809.00
  Q 634.30 797.53 691.66 757.14
  Q 714.79 740.85 735.69 717.44
  Q 770.15 678.83 785.01 630.88
  Q 793.29 604.16 796.00 581.50
  Q 799.54 551.84 797.46 516.74
  Q 796.06 493.10 790.75 469.00
  Q 776.02 402.19 739.13 345.50
  Q 733.59 336.99 727.95 328.91
  Q 712.02 306.09 694.00 287.75
  Q 667.83 261.11 635.44 238.45
  Q 627.62 232.98 618.74 227.45
  Q 576.39 201.05 534.69 185.06
  Q 489.04 167.57 432.27 154.91
  Q 393.49 146.26 354.28 139.88
  Q 344.12 138.22 340.16 139.07
  Q 332.20 140.79 328.50 149.00
  Q 325.81 154.98 323.50 163.59
  Q 319.72 177.71 319.69 177.82
  Q 299.68 246.31 279.54 314.75
  Z"
/>
<path fill="#020304" d="
  M 301.46 738.75
  Q 302.85 737.96 303.69 738.81
  Q 310.09 745.35 313.59 748.15
  Q 348.07 775.78 389.30 791.72
  Q 420.59 803.81 458.44 809.31
  Q 478.24 812.19 494.94 812.27
  Q 514.00 812.36 514.42 812.36
  Q 531.98 812.51 551.50 810.00
  Q 612.20 802.19 664.06 773.06
  Q 718.79 742.33 753.44 693.19
  Q 766.35 674.88 775.00 654.21
  Q 781.76 638.06 786.32 621.19
  Q 789.08 611.02 791.14 601.79
  Q 794.41 587.16 795.79 572.22
  Q 796.88 560.49 797.25 552.28
  Q 797.83 539.94 796.81 525.56
  Q 795.33 504.61 793.70 492.23
  Q 793.68 492.13 793.27 488.38
  Q 792.80 484.13 791.25 477.25
  Q 786.48 456.13 784.37 448.22
  Q 778.16 424.89 768.39 402.89
  Q 764.74 394.66 759.91 384.77
  Q 736.05 335.88 699.60 295.52
  Q 693.29 288.53 685.62 281.24
  Q 669.85 266.26 655.06 254.44
  Q 630.41 234.73 601.37 218.67
  Q 588.90 211.78 583.80 209.13
  Q 575.43 204.77 563.31 199.19
  Q 530.33 183.97 503.26 175.60
  Q 473.06 166.25 463.25 164.00
  Q 455.47 162.22 450.32 160.87
  Q 441.91 158.68 437.42 157.76
  Q 429.18 156.06 420.98 154.15
  Q 413.41 152.38 404.54 150.66
  Q 396.73 149.15 388.98 147.36
  Q 380.83 145.48 373.38 144.41
  Q 356.77 142.03 349.25 140.25
  Q 343.14 138.80 338.56 140.81
  Q 331.90 143.74 328.94 150.00
  Q 328.72 150.46 325.25 162.16
  Q 309.23 216.15 293.84 270.32
  Q 287.64 292.14 280.76 313.75
  Q 280.47 314.67 279.54 314.75
  Q 299.68 246.31 319.69 177.82
  Q 319.72 177.71 323.50 163.59
  Q 325.81 154.98 328.50 149.00
  Q 332.20 140.79 340.16 139.07
  Q 344.12 138.22 354.28 139.88
  Q 393.49 146.26 432.27 154.91
  Q 489.04 167.57 534.69 185.06
  Q 576.39 201.05 618.74 227.45
  Q 627.62 232.98 635.44 238.45
  Q 667.83 261.11 694.00 287.75
  Q 712.02 306.09 727.95 328.91
  Q 733.59 336.99 739.13 345.50
  Q 776.02 402.19 790.75 469.00
  Q 796.06 493.10 797.46 516.74
  Q 799.54 551.84 796.00 581.50
  Q 793.29 604.16 785.01 630.88
  Q 770.15 678.83 735.69 717.44
  Q 714.79 740.85 691.66 757.14
  Q 634.30 797.53 567.50 809.00
  Q 511.73 818.58 455.74 810.30
  Q 404.13 802.67 357.95 778.53
  Q 327.06 762.39 301.46 738.75
  Z"
/>
<path fill="#203450" d="
  M 301.46 738.75
  Q 291.15 729.62 282.94 718.68
  Q 277.43 710.27 270.56 702.94
  Q 269.41 701.70 264.69 694.31
  Q 263.97 693.20 263.46 694.50
  Q 243.00 664.83 233.75 629.50
  Q 226.28 600.96 224.97 572.26
  Q 226.46 565.47 225.75 555.25
  Q 225.06 545.27 227.00 526.00
  Q 227.36 522.46 227.47 520.00
  Q 227.65 515.97 227.95 514.03
  Q 229.76 502.00 231.83 490.01
  Q 232.04 488.81 231.04 489.00
  Q 234.89 466.29 240.74 444.00
  Q 248.83 413.14 258.40 382.71
  Q 261.92 371.54 264.31 363.60
  Q 271.70 339.11 279.54 314.75
  Q 280.47 314.67 280.76 313.75
  Q 287.64 292.14 293.84 270.32
  Q 309.23 216.15 325.25 162.16
  Q 328.72 150.46 328.94 150.00
  Q 331.90 143.74 338.56 140.81
  Q 343.14 138.80 349.25 140.25
  Q 356.77 142.03 373.38 144.41
  Q 380.83 145.48 388.98 147.36
  Q 396.73 149.15 404.54 150.66
  Q 413.41 152.38 420.98 154.15
  Q 429.18 156.06 437.42 157.76
  Q 441.91 158.68 450.32 160.87
  Q 455.47 162.22 463.25 164.00
  Q 473.06 166.25 503.26 175.60
  Q 530.33 183.97 563.31 199.19
  Q 575.43 204.77 583.80 209.13
  Q 588.90 211.78 601.37 218.67
  Q 630.41 234.73 655.06 254.44
  Q 669.85 266.26 685.62 281.24
  Q 693.29 288.53 699.60 295.52
  Q 736.05 335.88 759.91 384.77
  Q 764.74 394.66 768.39 402.89
  Q 778.16 424.89 784.37 448.22
  Q 786.48 456.13 791.25 477.25
  Q 792.80 484.13 793.27 488.38
  Q 793.68 492.13 793.70 492.23
  Q 795.33 504.61 796.81 525.56
  Q 797.83 539.94 797.25 552.28
  Q 796.88 560.49 795.79 572.22
  Q 794.41 587.16 791.14 601.79
  Q 789.08 611.02 786.32 621.19
  Q 781.76 638.06 775.00 654.21
  Q 766.35 674.88 753.44 693.19
  Q 718.79 742.33 664.06 773.06
  Q 612.20 802.19 551.50 810.00
  Q 531.98 812.51 514.42 812.36
  Q 514.00 812.36 494.94 812.27
  Q 478.24 812.19 458.44 809.31
  Q 420.59 803.81 389.30 791.72
  Q 348.07 775.78 313.59 748.15
  Q 310.09 745.35 303.69 738.81
  Q 302.85 737.96 301.46 738.75
  Z
  M 344.64 189.12
  Q 332.11 232.76 319.40 275.72
  Q 318.68 278.16 313.89 294.95
  Q 309.11 311.73 301.75 334.50
  Q 292.66 362.63 275.10 422.78
  Q 273.08 429.71 271.12 437.27
  Q 269.22 444.56 267.31 451.83
  Q 264.15 463.84 262.55 471.26
  Q 257.06 496.90 254.29 523.00
  Q 250.86 555.41 253.50 580.75
  Q 255.43 599.33 259.78 617.49
  Q 269.94 660.01 297.38 693.27
  Q 302.73 699.75 310.61 708.27
  Q 325.55 724.41 340.06 735.19
  Q 366.30 754.67 399.71 766.62
  Q 408.96 769.93 418.72 772.84
  Q 453.95 783.34 492.75 785.00
  Q 552.61 787.56 607.50 769.04
  Q 680.06 745.53 726.79 685.50
  Q 739.48 669.24 748.00 651.25
  Q 759.57 626.83 765.16 600.09
  Q 767.11 590.73 768.29 580.34
  Q 770.63 559.63 770.06 538.75
  Q 769.53 519.57 765.75 489.75
  Q 763.74 473.86 760.96 464.75
  Q 755.14 439.84 745.23 416.26
  Q 724.26 366.36 689.96 324.53
  Q 658.49 286.14 614.69 256.81
  Q 579.46 233.22 543.75 218.25
  Q 506.32 202.56 463.35 190.87
  Q 454.62 188.50 443.95 186.01
  Q 398.41 175.41 352.58 167.56
  A 1.04 1.00 13.8 0 0 351.43 168.23
  L 344.64 189.12
  Z"
/>
<path fill="#64eab7" d="
  M 760.96 464.75
  L 759.80 464.56
  A 1.29 0.75 -51.0 0 0 758.93 464.89
  L 749.28 472.86
  A 0.76 0.75 63.0 0 1 748.07 472.46
  Q 740.64 443.84 727.75 417.25
  Q 713.84 388.55 698.23 365.17
  Q 692.21 356.16 686.79 348.78
  Q 672.27 329.03 652.81 309.69
  Q 625.43 282.46 593.01 265.40
  Q 586.15 261.80 575.10 256.53
  Q 541.16 240.33 505.75 231.25
  Q 489.97 227.20 462.00 220.79
  Q 452.00 218.06 441.90 215.80
  Q 433.89 214.00 425.22 211.74
  Q 416.91 209.56 408.50 207.76
  Q 375.90 200.78 344.64 189.12
  L 351.43 168.23
  A 1.04 1.00 13.8 0 1 352.58 167.56
  Q 398.41 175.41 443.95 186.01
  Q 454.62 188.50 463.35 190.87
  Q 506.32 202.56 543.75 218.25
  Q 579.46 233.22 614.69 256.81
  Q 658.49 286.14 689.96 324.53
  Q 724.26 366.36 745.23 416.26
  Q 755.14 439.84 760.96 464.75
  Z"
/>
<path fill="#02caa6" d="
  M 462.00 220.79
  Q 460.91 222.55 461.25 224.46
  Q 436.10 216.86 410.51 210.94
  Q 408.52 210.48 391.09 206.16
  Q 380.39 203.51 369.49 201.75
  A 1.37 1.36 -75.3 0 0 367.99 202.63
  Q 364.39 212.38 361.81 221.56
  Q 361.21 223.70 361.12 228.97
  Q 359.96 238.31 356.75 248.00
  Q 352.69 260.23 348.68 275.03
  Q 342.51 297.72 336.84 320.54
  Q 335.31 326.66 331.93 337.25
  Q 328.82 346.98 326.64 356.98
  Q 324.43 367.07 323.19 368.94
  Q 320.91 372.36 320.71 376.43
  A 1.57 1.18 -28.4 0 1 320.32 377.28
  Q 319.52 378.15 319.62 379.44
  A 1.81 1.29 65.5 0 1 319.44 380.37
  Q 315.71 387.10 315.24 394.81
  Q 313.28 399.68 311.38 404.59
  Q 309.40 409.70 308.09 414.58
  Q 306.59 420.19 305.01 426.80
  Q 304.78 427.76 304.19 428.55
  Q 303.11 430.01 304.50 429.79
  Q 302.90 432.30 302.15 435.18
  Q 294.22 465.62 290.37 496.81
  Q 288.83 509.29 288.04 516.68
  Q 284.41 550.39 287.47 584.24
  Q 281.52 584.16 278.56 588.31
  Q 276.04 591.86 275.25 595.75
  Q 273.57 604.03 275.37 612.73
  Q 279.13 630.96 288.44 647.06
  Q 299.96 666.98 311.37 679.87
  Q 322.35 692.25 334.70 703.19
  Q 342.26 709.88 350.49 715.44
  Q 380.80 735.87 415.67 746.92
  Q 424.67 749.77 434.88 752.49
  Q 468.29 761.40 503.00 762.41
  Q 532.84 763.28 558.75 758.25
  Q 607.16 748.85 651.75 724.37
  Q 661.25 719.16 668.85 714.02
  Q 701.98 691.62 725.25 658.71
  Q 726.33 658.59 727.30 659.02
  A 0.61 0.58 -70.8 0 1 727.62 659.73
  Q 726.73 662.76 725.27 665.55
  Q 724.62 666.78 724.72 667.58
  Q 724.89 669.06 726.50 669.25
  Q 727.99 669.42 728.45 667.81
  A 0.82 0.68 -83.2 0 1 729.06 667.23
  L 732.81 666.84
  A 0.77 0.76 6.7 0 0 733.45 666.34
  Q 734.23 664.13 736.38 665.92
  A 0.47 0.41 -50.5 0 0 737.00 665.82
  Q 737.21 665.58 737.46 665.56
  Q 738.04 665.51 737.69 666.13
  Q 732.10 676.11 725.54 685.50
  Q 703.64 713.33 674.53 733.51
  Q 656.29 746.15 644.00 752.25
  Q 632.99 757.71 607.72 767.57
  A 1.08 0.66 -12.5 0 0 607.06 768.21
  Q 606.98 768.70 607.50 769.04
  Q 552.61 787.56 492.75 785.00
  Q 453.95 783.34 418.72 772.84
  Q 408.96 769.93 399.71 766.62
  Q 366.30 754.67 340.06 735.19
  Q 325.55 724.41 310.61 708.27
  Q 302.73 699.75 297.38 693.27
  Q 269.94 660.01 259.78 617.49
  Q 255.43 599.33 253.50 580.75
  Q 250.86 555.41 254.29 523.00
  Q 257.06 496.90 262.55 471.26
  Q 264.15 463.84 267.31 451.83
  Q 269.22 444.56 271.12 437.27
  Q 273.08 429.71 275.10 422.78
  Q 292.66 362.63 301.75 334.50
  Q 309.11 311.73 313.89 294.95
  Q 318.68 278.16 319.40 275.72
  Q 332.11 232.76 344.64 189.12
  Q 375.90 200.78 408.50 207.76
  Q 416.91 209.56 425.22 211.74
  Q 433.89 214.00 441.90 215.80
  Q 452.00 218.06 462.00 220.79
  Z"
/>
<path fill="#203450" d="
  M 461.25 224.46
  Q 478.02 230.62 485.00 233.00
  Q 503.33 239.25 520.95 247.25
  Q 528.36 250.62 538.83 256.19
  Q 562.56 268.82 568.94 272.56
  Q 587.09 283.21 607.00 299.41
  Q 615.60 306.40 622.31 312.28
  Q 655.81 341.62 682.00 381.00
  Q 715.26 431.00 729.00 486.75
  Q 740.84 534.81 733.54 582.59
  Q 732.12 591.16 728.94 600.69
  Q 723.30 617.58 715.14 632.76
  Q 710.41 641.56 704.52 649.68
  Q 689.58 670.29 669.70 686.45
  Q 651.16 701.53 631.19 711.69
  Q 603.87 725.58 572.78 733.35
  Q 534.72 742.86 495.51 740.59
  Q 464.81 738.81 436.50 731.25
  Q 410.50 724.30 385.25 711.54
  Q 365.34 700.84 350.69 689.31
  Q 325.13 669.21 307.19 639.81
  Q 302.27 631.75 296.71 618.50
  Q 290.34 601.86 287.47 584.24
  Q 284.41 550.39 288.04 516.68
  Q 288.83 509.29 290.37 496.81
  Q 294.22 465.62 302.15 435.18
  Q 302.90 432.30 304.50 429.79
  L 305.50 428.71
  Q 305.81 429.44 306.41 429.50
  Q 306.80 429.54 307.36 429.11
  Q 311.61 425.86 312.81 425.56
  Q 317.51 424.41 321.81 427.44
  Q 327.82 431.66 328.00 438.57
  Q 328.20 446.23 327.00 449.25
  Q 322.40 460.84 321.16 473.27
  Q 320.74 477.56 319.82 481.76
  Q 316.03 499.13 314.88 516.85
  Q 314.87 516.94 314.11 521.04
  Q 313.57 523.99 315.24 526.78
  Q 313.71 548.54 314.50 566.75
  Q 314.79 573.40 316.29 584.83
  Q 322.64 619.67 345.21 645.91
  Q 351.33 653.03 359.14 660.25
  Q 375.52 675.38 395.46 685.76
  Q 408.44 692.52 411.31 693.69
  Q 466.00 716.01 527.00 711.50
  Q 538.23 710.67 547.20 709.20
  Q 555.08 707.91 566.78 705.20
  Q 615.57 693.86 654.53 662.61
  Q 663.08 655.74 669.32 649.17
  Q 690.43 626.91 701.00 596.75
  Q 706.89 579.94 707.21 563.75
  L 707.29 561.25
  Q 708.35 547.67 707.66 534.08
  Q 707.66 533.98 707.46 528.41
  Q 707.26 523.04 706.22 517.76
  Q 702.85 500.61 698.54 483.68
  Q 696.02 473.77 692.67 464.57
  Q 688.08 452.00 682.83 439.68
  Q 677.74 427.75 671.29 416.50
  Q 661.95 397.52 647.56 379.44
  Q 626.25 352.66 602.50 331.54
  Q 602.79 329.16 600.31 327.69
  Q 597.12 325.79 582.35 314.18
  Q 582.12 313.99 579.29 312.32
  Q 577.95 311.52 576.44 310.06
  Q 573.62 307.35 559.56 298.04
  Q 557.22 296.49 553.91 295.43
  Q 549.60 294.03 545.53 291.97
  Q 534.44 286.23 523.33 280.52
  Q 491.74 264.30 457.80 253.84
  Q 428.31 244.76 398.24 237.82
  Q 383.38 234.39 368.50 231.04
  L 362.00 229.54
  L 361.12 228.97
  Q 361.21 223.70 361.81 221.56
  Q 364.39 212.38 367.99 202.63
  A 1.37 1.36 -75.3 0 1 369.49 201.75
  Q 380.39 203.51 391.09 206.16
  Q 408.52 210.48 410.51 210.94
  Q 436.10 216.86 461.25 224.46
  Z"
/>
<path fill="#02d0aa" d="
  M 462.00 220.79
  Q 489.97 227.20 505.75 231.25
  Q 541.16 240.33 575.10 256.53
  Q 586.15 261.80 593.01 265.40
  Q 625.43 282.46 652.81 309.69
  Q 672.27 329.03 686.79 348.78
  Q 692.21 356.16 698.23 365.17
  Q 713.84 388.55 727.75 417.25
  Q 740.64 443.84 748.07 472.46
  A 0.76 0.75 63.0 0 0 749.28 472.86
  L 758.93 464.89
  A 1.29 0.75 -51.0 0 1 759.80 464.56
  L 760.96 464.75
  Q 763.74 473.86 765.75 489.75
  Q 769.53 519.57 770.06 538.75
  Q 770.63 559.63 768.29 580.34
  Q 767.11 590.73 765.16 600.09
  Q 759.57 626.83 748.00 651.25
  Q 739.48 669.24 726.79 685.50
  Q 726.19 685.23 725.54 685.50
  Q 732.10 676.11 737.69 666.13
  Q 738.04 665.51 737.46 665.56
  Q 737.21 665.58 737.00 665.82
  A 0.47 0.41 -50.5 0 1 736.38 665.92
  Q 734.23 664.13 733.45 666.34
  A 0.77 0.76 6.7 0 1 732.81 666.84
  L 729.06 667.23
  A 0.82 0.68 -83.2 0 0 728.45 667.81
  Q 727.99 669.42 726.50 669.25
  Q 724.89 669.06 724.72 667.58
  Q 724.62 666.78 725.27 665.55
  Q 726.73 662.76 727.62 659.73
  A 0.61 0.58 -70.8 0 0 727.30 659.02
  Q 726.33 658.59 725.25 658.71
  Q 734.99 643.21 738.44 636.44
  Q 744.85 623.85 747.69 613.69
  Q 750.09 605.09 748.25 596.75
  Q 745.65 584.97 733.54 582.59
  Q 740.84 534.81 729.00 486.75
  Q 715.26 431.00 682.00 381.00
  Q 655.81 341.62 622.31 312.28
  Q 615.60 306.40 607.00 299.41
  Q 587.09 283.21 568.94 272.56
  Q 562.56 268.82 538.83 256.19
  Q 528.36 250.62 520.95 247.25
  Q 503.33 239.25 485.00 233.00
  Q 478.02 230.62 461.25 224.46
  Q 460.91 222.55 462.00 220.79
  Z"
/>
<path fill="#0fa796" d="
  M 361.12 228.97
  L 362.00 229.54
  Q 361.92 235.54 359.81 242.56
  Q 355.23 257.85 347.43 286.48
  Q 337.68 322.21 327.19 357.73
  Q 321.67 376.39 315.24 394.81
  Q 315.71 387.10 319.44 380.37
  A 1.81 1.29 65.5 0 0 319.62 379.44
  Q 319.52 378.15 320.32 377.28
  A 1.57 1.18 -28.4 0 0 320.71 376.43
  Q 320.91 372.36 323.19 368.94
  Q 324.43 367.07 326.64 356.98
  Q 328.82 346.98 331.93 337.25
  Q 335.31 326.66 336.84 320.54
  Q 342.51 297.72 348.68 275.03
  Q 352.69 260.23 356.75 248.00
  Q 359.96 238.31 361.12 228.97
  Z"
/>
<path fill="#f89d98" d="
  M 362.00 229.54
  L 368.50 231.04
  L 369.28 233.05
  A 0.83 0.71 -7.6 0 0 370.00 233.51
  Q 373.58 233.63 378.50 235.00
  Q 388.17 237.70 406.44 241.86
  Q 407.90 242.19 410.28 243.21
  Q 412.17 244.02 414.19 244.43
  Q 419.53 245.53 419.59 245.55
  Q 423.38 246.57 425.94 247.06
  Q 431.84 248.20 436.50 249.88
  Q 441.25 251.58 442.25 251.75
  Q 447.53 252.63 452.47 254.58
  Q 456.07 255.99 459.26 256.65
  Q 464.40 257.72 467.44 259.06
  Q 471.34 260.79 474.40 261.68
  Q 480.60 263.51 481.45 263.83
  Q 486.86 265.91 492.30 267.93
  Q 497.52 269.87 501.73 271.73
  Q 509.16 275.03 510.94 276.06
  Q 517.12 279.66 525.50 283.00
  Q 532.84 285.92 540.39 290.99
  Q 540.45 291.03 542.79 292.13
  Q 544.27 292.82 544.73 294.56
  A 0.39 0.34 -13.0 0 0 545.18 294.80
  Q 545.42 294.75 545.59 294.83
  Q 546.28 295.12 545.50 295.42
  L 542.04 296.75
  Q 526.52 302.66 531.08 318.83
  Q 532.51 322.15 534.19 324.06
  Q 537.44 327.77 542.39 331.13
  Q 582.89 358.65 613.94 396.26
  Q 620.19 403.84 625.63 412.46
  Q 633.03 424.17 639.62 436.33
  Q 639.57 436.97 639.19 436.36
  Q 632.73 426.01 626.35 415.61
  Q 625.54 414.30 623.15 411.32
  Q 621.60 409.39 620.12 406.83
  Q 619.30 405.40 617.66 405.21
  Q 615.94 405.01 614.06 404.87
  Q 612.42 404.75 610.45 404.83
  Q 590.38 405.71 570.31 405.04
  Q 561.94 404.77 555.69 404.76
  Q 548.37 404.76 541.06 404.69
  Q 530.05 404.58 521.07 404.64
  Q 476.99 404.93 432.92 404.08
  Q 429.72 404.02 424.60 404.35
  Q 420.43 404.61 416.25 404.54
  Q 404.88 404.35 403.75 404.37
  Q 388.24 404.67 372.74 404.88
  Q 366.15 404.96 352.75 404.77
  Q 339.71 404.58 319.75 404.75
  Q 315.66 404.78 313.28 405.42
  A 1.42 1.32 -78.9 0 0 312.52 405.97
  Q 311.18 407.96 310.67 410.28
  Q 310.07 413.01 310.05 413.07
  Q 308.61 418.30 307.51 423.82
  Q 307.33 424.75 308.17 424.32
  Q 317.42 419.62 325.32 425.78
  Q 326.51 426.71 327.31 427.99
  Q 330.23 432.69 330.92 437.18
  Q 331.38 440.25 329.94 446.72
  Q 328.41 453.58 326.94 460.46
  Q 326.93 460.52 324.19 472.37
  Q 322.10 481.35 321.14 490.53
  Q 320.63 495.42 319.70 500.78
  Q 318.82 505.89 318.36 511.06
  A 0.96 0.92 -11.8 0 1 317.86 511.79
  L 316.54 512.50
  Q 319.54 479.58 328.11 447.68
  Q 328.12 447.65 328.98 444.83
  Q 330.57 439.64 329.25 435.25
  Q 326.94 427.57 319.72 424.79
  Q 315.85 423.31 312.21 424.43
  Q 308.40 425.61 305.50 428.71
  L 304.50 429.79
  Q 303.11 430.01 304.19 428.55
  Q 304.78 427.76 305.01 426.80
  Q 306.59 420.19 308.09 414.58
  Q 309.40 409.70 311.38 404.59
  Q 313.28 399.68 315.24 394.81
  Q 321.67 376.39 327.19 357.73
  Q 337.68 322.21 347.43 286.48
  Q 355.23 257.85 359.81 242.56
  Q 361.92 235.54 362.00 229.54
  Z
  M 445.96 388.75
  Q 456.42 374.78 453.46 357.25
  L 454.43 355.49
  A 1.38 1.19 -40.7 0 0 454.57 354.57
  Q 452.07 343.97 443.29 335.45
  Q 442.92 335.09 442.51 334.78
  Q 434.48 328.88 426.00 327.54
  Q 424.05 327.24 421.01 327.65
  Q 419.10 327.91 416.00 328.25
  Q 410.39 328.87 405.12 332.16
  Q 400.50 335.05 396.91 339.94
  Q 387.45 352.85 389.53 369.75
  Q 390.85 380.45 397.85 388.65
  Q 404.80 396.78 414.64 399.91
  Q 420.29 401.70 425.99 400.81
  Q 431.78 399.91 437.04 397.14
  Q 441.65 394.72 445.71 391.46
  Q 447.14 390.30 445.96 388.75
  Z"
/>
<path fill="#eeb5b7" d="
  M 368.50 231.04
  Q 383.38 234.39 398.24 237.82
  Q 428.31 244.76 457.80 253.84
  Q 491.74 264.30 523.33 280.52
  Q 534.44 286.23 545.53 291.97
  L 550.00 294.96
  L 543.50 296.79
  L 542.04 296.75
  L 545.50 295.42
  Q 546.28 295.12 545.59 294.83
  Q 545.42 294.75 545.18 294.80
  A 0.39 0.34 -13.0 0 1 544.73 294.56
  Q 544.27 292.82 542.79 292.13
  Q 540.45 291.03 540.39 290.99
  Q 532.84 285.92 525.50 283.00
  Q 517.12 279.66 510.94 276.06
  Q 509.16 275.03 501.73 271.73
  Q 497.52 269.87 492.30 267.93
  Q 486.86 265.91 481.45 263.83
  Q 480.60 263.51 474.40 261.68
  Q 471.34 260.79 467.44 259.06
  Q 464.40 257.72 459.26 256.65
  Q 456.07 255.99 452.47 254.58
  Q 447.53 252.63 442.25 251.75
  Q 441.25 251.58 436.50 249.88
  Q 431.84 248.20 425.94 247.06
  Q 423.38 246.57 419.59 245.55
  Q 419.53 245.53 414.19 244.43
  Q 412.17 244.02 410.28 243.21
  Q 407.90 242.19 406.44 241.86
  Q 388.17 237.70 378.50 235.00
  Q 373.58 233.63 370.00 233.51
  A 0.83 0.71 -7.6 0 1 369.28 233.05
  L 368.50 231.04
  Z"
/>
<path fill="#020304" d="
  M 545.53 291.97
  Q 549.60 294.03 553.91 295.43
  Q 557.22 296.49 559.56 298.04
  Q 573.62 307.35 576.44 310.06
  Q 577.95 311.52 579.29 312.32
  Q 582.12 313.99 582.35 314.18
  Q 597.12 325.79 600.31 327.69
  Q 602.79 329.16 602.50 331.54
  Q 581.49 313.85 558.66 298.62
  Q 556.73 297.33 554.46 296.54
  Q 552.23 295.76 550.00 294.96
  L 545.53 291.97
  Z"
/>
<path fill="#fefefe" d="
  M 550.00 294.96
  Q 552.23 295.76 554.46 296.54
  Q 556.73 297.33 558.66 298.62
  Q 581.49 313.85 602.50 331.54
  Q 626.25 352.66 647.56 379.44
  Q 661.95 397.52 671.29 416.50
  Q 671.91 425.73 670.75 431.25
  Q 669.24 438.43 663.41 441.94
  Q 658.03 445.19 651.66 443.94
  Q 644.64 442.57 639.62 436.33
  Q 633.03 424.17 625.63 412.46
  Q 620.19 403.84 613.94 396.26
  Q 582.89 358.65 542.39 331.13
  Q 537.44 327.77 534.19 324.06
  Q 532.51 322.15 531.08 318.83
  Q 528.46 302.37 543.50 296.79
  L 550.00 294.96
  Z"
/>
<path fill="#bf9587" d="
  M 542.04 296.75
  L 543.50 296.79
  Q 528.46 302.37 531.08 318.83
  Q 526.52 302.66 542.04 296.75
  Z"
/>
<path fill="#eeb5b7" d="
  M 453.46 357.25
  Q 451.23 344.02 440.83 335.66
  Q 427.67 325.09 411.44 330.82
  Q 400.12 334.81 394.44 346.94
  Q 389.86 356.71 390.43 365.25
  Q 391.13 384.02 406.24 394.06
  Q 413.71 399.40 422.81 399.09
  Q 436.60 398.63 445.96 388.75
  Q 447.14 390.30 445.71 391.46
  Q 441.65 394.72 437.04 397.14
  Q 431.78 399.91 425.99 400.81
  Q 420.29 401.70 414.64 399.91
  Q 404.80 396.78 397.85 388.65
  Q 390.85 380.45 389.53 369.75
  Q 387.45 352.85 396.91 339.94
  Q 400.50 335.05 405.12 332.16
  Q 410.39 328.87 416.00 328.25
  Q 419.10 327.91 421.01 327.65
  Q 424.05 327.24 426.00 327.54
  Q 434.48 328.88 442.51 334.78
  Q 442.92 335.09 443.29 335.45
  Q 452.07 343.97 454.57 354.57
  A 1.38 1.19 -40.7 0 1 454.43 355.49
  L 453.46 357.25
  Z"
/>
<path fill="#151423" d="
  M 453.46 357.25
  Q 456.42 374.78 445.96 388.75
  Q 436.60 398.63 422.81 399.09
  Q 413.71 399.40 406.24 394.06
  Q 416.90 399.58 428.11 397.33
  Q 433.27 396.30 436.60 394.57
  Q 440.30 392.66 443.81 389.06
  Q 448.53 384.24 450.56 378.83
  Q 452.34 374.10 453.02 369.29
  Q 453.67 364.72 452.69 359.31
  Q 449.65 342.63 436.51 333.98
  Q 430.65 330.12 423.71 331.56
  Q 420.91 332.14 418.44 331.56
  Q 416.04 331.00 413.86 331.50
  Q 412.74 331.75 409.65 333.02
  Q 399.92 337.02 396.26 347.00
  Q 396.23 347.07 395.56 350.07
  Q 395.05 352.35 393.17 354.54
  A 3.04 2.97 -21.4 0 0 392.48 356.07
  Q 391.71 361.96 390.43 365.25
  Q 389.86 356.71 394.44 346.94
  Q 400.12 334.81 411.44 330.82
  Q 427.67 325.09 440.83 335.66
  Q 451.23 344.02 453.46 357.25
  Z"
/>
<path fill="#203450" d="
  M 406.24 394.06
  Q 391.13 384.02 390.43 365.25
  Q 391.71 361.96 392.48 356.07
  A 3.04 2.97 -21.4 0 1 393.17 354.54
  Q 395.05 352.35 395.56 350.07
  Q 396.23 347.07 396.26 347.00
  Q 399.92 337.02 409.65 333.02
  Q 412.74 331.75 413.86 331.50
  Q 416.04 331.00 418.44 331.56
  Q 420.91 332.14 423.71 331.56
  Q 430.65 330.12 436.51 333.98
  Q 449.65 342.63 452.69 359.31
  Q 453.67 364.72 453.02 369.29
  Q 452.34 374.10 450.56 378.83
  Q 448.53 384.24 443.81 389.06
  Q 440.30 392.66 436.60 394.57
  Q 433.27 396.30 428.11 397.33
  Q 416.90 399.58 406.24 394.06
  Z"
/>
<path fill="#fb7f87" d="
  M 639.62 436.33
  Q 644.64 442.57 651.66 443.94
  Q 658.03 445.19 663.41 441.94
  Q 669.24 438.43 670.75 431.25
  Q 671.91 425.73 671.29 416.50
  Q 677.74 427.75 682.83 439.68
  Q 688.08 452.00 692.67 464.57
  Q 696.02 473.77 698.54 483.68
  Q 702.85 500.61 706.22 517.76
  Q 707.26 523.04 707.46 528.41
  Q 707.66 533.98 707.66 534.08
  Q 708.35 547.67 707.29 561.25
  L 707.14 559.98
  A 1.54 0.56 37.2 0 0 706.62 559.17
  Q 705.71 558.26 705.89 557.08
  Q 706.07 555.89 706.07 555.76
  Q 706.30 540.00 705.75 524.24
  A 1.30 1.28 0.5 0 0 704.52 523.00
  Q 694.13 522.53 683.75 522.67
  Q 660.38 523.01 637.00 522.67
  Q 626.66 522.53 617.00 522.66
  Q 588.12 523.07 559.23 522.78
  Q 559.17 522.78 553.28 522.53
  Q 549.76 522.39 546.24 522.75
  Q 542.15 523.18 544.99 526.15
  Q 548.45 529.79 549.98 535.75
  Q 551.59 542.05 550.92 549.33
  A 0.88 0.86 80.4 0 1 550.41 550.06
  Q 548.88 550.77 549.21 549.25
  Q 550.84 538.27 544.50 528.75
  Q 538.14 519.21 527.39 516.68
  Q 518.27 514.09 509.13 517.52
  Q 505.38 518.92 502.25 522.00
  Q 496.03 528.13 493.21 536.00
  Q 491.56 536.39 492.16 535.00
  Q 494.56 529.38 498.26 524.49
  Q 499.91 522.30 497.17 522.31
  Q 441.30 522.61 385.00 522.52
  Q 378.38 522.51 365.01 522.66
  Q 342.21 522.92 318.70 522.22
  A 1.82 1.82 -88.0 0 0 316.82 523.98
  Q 316.46 534.78 315.87 545.24
  Q 314.76 564.79 318.46 584.00
  L 316.29 584.83
  Q 314.79 573.40 314.50 566.75
  Q 313.71 548.54 315.24 526.78
  L 316.54 512.50
  L 317.86 511.79
  A 0.96 0.92 -11.8 0 0 318.36 511.06
  Q 318.82 505.89 319.70 500.78
  Q 320.63 495.42 321.14 490.53
  Q 322.10 481.35 324.19 472.37
  Q 326.93 460.52 326.94 460.46
  Q 328.41 453.58 329.94 446.72
  Q 331.38 440.25 330.92 437.18
  Q 330.23 432.69 327.31 427.99
  Q 326.51 426.71 325.32 425.78
  Q 317.42 419.62 308.17 424.32
  Q 307.33 424.75 307.51 423.82
  Q 308.61 418.30 310.05 413.07
  Q 310.07 413.01 310.67 410.28
  Q 311.18 407.96 312.52 405.97
  A 1.42 1.32 -78.9 0 1 313.28 405.42
  Q 315.66 404.78 319.75 404.75
  Q 339.71 404.58 352.75 404.77
  Q 366.15 404.96 372.74 404.88
  Q 388.24 404.67 403.75 404.37
  Q 404.88 404.35 416.25 404.54
  Q 420.43 404.61 424.60 404.35
  Q 429.72 404.02 432.92 404.08
  Q 476.99 404.93 521.07 404.64
  Q 530.05 404.58 541.06 404.69
  Q 548.37 404.76 555.69 404.76
  Q 561.94 404.77 570.31 405.04
  Q 590.38 405.71 610.45 404.83
  Q 612.42 404.75 614.06 404.87
  Q 615.94 405.01 617.66 405.21
  Q 619.30 405.40 620.12 406.83
  Q 621.60 409.39 623.15 411.32
  Q 625.54 414.30 626.35 415.61
  Q 632.73 426.01 639.19 436.36
  Q 639.57 436.97 639.62 436.33
  Z
  M 608.96 467.50
  Q 612.87 460.46 614.21 452.50
  Q 614.24 454.40 615.40 453.36
  A 1.29 1.05 -25.4 0 0 615.81 452.50
  L 615.81 445.00
  Q 615.81 444.36 615.93 444.03
  Q 617.16 440.65 616.05 437.29
  Q 616.00 437.17 615.71 435.65
  Q 615.50 434.59 614.47 434.15
  A 0.86 0.80 8.7 0 1 613.95 433.50
  Q 613.54 429.87 610.75 426.00
  Q 603.47 415.92 592.92 411.71
  Q 590.49 410.74 587.41 410.69
  Q 584.59 410.64 581.76 410.67
  Q 576.91 410.71 573.39 411.84
  Q 562.41 415.33 556.15 424.20
  Q 550.77 431.84 549.40 442.81
  Q 546.64 464.85 565.31 479.94
  Q 566.34 480.77 569.75 481.41
  A 1.59 1.48 72.0 0 1 570.58 481.87
  Q 571.60 482.97 572.94 483.54
  Q 573.79 483.90 576.14 483.86
  Q 577.48 483.84 579.50 484.00
  Q 597.60 485.41 608.31 470.76
  Q 608.66 470.29 609.51 469.59
  Q 610.96 468.40 608.96 467.50
  Z
  M 453.50 506.04
  Q 469.80 500.56 473.50 484.25
  Q 476.03 473.10 469.96 462.75
  Q 471.87 460.83 470.26 459.20
  Q 469.39 458.31 469.32 458.22
  Q 466.10 454.35 463.94 453.06
  Q 458.97 450.11 450.60 447.32
  Q 447.28 446.22 444.13 446.45
  Q 436.89 447.00 431.06 449.56
  Q 417.07 455.73 413.46 470.40
  Q 412.72 473.40 412.67 477.67
  Q 412.60 483.36 413.00 485.00
  Q 413.70 487.88 418.25 495.72
  Q 419.36 497.64 421.04 498.97
  Q 423.95 501.28 424.11 501.42
  Q 427.83 504.73 432.40 506.46
  Q 436.97 508.18 441.69 508.69
  Q 446.72 509.24 452.50 508.00
  Q 454.52 507.57 453.50 506.04
  Z"
/>
<path fill="#f99ea2" d="
  M 614.21 452.50
  Q 615.67 441.64 611.79 431.48
  Q 607.96 421.46 599.06 416.44
  Q 588.10 410.25 575.33 413.16
  Q 562.26 416.13 555.57 427.57
  Q 550.61 436.27 550.52 446.20
  Q 550.47 451.77 551.08 455.81
  Q 551.82 460.62 554.19 465.03
  Q 564.24 483.76 586.01 482.91
  Q 600.98 480.20 608.96 467.50
  Q 610.96 468.40 609.51 469.59
  Q 608.66 470.29 608.31 470.76
  Q 597.60 485.41 579.50 484.00
  Q 577.48 483.84 576.14 483.86
  Q 573.79 483.90 572.94 483.54
  Q 571.60 482.97 570.58 481.87
  A 1.59 1.48 72.0 0 0 569.75 481.41
  Q 566.34 480.77 565.31 479.94
  Q 546.64 464.85 549.40 442.81
  Q 550.77 431.84 556.15 424.20
  Q 562.41 415.33 573.39 411.84
  Q 576.91 410.71 581.76 410.67
  Q 584.59 410.64 587.41 410.69
  Q 590.49 410.74 592.92 411.71
  Q 603.47 415.92 610.75 426.00
  Q 613.54 429.87 613.95 433.50
  A 0.86 0.80 8.7 0 0 614.47 434.15
  Q 615.50 434.59 615.71 435.65
  Q 616.00 437.17 616.05 437.29
  Q 617.16 440.65 615.93 444.03
  Q 615.81 444.36 615.81 445.00
  L 615.81 452.50
  A 1.29 1.05 -25.4 0 1 615.40 453.36
  Q 614.24 454.40 614.21 452.50
  Z"
/>
<path fill="#151423" d="
  M 614.21 452.50
  Q 612.87 460.46 608.96 467.50
  Q 600.98 480.20 586.01 482.91
  Q 587.35 481.29 589.15 480.84
  Q 591.11 480.36 591.18 480.33
  Q 606.88 474.50 611.67 458.23
  Q 613.30 452.68 613.00 444.25
  Q 612.54 431.54 605.04 422.96
  Q 597.42 414.25 586.75 413.50
  Q 567.74 412.16 555.57 427.57
  Q 562.26 416.13 575.33 413.16
  Q 588.10 410.25 599.06 416.44
  Q 607.96 421.46 611.79 431.48
  Q 615.67 441.64 614.21 452.50
  Z"
/>
<path fill="#203450" d="
  M 586.01 482.91
  Q 564.24 483.76 554.19 465.03
  Q 551.82 460.62 551.08 455.81
  Q 550.47 451.77 550.52 446.20
  Q 550.61 436.27 555.57 427.57
  Q 567.74 412.16 586.75 413.50
  Q 597.42 414.25 605.04 422.96
  Q 612.54 431.54 613.00 444.25
  Q 613.30 452.68 611.67 458.23
  Q 606.88 474.50 591.18 480.33
  Q 591.11 480.36 589.15 480.84
  Q 587.35 481.29 586.01 482.91
  Z"
/>
<path fill="#151423" d="
  M 316.54 512.50
  L 315.24 526.78
  Q 313.57 523.99 314.11 521.04
  Q 314.87 516.94 314.88 516.85
  Q 316.03 499.13 319.82 481.76
  Q 320.74 477.56 321.16 473.27
  Q 322.40 460.84 327.00 449.25
  Q 328.20 446.23 328.00 438.57
  Q 327.82 431.66 321.81 427.44
  Q 317.51 424.41 312.81 425.56
  Q 311.61 425.86 307.36 429.11
  Q 306.80 429.54 306.41 429.50
  Q 305.81 429.44 305.50 428.71
  Q 308.40 425.61 312.21 424.43
  Q 315.85 423.31 319.72 424.79
  Q 326.94 427.57 329.25 435.25
  Q 330.57 439.64 328.98 444.83
  Q 328.12 447.65 328.11 447.68
  Q 319.54 479.58 316.54 512.50
  Z"
/>
<path fill="#f99ea2" d="
  M 469.96 462.75
  Q 459.83 447.89 441.51 448.93
  Q 431.57 449.49 424.06 455.31
  Q 416.92 460.84 415.57 470.13
  Q 412.14 480.22 417.00 490.25
  Q 422.92 502.45 435.45 505.79
  Q 444.49 509.43 453.50 506.04
  Q 454.52 507.57 452.50 508.00
  Q 446.72 509.24 441.69 508.69
  Q 436.97 508.18 432.40 506.46
  Q 427.83 504.73 424.11 501.42
  Q 423.95 501.28 421.04 498.97
  Q 419.36 497.64 418.25 495.72
  Q 413.70 487.88 413.00 485.00
  Q 412.60 483.36 412.67 477.67
  Q 412.72 473.40 413.46 470.40
  Q 417.07 455.73 431.06 449.56
  Q 436.89 447.00 444.13 446.45
  Q 447.28 446.22 450.60 447.32
  Q 458.97 450.11 463.94 453.06
  Q 466.10 454.35 469.32 458.22
  Q 469.39 458.31 470.26 459.20
  Q 471.87 460.83 469.96 462.75
  Z"
/>
<path fill="#151423" d="
  M 469.96 462.75
  Q 476.03 473.10 473.50 484.25
  Q 469.80 500.56 453.50 506.04
  Q 444.49 509.43 435.45 505.79
  Q 446.98 507.65 455.50 504.25
  Q 464.59 500.62 470.56 490.56
  Q 472.20 487.80 472.61 484.18
  Q 472.86 482.03 473.38 479.40
  Q 473.89 476.78 473.50 474.50
  Q 472.21 466.96 467.13 461.07
  Q 464.28 457.78 461.72 455.61
  Q 458.68 453.04 454.97 451.72
  Q 449.96 449.94 443.95 449.66
  Q 437.74 449.38 431.80 452.05
  Q 419.71 457.49 415.57 470.13
  Q 416.92 460.84 424.06 455.31
  Q 431.57 449.49 441.51 448.93
  Q 459.83 447.89 469.96 462.75
  Z"
/>
<path fill="#203450" d="
  M 435.45 505.79
  Q 422.92 502.45 417.00 490.25
  Q 412.14 480.22 415.57 470.13
  Q 419.71 457.49 431.80 452.05
  Q 437.74 449.38 443.95 449.66
  Q 449.96 449.94 454.97 451.72
  Q 458.68 453.04 461.72 455.61
  Q 464.28 457.78 467.13 461.07
  Q 472.21 466.96 473.50 474.50
  Q 473.89 476.78 473.38 479.40
  Q 472.86 482.03 472.61 484.18
  Q 472.20 487.80 470.56 490.56
  Q 464.59 500.62 455.50 504.25
  Q 446.98 507.65 435.45 505.79
  Z"
/>
<path fill="#020304" d="
  M 231.04 489.00
  Q 232.04 488.81 231.83 490.01
  Q 229.76 502.00 227.95 514.03
  Q 227.65 515.97 227.47 520.00
  Q 227.36 522.46 227.00 526.00
  Q 225.06 545.27 225.75 555.25
  Q 226.46 565.47 224.97 572.26
  Q 223.51 548.23 225.75 525.75
  Q 227.45 508.67 231.04 489.00
  Z"
/>
<path fill="#1f334e" d="
  M 527.39 516.68
  Q 534.45 520.08 540.69 526.56
  Q 550.10 536.35 548.36 549.62
  Q 548.32 549.89 548.29 549.63
  Q 548.23 549.17 548.09 549.34
  Q 548.00 549.45 547.99 549.68
  Q 547.84 554.25 545.94 557.44
  Q 541.72 564.52 533.85 569.12
  Q 529.38 571.74 522.50 572.50
  Q 518.40 572.95 515.19 572.12
  Q 513.85 571.78 510.22 570.59
  Q 507.51 569.70 505.56 568.19
  Q 502.56 565.85 496.00 559.29
  Q 489.28 548.36 493.21 536.00
  Q 496.03 528.13 502.25 522.00
  Q 505.38 518.92 509.13 517.52
  Q 518.27 514.09 527.39 516.68
  Z"
/>
<path fill="#151423" d="
  M 527.39 516.68
  Q 538.14 519.21 544.50 528.75
  Q 550.84 538.27 549.21 549.25
  Q 544.88 567.56 528.36 572.41
  Q 521.65 574.38 515.07 572.84
  Q 503.19 570.06 496.00 559.29
  Q 502.56 565.85 505.56 568.19
  Q 507.51 569.70 510.22 570.59
  Q 513.85 571.78 515.19 572.12
  Q 518.40 572.95 522.50 572.50
  Q 529.38 571.74 533.85 569.12
  Q 541.72 564.52 545.94 557.44
  Q 547.84 554.25 547.99 549.68
  Q 548.00 549.45 548.09 549.34
  Q 548.23 549.17 548.29 549.63
  Q 548.32 549.89 548.36 549.62
  Q 550.10 536.35 540.69 526.56
  Q 534.45 520.08 527.39 516.68
  Z"
/>
<path fill="#fb586f" d="
  M 493.21 536.00
  Q 489.28 548.36 496.00 559.29
  Q 503.19 570.06 515.07 572.84
  Q 521.65 574.38 528.36 572.41
  Q 544.88 567.56 549.21 549.25
  Q 548.88 550.77 550.41 550.06
  A 0.88 0.86 80.4 0 0 550.92 549.33
  Q 551.59 542.05 549.98 535.75
  Q 548.45 529.79 544.99 526.15
  Q 542.15 523.18 546.24 522.75
  Q 549.76 522.39 553.28 522.53
  Q 559.17 522.78 559.23 522.78
  Q 588.12 523.07 617.00 522.66
  Q 626.66 522.53 637.00 522.67
  Q 660.38 523.01 683.75 522.67
  Q 694.13 522.53 704.52 523.00
  A 1.30 1.28 0.5 0 1 705.75 524.24
  Q 706.30 540.00 706.07 555.76
  Q 706.07 555.89 705.89 557.08
  Q 705.71 558.26 706.62 559.17
  A 1.54 0.56 37.2 0 1 707.14 559.98
  L 707.29 561.25
  L 707.21 563.75
  L 704.77 564.37
  A 0.97 0.71 -86.1 0 0 704.20 565.05
  Q 702.96 570.13 699.81 576.31
  Q 695.66 584.46 691.45 591.13
  Q 687.34 597.65 681.03 604.52
  Q 670.27 616.24 656.94 628.44
  Q 653.37 631.70 650.46 637.00
  Q 628.73 637.45 607.00 637.00
  Q 596.12 636.78 587.00 636.86
  Q 574.25 636.96 551.56 637.06
  Q 548.93 637.07 548.51 639.21
  Q 548.06 641.49 548.02 641.59
  Q 547.45 643.00 546.66 644.30
  Q 545.78 645.74 545.57 647.07
  Q 544.96 651.02 544.50 655.00
  Q 544.21 657.56 542.88 659.67
  Q 541.44 661.96 541.39 662.04
  Q 535.76 672.08 526.01 678.05
  Q 523.99 679.28 521.38 680.04
  Q 518.95 680.75 516.49 681.38
  A 1.39 1.23 50.1 0 1 515.56 681.24
  Q 513.60 680.18 511.25 680.29
  Q 521.11 680.32 529.10 674.62
  Q 537.54 668.58 540.75 659.18
  Q 542.35 654.49 542.98 648.86
  Q 543.57 643.59 542.82 638.24
  Q 541.97 632.25 539.09 627.17
  Q 536.30 622.24 531.99 618.14
  Q 523.52 610.08 510.99 609.66
  Q 500.12 609.31 491.73 615.99
  Q 482.93 623.00 480.25 631.75
  Q 475.86 646.10 482.31 661.44
  Q 486.13 670.51 495.25 675.96
  Q 491.92 675.98 488.44 672.81
  Q 484.97 669.66 481.50 666.50
  Q 479.69 664.86 478.74 662.03
  Q 478.47 661.22 478.26 658.41
  Q 478.12 656.34 477.19 654.81
  Q 475.04 651.28 474.62 647.63
  A 4.07 4.05 54.7 0 1 475.01 645.33
  Q 476.63 641.98 476.52 639.60
  Q 476.43 637.69 474.53 637.46
  Q 469.05 636.81 463.75 636.82
  Q 449.25 636.87 434.75 636.95
  Q 429.30 636.97 414.76 636.81
  Q 387.99 636.52 361.30 638.42
  Q 359.26 635.19 357.02 632.01
  Q 354.74 628.75 351.81 626.66
  Q 348.73 624.45 345.41 622.61
  Q 338.88 618.98 334.56 612.90
  Q 331.49 608.56 328.69 603.06
  Q 324.74 595.33 318.46 584.00
  Q 314.76 564.79 315.87 545.24
  Q 316.46 534.78 316.82 523.98
  A 1.82 1.82 -88.4 0 1 318.70 522.22
  Q 342.21 522.92 365.01 522.66
  Q 378.38 522.51 385.00 522.52
  Q 441.30 522.61 497.17 522.31
  Q 499.91 522.30 498.26 524.49
  Q 494.56 529.38 492.16 535.00
  Q 491.56 536.39 493.21 536.00
  Z
  M 394.96 607.50
  Q 402.61 604.62 406.31 601.06
  Q 414.17 593.49 416.41 580.78
  Q 417.95 577.26 418.02 573.44
  Q 418.06 570.89 417.51 566.05
  Q 416.28 555.21 408.74 547.01
  Q 397.56 534.87 380.94 537.44
  Q 370.62 539.03 363.95 545.00
  Q 360.14 548.40 357.77 552.16
  Q 355.42 555.88 354.00 561.00
  Q 351.26 570.86 352.66 579.69
  Q 353.49 584.93 355.13 589.65
  Q 356.96 594.92 360.31 598.69
  Q 371.04 610.73 388.06 610.26
  Q 388.56 610.25 388.88 610.03
  Q 389.24 609.78 389.50 609.42
  A 0.70 0.70 24.2 0 1 390.22 609.15
  Q 390.89 609.29 391.49 609.05
  A 1.55 1.07 -39.7 0 1 392.40 608.97
  Q 394.55 609.61 394.96 607.50
  Z
  M 615.69 547.44
  Q 606.95 555.89 605.17 566.83
  Q 602.73 581.79 610.23 594.85
  Q 617.32 607.20 632.00 609.00
  Q 645.31 610.64 654.91 603.57
  Q 660.73 599.29 663.99 591.76
  Q 669.76 578.45 666.08 563.44
  Q 663.63 553.48 655.06 546.44
  Q 645.42 538.51 633.49 539.27
  Q 623.47 539.91 615.69 547.44
  Z"
/>
<path fill="#f4768d" d="
  M 416.41 580.78
  Q 417.29 574.46 416.75 569.00
  Q 415.15 552.85 403.36 544.58
  Q 395.08 538.78 384.58 538.86
  Q 372.53 538.96 364.05 547.03
  Q 357.00 553.75 354.56 564.25
  Q 351.53 577.26 356.80 589.68
  Q 359.98 597.17 365.71 601.81
  Q 371.93 606.85 379.75 608.50
  Q 386.85 609.99 394.96 607.50
  Q 394.55 609.61 392.40 608.97
  A 1.55 1.07 -39.7 0 0 391.49 609.05
  Q 390.89 609.29 390.22 609.15
  A 0.70 0.70 24.2 0 0 389.50 609.42
  Q 389.24 609.78 388.88 610.03
  Q 388.56 610.25 388.06 610.26
  Q 371.04 610.73 360.31 598.69
  Q 356.96 594.92 355.13 589.65
  Q 353.49 584.93 352.66 579.69
  Q 351.26 570.86 354.00 561.00
  Q 355.42 555.88 357.77 552.16
  Q 360.14 548.40 363.95 545.00
  Q 370.62 539.03 380.94 537.44
  Q 397.56 534.87 408.74 547.01
  Q 416.28 555.21 417.51 566.05
  Q 418.06 570.89 418.02 573.44
  Q 417.95 577.26 416.41 580.78
  Z"
/>
<path fill="#1f334e" d="
  M 416.41 580.78
  Q 414.17 593.49 406.31 601.06
  Q 402.61 604.62 394.96 607.50
  Q 386.85 609.99 379.75 608.50
  Q 371.93 606.85 365.71 601.81
  Q 359.98 597.17 356.80 589.68
  Q 351.53 577.26 354.56 564.25
  Q 357.00 553.75 364.05 547.03
  Q 372.53 538.96 384.58 538.86
  Q 395.08 538.78 403.36 544.58
  Q 415.15 552.85 416.75 569.00
  Q 417.29 574.46 416.41 580.78
  Z"
/>
<path fill="#1f334e" d="
  M 615.69 547.44
  Q 623.47 539.91 633.49 539.27
  Q 645.42 538.51 655.06 546.44
  Q 663.63 553.48 666.08 563.44
  Q 669.76 578.45 663.99 591.76
  Q 660.73 599.29 654.91 603.57
  Q 645.31 610.64 632.00 609.00
  Q 617.32 607.20 610.23 594.85
  Q 602.73 581.79 605.17 566.83
  Q 606.95 555.89 615.69 547.44
  Z"
/>
<path fill="#f72458" d="
  M 707.21 563.75
  Q 706.89 579.94 701.00 596.75
  Q 690.43 626.91 669.32 649.17
  Q 663.08 655.74 654.53 662.61
  Q 615.57 693.86 566.78 705.20
  Q 555.08 707.91 547.20 709.20
  Q 538.23 710.67 527.00 711.50
  Q 466.00 716.01 411.31 693.69
  Q 408.44 692.52 395.46 685.76
  Q 375.52 675.38 359.14 660.25
  Q 351.33 653.03 345.21 645.91
  Q 322.64 619.67 316.29 584.83
  L 318.46 584.00
  Q 324.74 595.33 328.69 603.06
  Q 331.49 608.56 334.56 612.90
  Q 338.88 618.98 345.41 622.61
  Q 348.73 624.45 351.81 626.66
  Q 354.74 628.75 357.02 632.01
  Q 359.26 635.19 361.30 638.42
  Q 366.19 648.77 375.56 655.94
  Q 404.11 677.76 438.44 685.38
  Q 446.02 687.06 458.10 688.92
  Q 498.96 695.19 540.08 690.73
  Q 550.99 689.55 559.84 687.69
  Q 603.87 678.44 639.69 649.94
  Q 646.68 644.37 650.46 637.00
  Q 653.37 631.70 656.94 628.44
  Q 670.27 616.24 681.03 604.52
  Q 687.34 597.65 691.45 591.13
  Q 695.66 584.46 699.81 576.31
  Q 702.96 570.13 704.20 565.05
  A 0.97 0.71 -86.1 0 1 704.77 564.37
  L 707.21 563.75
  Z"
/>
<path fill="#64eab7" d="
  M 733.54 582.59
  Q 745.65 584.97 748.25 596.75
  Q 750.09 605.09 747.69 613.69
  Q 744.85 623.85 738.44 636.44
  Q 734.99 643.21 725.25 658.71
  Q 701.98 691.62 668.85 714.02
  Q 661.25 719.16 651.75 724.37
  Q 607.16 748.85 558.75 758.25
  Q 532.84 763.28 503.00 762.41
  Q 468.29 761.40 434.88 752.49
  Q 424.67 749.77 415.67 746.92
  Q 380.80 735.87 350.49 715.44
  Q 342.26 709.88 334.70 703.19
  Q 322.35 692.25 311.37 679.87
  Q 299.96 666.98 288.44 647.06
  Q 279.13 630.96 275.37 612.73
  Q 273.57 604.03 275.25 595.75
  Q 276.04 591.86 278.56 588.31
  Q 281.52 584.16 287.47 584.24
  Q 290.34 601.86 296.71 618.50
  Q 295.65 618.97 296.12 620.16
  Q 306.56 646.57 325.56 667.67
  Q 341.51 685.39 358.56 696.94
  Q 364.86 701.20 367.57 703.15
  Q 369.30 704.38 371.22 705.46
  Q 373.11 706.52 374.90 707.74
  Q 376.73 708.98 379.42 710.15
  Q 381.35 710.99 384.06 712.44
  Q 385.39 713.15 385.25 711.54
  Q 410.50 724.30 436.50 731.25
  Q 464.81 738.81 495.51 740.59
  Q 534.72 742.86 572.78 733.35
  Q 603.87 725.58 631.19 711.69
  Q 651.16 701.53 669.70 686.45
  Q 689.58 670.29 704.52 649.68
  Q 710.41 641.56 715.14 632.76
  Q 723.30 617.58 728.94 600.69
  Q 732.12 591.16 733.54 582.59
  Z"
/>
<path fill="#1f334e" d="
  M 511.25 680.29
  Q 502.78 679.83 495.25 675.96
  Q 486.13 670.51 482.31 661.44
  Q 475.86 646.10 480.25 631.75
  Q 482.93 623.00 491.73 615.99
  Q 500.12 609.31 510.99 609.66
  Q 523.52 610.08 531.99 618.14
  Q 536.30 622.24 539.09 627.17
  Q 541.97 632.25 542.82 638.24
  Q 543.57 643.59 542.98 648.86
  Q 542.35 654.49 540.75 659.18
  Q 537.54 668.58 529.10 674.62
  Q 521.11 680.32 511.25 680.29
  Z"
/>
<path fill="#7bf5d3" d="
  M 296.71 618.50
  Q 302.27 631.75 307.19 639.81
  Q 325.13 669.21 350.69 689.31
  Q 365.34 700.84 385.25 711.54
  Q 385.39 713.15 384.06 712.44
  Q 381.35 710.99 379.42 710.15
  Q 376.73 708.98 374.90 707.74
  Q 373.11 706.52 371.22 705.46
  Q 369.30 704.38 367.57 703.15
  Q 364.86 701.20 358.56 696.94
  Q 341.51 685.39 325.56 667.67
  Q 306.56 646.57 296.12 620.16
  Q 295.65 618.97 296.71 618.50
  Z"
/>
<path fill="#fc3f64" d="
  M 495.25 675.96
  Q 502.78 679.83 511.25 680.29
  Q 513.60 680.18 515.56 681.24
  A 1.39 1.23 50.1 0 0 516.49 681.38
  Q 518.95 680.75 521.38 680.04
  Q 523.99 679.28 526.01 678.05
  Q 535.76 672.08 541.39 662.04
  Q 541.44 661.96 542.88 659.67
  Q 544.21 657.56 544.50 655.00
  Q 544.96 651.02 545.57 647.07
  Q 545.78 645.74 546.66 644.30
  Q 547.45 643.00 548.02 641.59
  Q 548.06 641.49 548.51 639.21
  Q 548.93 637.07 551.56 637.06
  Q 574.25 636.96 587.00 636.86
  Q 596.12 636.78 607.00 637.00
  Q 628.73 637.45 650.46 637.00
  Q 646.68 644.37 639.69 649.94
  Q 603.87 678.44 559.84 687.69
  Q 550.99 689.55 540.08 690.73
  Q 498.96 695.19 458.10 688.92
  Q 446.02 687.06 438.44 685.38
  Q 404.11 677.76 375.56 655.94
  Q 366.19 648.77 361.30 638.42
  Q 387.99 636.52 414.76 636.81
  Q 429.30 636.97 434.75 636.95
  Q 449.25 636.87 463.75 636.82
  Q 469.05 636.81 474.53 637.46
  Q 476.43 637.69 476.52 639.60
  Q 476.63 641.98 475.01 645.33
  A 4.07 4.05 54.7 0 0 474.62 647.63
  Q 475.04 651.28 477.19 654.81
  Q 478.12 656.34 478.26 658.41
  Q 478.47 661.22 478.74 662.03
  Q 479.69 664.86 481.50 666.50
  Q 484.97 669.66 488.44 672.81
  Q 491.92 675.98 495.25 675.96
  Z"
/>
<path fill="#21d1bd" d="
  M 726.79 685.50
  Q 680.06 745.53 607.50 769.04
  Q 606.98 768.70 607.06 768.21
  A 1.08 0.66 -12.5 0 1 607.72 767.57
  Q 632.99 757.71 644.00 752.25
  Q 656.29 746.15 674.53 733.51
  Q 703.64 713.33 725.54 685.50
  Q 726.19 685.23 726.79 685.50
  Z"
/>
<path fill="#020304" d="
  M 282.94 718.68
  Q 271.88 707.57 263.46 694.50
  Q 263.97 693.20 264.69 694.31
  Q 269.41 701.70 270.56 702.94
  Q 277.43 710.27 282.94 718.68
  Z"
/>
</svg>
